<svg xmlns="http://www.w3.org/2000/svg" xmlns:xlink="http://www.w3.org/1999/xlink" width="1080" zoomAndPan="magnify" viewBox="0 0 810 809.999993" height="1080" preserveAspectRatio="xMidYMid meet" version="1.0"><defs><clipPath id="9570c6f6db"><path d="M 29 493 L 806.667969 493 L 806.667969 746.15625 L 29 746.15625 Z M 29 493 " clip-rule="nonzero"/></clipPath><clipPath id="d7a1de3106"><path d="M 3.417969 63.65625 L 501 63.65625 L 501 711 L 3.417969 711 Z M 3.417969 63.65625 " clip-rule="nonzero"/></clipPath></defs><g clip-path="url(#9570c6f6db)"><path fill="#4f45e4" d="M 780.59375 509.878906 C 771.167969 504.632812 760.976562 500.488281 750.28125 497.691406 C 744.9375 496.308594 739.472656 495.246094 733.929688 494.519531 L 733.410156 494.441406 L 733.152344 494.410156 L 732.890625 494.382812 L 731.84375 494.265625 C 731.148438 494.183594 730.453125 494.105469 729.761719 494.035156 C 729.058594 493.964844 728.363281 493.910156 727.667969 493.847656 L 726.621094 493.757812 C 726.445312 493.738281 726.273438 493.722656 726.089844 493.710938 L 725.570312 493.679688 C 724.863281 493.632812 724.167969 493.589844 723.464844 493.546875 C 723.113281 493.527344 722.761719 493.496094 722.410156 493.488281 L 721.351562 493.449219 C 720.648438 493.421875 719.945312 493.390625 719.242188 493.363281 C 718.539062 493.347656 717.828125 493.34375 717.125 493.328125 C 714.300781 493.28125 711.46875 493.347656 708.628906 493.441406 C 707.921875 493.476562 707.210938 493.515625 706.5 493.554688 L 704.90625 493.636719 L 704.371094 493.679688 C 703.664062 493.730469 702.960938 493.785156 702.242188 493.835938 C 701.890625 493.863281 701.53125 493.886719 701.179688 493.921875 L 700.113281 494.019531 C 699.398438 494.089844 698.6875 494.15625 697.980469 494.222656 C 697.273438 494.300781 696.566406 494.386719 695.851562 494.472656 L 694.785156 494.59375 L 694.253906 494.660156 L 693.722656 494.730469 C 693.011719 494.824219 692.300781 494.921875 691.589844 495.023438 C 691.238281 495.066406 690.882812 495.113281 690.527344 495.171875 L 689.464844 495.335938 C 688.753906 495.445312 688.042969 495.558594 687.332031 495.671875 C 686.625 495.785156 685.917969 495.917969 685.210938 496.042969 L 684.144531 496.226562 C 683.792969 496.289062 683.4375 496.351562 683.085938 496.417969 C 677.429688 497.492188 671.777344 498.8125 666.175781 500.339844 L 665.648438 500.480469 L 665.125 500.628906 L 664.074219 500.925781 C 663.375 501.128906 662.671875 501.324219 661.972656 501.527344 C 661.277344 501.738281 660.578125 501.949219 659.882812 502.160156 C 659.183594 502.371094 658.484375 502.582031 657.785156 502.804688 C 656.398438 503.25 655 503.683594 653.617188 504.15625 C 652.925781 504.386719 652.226562 504.617188 651.535156 504.851562 C 650.84375 505.09375 650.152344 505.339844 649.460938 505.582031 C 646.691406 506.542969 643.9375 507.578125 641.1875 508.628906 C 640.5 508.894531 639.820312 509.171875 639.132812 509.441406 C 638.445312 509.714844 637.761719 509.980469 637.082031 510.261719 C 636.394531 510.542969 635.710938 510.824219 635.027344 511.105469 L 634.007812 511.527344 L 632.984375 511.960938 C 627.535156 514.261719 622.128906 516.726562 616.765625 519.332031 C 611.40625 521.949219 606.089844 524.707031 600.816406 527.589844 L 599.828125 528.128906 L 598.839844 528.679688 C 598.183594 529.039062 597.527344 529.40625 596.867188 529.777344 C 596.210938 530.136719 595.558594 530.515625 594.902344 530.886719 C 594.246094 531.261719 593.59375 531.632812 592.933594 532.003906 C 592.28125 532.382812 591.625 532.765625 590.972656 533.140625 C 590.324219 533.519531 589.667969 533.902344 589.023438 534.285156 C 587.722656 535.054688 586.421875 535.820312 585.125 536.59375 C 584.46875 536.972656 583.828125 537.367188 583.175781 537.761719 C 582.53125 538.152344 581.886719 538.542969 581.226562 538.933594 C 580.585938 539.328125 579.933594 539.714844 579.28125 540.109375 C 578.640625 540.503906 577.996094 540.902344 577.347656 541.296875 C 576.054688 542.09375 574.753906 542.882812 573.464844 543.6875 C 572.175781 544.492188 570.886719 545.296875 569.59375 546.109375 L 568.625 546.710938 L 567.65625 547.324219 C 567.015625 547.730469 566.367188 548.136719 565.730469 548.550781 C 565.078125 548.960938 564.4375 549.363281 563.792969 549.777344 C 563.148438 550.1875 562.511719 550.601562 561.859375 551.015625 C 560.578125 551.839844 559.292969 552.671875 558.003906 553.5 C 556.722656 554.339844 555.445312 555.175781 554.152344 556.015625 C 533.621094 569.472656 513.277344 583.820312 492.78125 598.476562 C 472.292969 613.136719 451.644531 628.109375 430.460938 642.78125 C 425.167969 646.445312 419.839844 650.097656 414.46875 653.710938 C 409.097656 657.328125 403.691406 660.917969 398.234375 664.457031 C 396.871094 665.347656 395.503906 666.222656 394.132812 667.105469 C 392.761719 667.984375 391.394531 668.871094 390.015625 669.734375 C 388.636719 670.609375 387.261719 671.480469 385.878906 672.351562 C 384.496094 673.21875 383.109375 674.078125 381.722656 674.945312 C 376.167969 678.382812 370.566406 681.777344 364.902344 685.097656 C 359.238281 688.410156 353.515625 691.65625 347.738281 694.828125 C 341.953125 697.988281 336.109375 701.054688 330.199219 704.039062 C 324.296875 707.027344 318.3125 709.882812 312.269531 712.640625 C 309.253906 714.03125 306.203125 715.355469 303.152344 716.6875 C 301.625 717.335938 300.089844 717.980469 298.558594 718.636719 C 297.792969 718.960938 297.019531 719.269531 296.246094 719.585938 C 295.476562 719.902344 294.703125 720.210938 293.933594 720.527344 C 293.261719 720.800781 292.59375 721.070312 291.921875 721.339844 C 291.25 721.605469 290.578125 721.871094 289.90625 722.128906 C 289.230469 722.394531 288.558594 722.65625 287.886719 722.917969 L 286.878906 723.308594 C 286.542969 723.445312 286.207031 723.574219 285.867188 723.699219 C 283.160156 724.707031 280.46875 725.738281 277.75 726.683594 C 277.070312 726.925781 276.394531 727.164062 275.714844 727.40625 L 274.699219 727.769531 L 273.675781 728.117188 C 272.3125 728.578125 270.953125 729.039062 269.59375 729.5 C 269.253906 729.613281 268.914062 729.730469 268.570312 729.84375 L 267.542969 730.171875 C 266.859375 730.390625 266.175781 730.609375 265.492188 730.828125 C 264.8125 731.046875 264.128906 731.269531 263.445312 731.488281 L 262.933594 731.648438 L 262.417969 731.808594 L 261.390625 732.117188 C 260.019531 732.535156 258.648438 732.953125 257.273438 733.367188 C 256.933594 733.472656 256.589844 733.570312 256.242188 733.664062 L 255.210938 733.957031 C 254.523438 734.152344 253.835938 734.351562 253.148438 734.550781 C 252.457031 734.746094 251.773438 734.9375 251.085938 735.132812 C 250.394531 735.320312 249.703125 735.503906 249.011719 735.691406 C 247.632812 736.058594 246.25 736.421875 244.875 736.785156 C 239.363281 738.199219 233.867188 739.417969 228.371094 740.058594 C 225.628906 740.378906 222.886719 740.546875 220.171875 740.523438 C 217.453125 740.496094 214.757812 740.277344 212.125 739.808594 C 211.796875 739.746094 211.464844 739.699219 211.140625 739.625 L 210.652344 739.527344 L 210.40625 739.476562 L 210.171875 739.421875 C 209.546875 739.28125 208.925781 739.113281 208.3125 738.925781 C 207.695312 738.742188 207.09375 738.519531 206.496094 738.296875 C 205.902344 738.058594 205.3125 737.8125 204.738281 737.535156 C 204.167969 737.257812 203.605469 736.972656 203.066406 736.652344 L 202.863281 736.535156 L 202.664062 736.410156 L 202.265625 736.164062 C 202.011719 735.988281 201.75 735.820312 201.503906 735.640625 C 201.378906 735.546875 201.25 735.460938 201.128906 735.363281 L 200.769531 735.089844 C 200.648438 734.992188 200.539062 734.890625 200.417969 734.796875 L 200.246094 734.652344 C 200.1875 734.605469 200.132812 734.554688 200.078125 734.503906 C 199.621094 734.101562 199.214844 733.679688 198.828125 733.25 C 198.058594 732.371094 197.4375 731.425781 197.003906 730.433594 C 196.777344 729.941406 196.621094 729.429688 196.492188 728.910156 C 196.359375 728.390625 196.304688 727.863281 196.265625 727.328125 C 196.210938 726.261719 196.34375 725.164062 196.65625 724.050781 C 196.964844 722.941406 197.441406 721.820312 198.035156 720.710938 C 198.625 719.601562 199.324219 718.5 200.089844 717.410156 C 200.472656 716.859375 200.871094 716.316406 201.28125 715.765625 C 201.484375 715.492188 201.695312 715.214844 201.902344 714.945312 L 202.527344 714.136719 C 203.367188 713.070312 204.242188 712.015625 205.136719 710.976562 C 206.035156 709.933594 206.953125 708.90625 207.886719 707.886719 C 209.757812 705.855469 211.691406 703.863281 213.65625 701.894531 C 215.621094 699.925781 217.621094 697.976562 219.632812 696.039062 C 223.652344 692.164062 227.722656 688.316406 231.726562 684.394531 C 235.734375 680.472656 239.683594 676.480469 243.464844 672.3125 C 245.355469 670.222656 247.203125 668.097656 248.984375 665.910156 C 249.425781 665.355469 249.875 664.8125 250.308594 664.25 L 250.960938 663.417969 L 251.601562 662.570312 C 252.03125 662.007812 252.445312 661.4375 252.867188 660.867188 C 253.078125 660.578125 253.277344 660.285156 253.484375 660 C 253.691406 659.707031 253.898438 659.425781 254.097656 659.128906 L 254.699219 658.25 C 254.902344 657.957031 255.09375 657.660156 255.289062 657.359375 C 255.6875 656.777344 256.0625 656.167969 256.441406 655.566406 C 257.1875 654.355469 257.921875 653.128906 258.597656 651.871094 C 258.949219 651.242188 259.269531 650.605469 259.597656 649.964844 C 259.757812 649.644531 259.914062 649.320312 260.070312 649 L 260.304688 648.515625 L 260.972656 647.039062 L 261.390625 646.042969 C 261.53125 645.710938 261.664062 645.375 261.792969 645.039062 L 261.988281 644.53125 C 262.054688 644.363281 262.117188 644.195312 262.175781 644.023438 L 262.539062 643 C 262.597656 642.832031 262.652344 642.65625 262.707031 642.484375 L 262.871094 641.964844 L 263.035156 641.449219 C 263.085938 641.273438 263.136719 641.097656 263.183594 640.921875 C 263.28125 640.570312 263.382812 640.222656 263.476562 639.871094 C 263.839844 638.457031 264.136719 637.03125 264.359375 635.582031 C 264.566406 634.136719 264.707031 632.667969 264.75 631.195312 C 264.78125 629.714844 264.71875 628.222656 264.542969 626.738281 C 264.191406 623.773438 263.328125 620.832031 261.980469 618.132812 C 261.304688 616.789062 260.515625 615.5 259.621094 614.300781 C 258.730469 613.097656 257.738281 611.984375 256.675781 610.953125 C 254.546875 608.894531 252.144531 607.195312 249.625 605.792969 C 247.09375 604.402344 244.445312 603.3125 241.75 602.453125 C 240.398438 602.023438 239.035156 601.660156 237.664062 601.34375 C 236.980469 601.179688 236.292969 601.046875 235.605469 600.902344 L 234.570312 600.71875 C 234.226562 600.65625 233.878906 600.613281 233.53125 600.554688 C 232.152344 600.339844 230.761719 600.175781 229.375 600.058594 C 227.984375 599.953125 226.59375 599.886719 225.203125 599.863281 C 223.816406 599.832031 222.425781 599.863281 221.039062 599.929688 C 219.652344 600.003906 218.265625 600.121094 216.890625 600.285156 C 214.132812 600.621094 211.394531 601.140625 208.707031 601.898438 L 207.699219 602.199219 C 207.367188 602.300781 207.035156 602.414062 206.703125 602.519531 C 206.535156 602.574219 206.378906 602.632812 206.21875 602.6875 L 205.738281 602.851562 L 204.78125 603.1875 L 204.300781 603.355469 L 203.824219 603.53125 L 202.875 603.886719 C 202.558594 604.003906 202.242188 604.117188 201.925781 604.242188 L 200.984375 604.605469 C 198.472656 605.589844 195.992188 606.636719 193.554688 607.75 C 191.113281 608.867188 188.707031 610.039062 186.332031 611.246094 C 185.738281 611.554688 185.144531 611.855469 184.558594 612.164062 C 183.96875 612.480469 183.382812 612.789062 182.792969 613.097656 C 182.210938 613.417969 181.625 613.734375 181.042969 614.050781 C 180.457031 614.363281 179.882812 614.695312 179.300781 615.015625 C 176.988281 616.304688 174.699219 617.632812 172.433594 618.984375 C 170.167969 620.328125 167.925781 621.703125 165.699219 623.085938 C 161.242188 625.855469 156.859375 628.679688 152.492188 631.480469 C 150.304688 632.882812 148.128906 634.277344 145.949219 635.65625 C 144.859375 636.34375 143.769531 637.035156 142.679688 637.722656 C 141.585938 638.402344 140.492188 639.082031 139.402344 639.765625 C 137.214844 641.132812 135.035156 642.5 132.851562 643.867188 C 130.683594 645.246094 128.519531 646.625 126.359375 647.996094 C 117.738281 653.535156 109.257812 659.144531 100.917969 664.828125 C 98.835938 666.25 96.753906 667.664062 94.695312 669.105469 C 93.664062 669.820312 92.632812 670.539062 91.601562 671.253906 C 90.574219 671.96875 89.542969 672.675781 88.523438 673.40625 C 86.480469 674.851562 84.441406 676.296875 82.40625 677.730469 C 80.382812 679.1875 78.367188 680.644531 76.351562 682.089844 C 60.28125 693.757812 44.792969 705.664062 29.972656 717.839844 C 63.210938 691.855469 99.648438 666.824219 138.898438 643.210938 C 140.125 642.472656 141.351562 641.734375 142.585938 640.992188 C 143.820312 640.253906 145.050781 639.503906 146.285156 638.757812 C 148.746094 637.261719 151.203125 635.742188 153.664062 634.214844 C 158.582031 631.171875 163.511719 628.105469 168.507812 625.121094 C 173.503906 622.136719 178.566406 619.230469 183.75 616.523438 C 188.933594 613.824219 194.234375 611.316406 199.6875 609.136719 C 201.050781 608.589844 202.421875 608.074219 203.800781 607.566406 L 204.839844 607.199219 C 205.1875 607.078125 205.53125 606.945312 205.882812 606.835938 L 206.925781 606.484375 L 207.449219 606.3125 C 207.621094 606.25 207.796875 606.191406 207.964844 606.140625 C 210.691406 605.277344 213.527344 604.691406 216.402344 604.332031 C 219.277344 603.96875 222.195312 603.839844 225.109375 603.925781 C 228.019531 604.011719 230.933594 604.300781 233.800781 604.824219 C 236.667969 605.347656 239.488281 606.109375 242.199219 607.128906 C 244.902344 608.15625 247.5 609.453125 249.847656 611.066406 C 252.191406 612.683594 254.289062 614.621094 255.941406 616.875 C 256.765625 618 257.484375 619.195312 258.070312 620.457031 C 258.65625 621.71875 259.117188 623.035156 259.445312 624.390625 C 259.777344 625.746094 259.984375 627.144531 260.0625 628.554688 C 260.144531 629.964844 260.105469 631.390625 259.96875 632.820312 C 259.832031 634.25 259.605469 635.683594 259.273438 637.097656 C 258.953125 638.515625 258.546875 639.917969 258.074219 641.308594 C 257.585938 642.691406 257.03125 644.058594 256.425781 645.410156 L 255.957031 646.417969 L 255.460938 647.410156 C 255.296875 647.75 255.117188 648.074219 254.945312 648.40625 L 254.683594 648.898438 C 254.597656 649.066406 254.503906 649.226562 254.414062 649.386719 C 253.695312 650.699219 252.914062 651.980469 252.101562 653.246094 C 251.296875 654.519531 250.4375 655.761719 249.554688 656.996094 C 246.003906 661.914062 241.960938 666.542969 237.703125 671.027344 C 233.441406 675.515625 228.960938 679.851562 224.40625 684.175781 C 219.851562 688.5 215.214844 692.800781 210.65625 697.273438 C 209.515625 698.394531 208.378906 699.519531 207.253906 700.667969 C 206.128906 701.8125 205.011719 702.976562 203.910156 704.15625 C 202.808594 705.339844 201.71875 706.542969 200.652344 707.773438 C 199.585938 709.011719 198.542969 710.273438 197.53125 711.582031 C 196.535156 712.867188 195.546875 714.203125 194.605469 715.628906 C 193.675781 717.058594 192.796875 718.582031 192.089844 720.261719 C 191.734375 721.09375 191.429688 721.972656 191.1875 722.882812 C 191.066406 723.339844 190.96875 723.808594 190.882812 724.28125 C 190.804688 724.753906 190.734375 725.230469 190.699219 725.71875 C 190.65625 726.203125 190.648438 726.691406 190.648438 727.183594 C 190.660156 727.429688 190.664062 727.671875 190.683594 727.917969 L 190.753906 728.65625 C 190.875 729.636719 191.09375 730.605469 191.40625 731.539062 L 191.53125 731.886719 C 191.570312 732.007812 191.609375 732.121094 191.660156 732.230469 L 191.941406 732.910156 L 192.261719 733.570312 C 192.367188 733.789062 192.492188 733.996094 192.609375 734.210938 C 193.085938 735.046875 193.636719 735.835938 194.234375 736.570312 C 194.832031 737.300781 195.484375 737.96875 196.164062 738.59375 C 196.84375 739.21875 197.554688 739.792969 198.296875 740.316406 C 199.03125 740.84375 199.789062 741.328125 200.566406 741.773438 C 201.34375 742.210938 202.136719 742.613281 202.941406 742.984375 C 204.558594 743.707031 206.222656 744.308594 207.925781 744.753906 C 208.355469 744.875 208.785156 744.976562 209.214844 745.070312 C 209.632812 745.160156 210.050781 745.253906 210.46875 745.335938 C 210.890625 745.40625 211.3125 745.492188 211.734375 745.5625 L 212.683594 745.714844 L 213 745.757812 C 214.691406 746 216.390625 746.152344 218.089844 746.230469 C 221.484375 746.386719 224.871094 746.253906 228.214844 745.910156 C 231.554688 745.566406 234.855469 745.019531 238.113281 744.363281 C 239.742188 744.03125 241.359375 743.667969 242.96875 743.292969 C 244.578125 742.910156 246.183594 742.515625 247.769531 742.089844 C 249.359375 741.671875 250.949219 741.253906 252.539062 740.832031 C 254.125 740.390625 255.710938 739.945312 257.296875 739.496094 L 258.488281 739.164062 C 258.882812 739.042969 259.277344 738.925781 259.671875 738.808594 C 260.460938 738.570312 261.25 738.335938 262.042969 738.097656 C 262.832031 737.859375 263.625 737.621094 264.414062 737.386719 C 265.203125 737.144531 265.988281 736.882812 266.773438 736.636719 C 267.5625 736.390625 268.347656 736.132812 269.136719 735.886719 C 269.925781 735.636719 270.714844 735.386719 271.496094 735.117188 C 273.0625 734.59375 274.632812 734.0625 276.199219 733.535156 C 276.59375 733.40625 276.984375 733.265625 277.371094 733.132812 L 278.542969 732.714844 C 279.324219 732.4375 280.105469 732.164062 280.886719 731.886719 C 282.453125 731.339844 284.003906 730.753906 285.558594 730.175781 C 286.339844 729.890625 287.117188 729.601562 287.894531 729.308594 C 288.285156 729.167969 288.671875 729.015625 289.058594 728.863281 L 290.21875 728.414062 C 290.992188 728.117188 291.769531 727.8125 292.542969 727.515625 L 293.707031 727.058594 L 294.285156 726.835938 L 294.863281 726.601562 C 296.402344 725.980469 297.945312 725.347656 299.488281 724.722656 L 300.066406 724.492188 L 300.644531 724.246094 L 301.796875 723.761719 C 302.558594 723.441406 303.328125 723.113281 304.097656 722.789062 L 305.824219 722.0625 L 306.398438 721.808594 C 307.160156 721.476562 307.921875 721.140625 308.6875 720.808594 C 309.453125 720.46875 310.214844 720.136719 310.980469 719.800781 L 311.554688 719.550781 L 313.265625 718.777344 C 314.027344 718.425781 314.785156 718.082031 315.546875 717.734375 L 316.683594 717.21875 L 317.257812 716.957031 L 317.824219 716.695312 C 319.339844 715.984375 320.851562 715.269531 322.367188 714.5625 C 328.40625 711.671875 334.40625 708.675781 340.359375 705.570312 C 341.847656 704.785156 343.332031 704 344.820312 703.210938 C 345.5625 702.820312 346.296875 702.417969 347.039062 702.015625 C 347.78125 701.621094 348.519531 701.210938 349.257812 700.8125 C 349.996094 700.410156 350.738281 700.015625 351.476562 699.605469 C 352.210938 699.199219 352.945312 698.789062 353.683594 698.378906 C 355.15625 697.5625 356.628906 696.746094 358.089844 695.90625 C 359.363281 695.179688 360.632812 694.460938 361.90625 693.742188 C 363.167969 693.003906 364.433594 692.269531 365.695312 691.542969 L 367.585938 690.4375 L 369.46875 689.324219 C 370.722656 688.574219 371.972656 687.832031 373.226562 687.089844 C 375.71875 685.574219 378.214844 684.082031 380.6875 682.546875 C 381.921875 681.789062 383.164062 681.03125 384.390625 680.257812 C 385.621094 679.488281 386.851562 678.722656 388.082031 677.949219 C 389.3125 677.183594 390.527344 676.398438 391.753906 675.621094 L 393.585938 674.457031 L 394.5 673.871094 L 395.410156 673.277344 C 396.625 672.5 397.839844 671.710938 399.054688 670.925781 C 399.660156 670.535156 400.265625 670.140625 400.871094 669.746094 C 401.476562 669.347656 402.078125 668.953125 402.683594 668.554688 C 405.101562 666.976562 407.5 665.375 409.894531 663.78125 C 411.097656 662.988281 412.285156 662.179688 413.484375 661.378906 C 414.675781 660.574219 415.871094 659.777344 417.058594 658.964844 C 418.246094 658.152344 419.433594 657.347656 420.621094 656.539062 C 421.800781 655.730469 422.984375 654.917969 424.164062 654.105469 C 426.535156 652.488281 428.882812 650.851562 431.234375 649.21875 C 435.917969 645.945312 440.59375 642.667969 445.230469 639.363281 C 454.507812 632.777344 463.6875 626.136719 472.804688 619.519531 C 491.039062 606.273438 509.019531 593.078125 527.007812 580.34375 C 545 567.597656 563.007812 555.316406 581.253906 543.902344 C 582.394531 543.191406 583.535156 542.484375 584.675781 541.773438 C 585.25 541.417969 585.816406 541.066406 586.390625 540.714844 C 586.960938 540.363281 587.535156 540.019531 588.109375 539.664062 C 589.25 538.972656 590.394531 538.273438 591.539062 537.578125 C 592.683594 536.882812 593.832031 536.210938 594.980469 535.519531 C 599.570312 532.804688 604.195312 530.183594 608.859375 527.660156 C 618.1875 522.625 627.65625 517.992188 637.265625 513.886719 C 646.882812 509.777344 656.640625 506.199219 666.527344 503.296875 C 676.402344 500.398438 686.417969 498.1875 696.476562 496.84375 C 701.503906 496.175781 706.542969 495.71875 711.570312 495.511719 L 712.042969 495.492188 L 712.511719 495.472656 L 713.457031 495.453125 C 714.085938 495.433594 714.710938 495.417969 715.34375 495.402344 C 715.964844 495.390625 716.597656 495.394531 717.222656 495.390625 C 717.847656 495.382812 718.476562 495.382812 719.097656 495.382812 C 719.730469 495.394531 720.359375 495.40625 720.980469 495.417969 L 721.921875 495.433594 C 722.234375 495.445312 722.546875 495.445312 722.859375 495.464844 C 723.488281 495.492188 724.109375 495.519531 724.734375 495.542969 C 725.355469 495.574219 725.984375 495.59375 726.601562 495.636719 C 736.574219 496.230469 746.410156 497.894531 755.863281 500.640625 C 760.589844 502.011719 765.222656 503.648438 769.722656 505.542969 C 774.230469 507.433594 778.605469 509.574219 782.84375 511.9375 C 791.328125 516.667969 799.203125 522.285156 806.472656 528.492188 C 798.648438 521.472656 790.019531 515.121094 780.59375 509.878906 " fill-opacity="1" fill-rule="nonzero"/></g><g clip-path="url(#d7a1de3106)"><path fill="#4f45e4" d="M 355.425781 289.5625 C 355.425781 289.5625 301.820312 325.75 250.851562 290.191406 C 250.851562 290.191406 313.59375 293.875 355.425781 289.5625 Z M 302.515625 369.132812 C 301.277344 369.738281 299.46875 370.597656 297.175781 371.605469 C 294.886719 372.609375 292.117188 373.757812 288.953125 374.949219 C 288.164062 375.242188 287.347656 375.546875 286.519531 375.851562 C 285.691406 376.164062 284.839844 376.476562 283.96875 376.789062 C 282.226562 377.410156 280.394531 378.035156 278.492188 378.636719 C 274.6875 379.839844 270.585938 380.976562 266.28125 381.9375 C 265.738281 382.054688 265.199219 382.167969 264.65625 382.285156 C 264.117188 382.40625 263.574219 382.515625 263.03125 382.636719 C 261.9375 382.859375 260.839844 383.070312 259.730469 383.265625 C 257.511719 383.660156 255.253906 383.992188 252.964844 384.25 C 248.398438 384.765625 243.722656 384.96875 239.039062 384.738281 C 234.355469 384.515625 229.660156 383.84375 225.101562 382.625 C 225.929688 382.433594 226.75 382.234375 227.589844 382.050781 L 230.09375 381.5 L 235.097656 380.414062 C 238.429688 379.699219 241.75 378.996094 245.0625 378.304688 C 248.378906 377.617188 251.675781 376.9375 254.984375 376.285156 C 258.3125 375.644531 261.632812 375.027344 264.945312 374.425781 C 268.253906 373.824219 271.554688 373.238281 274.847656 372.664062 L 279.777344 371.816406 C 280.59375 371.667969 281.425781 371.542969 282.253906 371.414062 L 284.730469 371.027344 C 291.335938 370.007812 297.898438 369.050781 304.417969 368.15625 C 304.417969 368.15625 303.75 368.519531 302.515625 369.132812 Z M 31.019531 680.894531 C 29.914062 682.605469 27.621094 683.527344 25.417969 683.144531 C 21.777344 682.507812 19.929688 678.984375 21.757812 676.15625 C 22.863281 674.445312 25.15625 673.527344 27.359375 673.910156 C 31 674.539062 32.851562 678.070312 31.019531 680.894531 Z M 500.773438 81.453125 C 500.683594 80.964844 500.449219 80.46875 500.078125 80.011719 C 499.699219 79.5625 499.1875 79.140625 498.546875 78.808594 C 494.703125 76.839844 490.703125 75.105469 486.574219 73.582031 L 485.792969 73.289062 C 485.539062 73.191406 485.257812 73.101562 484.984375 73.011719 L 483.351562 72.46875 L 481.710938 71.933594 C 481.429688 71.84375 481.164062 71.765625 480.894531 71.679688 L 480.089844 71.433594 C 479.007812 71.105469 477.929688 70.785156 476.835938 70.46875 C 475.761719 70.171875 474.699219 69.882812 473.621094 69.597656 C 465.019531 67.347656 456.480469 65.820312 447.957031 64.902344 C 439.445312 63.988281 430.964844 63.675781 422.539062 63.863281 C 420.453125 63.925781 418.335938 63.992188 416.234375 64.09375 C 414.164062 64.222656 412.078125 64.371094 409.988281 64.53125 C 407.875 64.679688 405.84375 64.914062 403.773438 65.144531 L 400.671875 65.507812 L 399.113281 65.691406 L 397.585938 65.917969 C 397.585938 65.917969 396.707031 66.007812 395.042969 66.292969 C 394.210938 66.441406 393.179688 66.632812 391.964844 66.882812 C 391.355469 67.015625 390.699219 67.15625 390.003906 67.316406 C 389.320312 67.488281 388.59375 67.675781 387.824219 67.886719 C 384.753906 68.734375 380.945312 69.859375 376.769531 71.546875 C 375.714844 71.960938 374.628906 72.40625 373.507812 72.878906 C 372.945312 73.113281 372.375 73.355469 371.804688 73.605469 C 371.242188 73.867188 370.671875 74.132812 370.097656 74.410156 C 367.792969 75.503906 365.371094 76.726562 362.851562 78.082031 C 360.398438 79.480469 357.847656 81.007812 355.230469 82.6875 C 353.902344 83.511719 352.632812 84.425781 351.320312 85.351562 C 350.015625 86.285156 348.691406 87.261719 347.359375 88.265625 C 346.691406 88.773438 346.019531 89.289062 345.347656 89.808594 C 344.691406 90.34375 344.039062 90.890625 343.382812 91.449219 C 342.066406 92.554688 340.742188 93.703125 339.414062 94.890625 C 338.746094 95.488281 338.082031 96.089844 337.414062 96.703125 C 337.25 96.859375 337.082031 97.011719 336.914062 97.167969 C 336.753906 97.328125 336.589844 97.484375 336.429688 97.640625 C 336.109375 97.964844 335.78125 98.277344 335.457031 98.605469 C 334.164062 99.898438 332.867188 101.226562 331.570312 102.601562 C 328.933594 105.328125 326.476562 108.3125 324 111.433594 C 323.382812 112.210938 322.765625 113.003906 322.152344 113.808594 C 321.847656 114.210938 321.53125 114.609375 321.238281 115.019531 C 320.945312 115.4375 320.652344 115.847656 320.355469 116.261719 C 319.183594 117.933594 318.023438 119.644531 316.878906 121.402344 C 316.304688 122.273438 315.734375 123.164062 315.167969 124.058594 C 314.890625 124.507812 314.597656 124.957031 314.328125 125.417969 C 314.0625 125.875 313.792969 126.335938 313.523438 126.800781 C 312.457031 128.664062 311.402344 130.566406 310.375 132.507812 C 309.859375 133.484375 309.347656 134.460938 308.84375 135.457031 C 308.597656 135.953125 308.335938 136.449219 308.101562 136.953125 C 307.863281 137.460938 307.628906 137.972656 307.390625 138.484375 C 306.449219 140.535156 305.535156 142.625 304.652344 144.757812 C 304.652344 144.757812 304.367188 143.988281 304.347656 142.09375 C 304.339844 141.140625 304.394531 139.90625 304.589844 138.34375 C 304.691406 137.5625 304.824219 136.699219 305.003906 135.746094 C 305.09375 135.265625 305.195312 134.765625 305.304688 134.242188 C 305.363281 133.984375 305.425781 133.714844 305.484375 133.441406 C 305.550781 133.167969 305.625 132.890625 305.699219 132.609375 C 306.300781 130.351562 307.128906 127.714844 308.28125 124.640625 C 308.855469 123.105469 309.507812 121.464844 310.257812 119.699219 C 311.042969 117.960938 311.925781 116.105469 312.917969 114.128906 C 313.910156 112.15625 315.011719 110.058594 316.234375 107.832031 C 317.511719 105.632812 318.921875 103.308594 320.476562 100.847656 C 321.253906 99.617188 322.066406 98.355469 322.917969 97.0625 C 323.792969 95.773438 324.726562 94.46875 325.691406 93.117188 C 326.664062 91.769531 327.671875 90.386719 328.726562 88.972656 C 329.253906 88.261719 329.789062 87.546875 330.34375 86.820312 C 330.917969 86.101562 331.503906 85.382812 332.09375 84.644531 L 329.972656 85.550781 C 329.613281 85.703125 329.269531 85.859375 328.925781 86.015625 L 327.894531 86.488281 L 323.761719 88.402344 L 319.628906 90.355469 C 318.933594 90.675781 318.265625 91.019531 317.597656 91.359375 L 315.589844 92.382812 L 311.574219 94.453125 L 309.566406 95.5 L 308.5625 96.027344 C 308.230469 96.203125 307.894531 96.382812 307.570312 96.5625 C 304.972656 98.007812 302.375 99.476562 299.78125 100.964844 L 297.835938 102.082031 L 296.867188 102.644531 L 295.925781 103.21875 L 292.15625 105.539062 L 288.390625 107.890625 C 287.140625 108.675781 285.867188 109.464844 284.671875 110.273438 C 282.242188 111.898438 279.816406 113.535156 277.398438 115.1875 L 275.585938 116.433594 L 274.683594 117.054688 L 273.804688 117.691406 L 270.296875 120.242188 C 251.574219 133.914062 234.648438 148.996094 219.394531 164.820312 C 219.070312 165.144531 218.769531 165.472656 218.460938 165.800781 L 217.554688 166.796875 C 216.953125 167.457031 216.355469 168.128906 215.769531 168.804688 C 214.59375 170.152344 213.445312 171.527344 212.332031 172.921875 C 211.214844 174.3125 210.125 175.726562 209.070312 177.15625 C 208.800781 177.507812 208.550781 177.867188 208.300781 178.234375 L 207.554688 179.320312 C 207.0625 180.046875 206.578125 180.78125 206.101562 181.515625 C 204.191406 184.457031 202.40625 187.46875 200.757812 190.527344 L 200.148438 191.675781 C 199.945312 192.058594 199.761719 192.449219 199.574219 192.839844 C 199.195312 193.609375 198.824219 194.390625 198.464844 195.167969 C 197.746094 196.730469 197.058594 198.300781 196.40625 199.882812 C 195.753906 201.464844 195.140625 203.058594 194.554688 204.65625 C 194.265625 205.453125 193.984375 206.253906 193.710938 207.058594 C 193.574219 207.460938 193.441406 207.863281 193.308594 208.261719 L 192.945312 209.476562 C 191.992188 212.71875 191.183594 215.988281 190.523438 219.261719 C 190.191406 220.90625 189.898438 222.550781 189.644531 224.191406 C 189.515625 225.015625 189.398438 225.835938 189.289062 226.65625 C 189.1875 227.484375 189.105469 228.3125 189.03125 229.136719 C 188.730469 232.449219 188.578125 235.757812 188.582031 239.058594 C 188.589844 241.0625 188.617188 243.03125 188.679688 244.949219 C 188.710938 245.914062 188.75 246.863281 188.796875 247.796875 C 188.808594 248.035156 188.820312 248.265625 188.832031 248.496094 C 188.847656 248.730469 188.867188 248.960938 188.878906 249.191406 C 188.917969 249.65625 188.953125 250.117188 188.988281 250.570312 C 189.292969 254.21875 189.71875 257.632812 190.289062 260.71875 C 191.425781 266.898438 193.128906 271.773438 195.503906 274.667969 C 195.503906 274.667969 194.796875 274.324219 193.539062 273.089844 C 192.277344 271.859375 190.464844 269.742188 188.265625 266.175781 C 186.070312 262.605469 183.492188 257.582031 180.742188 250.488281 C 180.054688 248.714844 179.359375 246.808594 178.65625 244.757812 C 177.960938 242.71875 177.230469 240.523438 176.5625 238.191406 C 175.203125 233.527344 173.847656 228.253906 172.542969 222.273438 C 154.910156 247.707031 140.257812 273.648438 128.015625 299.164062 C 115.773438 324.683594 105.933594 349.777344 97.875 373.734375 C 97.195312 375.75 96.566406 377.773438 95.992188 379.8125 C 95.421875 381.855469 94.878906 383.894531 94.457031 385.957031 C 93.582031 390.082031 92.917969 394.238281 92.472656 398.402344 C 92.25 400.484375 92.082031 402.574219 91.964844 404.660156 C 91.910156 405.699219 91.863281 406.75 91.835938 407.789062 C 91.820312 408.3125 91.804688 408.832031 91.804688 409.355469 L 91.808594 410.921875 C 91.855469 415.105469 92.117188 419.273438 92.601562 423.421875 C 92.984375 426.679688 93.417969 429.847656 93.914062 432.859375 C 94.160156 434.367188 94.425781 435.832031 94.703125 437.25 C 94.992188 438.667969 95.308594 440.035156 95.632812 441.34375 C 96.933594 446.589844 98.480469 450.886719 100.308594 453.652344 C 100.308594 453.652344 98.289062 451.027344 95.070312 446.101562 C 93.460938 443.640625 91.550781 440.597656 89.453125 437.011719 C 88.929688 436.113281 88.390625 435.183594 87.84375 434.21875 C 87.308594 433.257812 86.757812 432.261719 86.203125 431.230469 C 85.089844 429.179688 83.945312 426.988281 82.777344 424.671875 C 81.097656 430.949219 79.675781 437.121094 78.277344 443.140625 C 77.582031 446.152344 76.90625 449.121094 76.25 452.050781 C 75.925781 453.519531 75.601562 454.976562 75.28125 456.425781 C 74.984375 457.878906 74.691406 459.316406 74.402344 460.753906 C 73.242188 466.472656 72.15625 472.039062 71.136719 477.4375 C 70.882812 478.78125 70.632812 480.121094 70.386719 481.449219 C 70.324219 481.78125 70.261719 482.113281 70.199219 482.4375 C 70.144531 482.769531 70.089844 483.101562 70.03125 483.429688 C 69.917969 484.09375 69.808594 484.746094 69.695312 485.40625 C 69.253906 488.023438 68.828125 490.59375 68.417969 493.121094 C 67.597656 498.167969 66.835938 503.035156 66.132812 507.710938 C 66.046875 508.292969 65.960938 508.875 65.871094 509.449219 C 65.792969 510.03125 65.714844 510.609375 65.636719 511.183594 C 65.484375 512.324219 65.332031 513.460938 65.183594 514.582031 C 64.894531 516.828125 64.609375 519.023438 64.335938 521.160156 C 63.796875 525.449219 63.304688 529.523438 62.859375 533.375 C 62.75 534.34375 62.640625 535.296875 62.535156 536.230469 C 62.429688 537.171875 62.320312 538.09375 62.238281 539.003906 C 62.066406 540.828125 61.894531 542.59375 61.734375 544.304688 C 61.707031 544.597656 61.636719 544.882812 61.53125 545.152344 L 56.785156 557.386719 L 54.410156 563.503906 L 53.816406 565.035156 L 53.242188 566.566406 L 52.097656 569.636719 L 47.507812 581.910156 L 45.214844 588.046875 L 44.070312 591.117188 L 43.5 592.648438 L 42.949219 594.1875 L 38.003906 607.929688 L 38.242188 608.03125 C 37.597656 609.785156 36.953125 611.550781 36.304688 613.328125 C 34.195312 619.167969 32.167969 624.964844 30.222656 630.683594 C 29.738281 632.109375 29.261719 633.539062 28.78125 634.957031 C 28.320312 636.382812 27.863281 637.800781 27.410156 639.214844 C 26.507812 642.042969 25.625 644.851562 24.765625 647.636719 C 24.066406 649.898438 23.386719 652.136719 22.71875 654.367188 L 3.96875 709.042969 C 3.550781 710.261719 5.347656 711.109375 6.257812 710.125 C 16.597656 698.890625 37.640625 685.167969 43.578125 681.398438 C 44.277344 680.949219 44.171875 680.019531 43.398438 679.671875 C 38.164062 677.320312 34.136719 673.617188 31.089844 669.734375 C 37.9375 650.265625 44.722656 631.519531 51.4375 613.480469 L 51.582031 613.535156 L 56.28125 600.769531 C 57.445312 597.546875 58.691406 594.351562 59.914062 591.144531 L 63.585938 581.535156 L 67.257812 571.921875 C 67.863281 570.3125 68.511719 568.726562 69.136719 567.128906 L 71.039062 562.339844 L 74.835938 552.761719 L 76.738281 547.976562 L 78.160156 544.382812 L 78.648438 543.195312 L 86.507812 524.121094 L 88.472656 519.355469 L 90.496094 514.609375 L 94.558594 505.109375 L 98.621094 495.625 C 98.957031 494.828125 99.3125 494.042969 99.660156 493.253906 L 100.710938 490.890625 L 102.8125 486.167969 L 107.011719 476.722656 L 109.109375 472 C 109.820312 470.425781 110.554688 468.863281 111.273438 467.296875 L 119.96875 448.503906 L 128.945312 429.804688 C 141.097656 404.941406 153.933594 380.328125 167.671875 356.082031 C 171.035156 349.992188 174.632812 344 178.148438 337.972656 L 180.796875 333.457031 L 181.128906 332.894531 L 181.46875 332.335938 L 182.152344 331.214844 L 183.519531 328.976562 L 188.992188 320.015625 L 190.359375 317.78125 C 190.816406 317.035156 191.265625 316.285156 191.742188 315.550781 L 194.566406 311.113281 L 200.222656 302.242188 L 200.929688 301.132812 L 201.28125 300.574219 L 201.648438 300.027344 L 203.105469 297.828125 L 206.027344 293.4375 L 208.945312 289.046875 L 211.136719 285.753906 C 211.378906 285.386719 211.636719 285.027344 211.886719 284.660156 L 217.917969 275.972656 L 220.9375 271.621094 C 221.957031 270.183594 223.007812 268.757812 224.042969 267.324219 L 230.273438 258.730469 L 231.050781 257.664062 L 231.855469 256.597656 L 233.460938 254.476562 L 239.898438 245.992188 L 240.703125 244.933594 C 240.972656 244.578125 241.253906 244.238281 241.53125 243.886719 L 243.1875 241.792969 L 249.835938 233.417969 C 250.113281 233.078125 250.382812 232.722656 250.667969 232.378906 L 251.527344 231.347656 L 253.242188 229.285156 L 256.667969 225.160156 L 260.097656 221.039062 L 263.636719 216.976562 L 267.175781 212.921875 L 268.945312 210.890625 C 269.242188 210.554688 269.53125 210.214844 269.835938 209.882812 L 270.75 208.878906 L 278.050781 200.90625 L 278.964844 199.90625 C 279.269531 199.574219 279.589844 199.253906 279.902344 198.925781 L 281.785156 196.96875 L 287.433594 191.09375 L 288.378906 190.117188 C 288.695312 189.792969 289.023438 189.476562 289.34375 189.15625 L 293.230469 185.320312 C 303.589844 175.09375 314.46875 165.21875 326.007812 155.878906 L 325.246094 156.507812 C 324.996094 156.710938 324.738281 156.917969 324.496094 157.136719 L 323.019531 158.421875 L 320.066406 160.988281 L 317.117188 163.558594 L 316.382812 164.203125 L 316.011719 164.527344 L 315.65625 164.855469 L 314.222656 166.171875 L 308.5 171.4375 L 307.074219 172.761719 L 305.6875 174.105469 L 302.910156 176.800781 L 300.140625 179.496094 L 298.753906 180.839844 C 298.523438 181.070312 298.289062 181.292969 298.066406 181.523438 L 297.394531 182.207031 L 292.019531 187.710938 L 289.335938 190.460938 C 288.457031 191.390625 287.59375 192.332031 286.726562 193.265625 L 281.523438 198.875 C 267.785156 213.921875 255.042969 229.566406 243.070312 245.597656 C 231.09375 261.632812 219.890625 278.054688 209.253906 294.730469 L 204.273438 302.542969 L 203.3125 304.125 L 201.382812 307.277344 L 195.605469 316.746094 L 194.640625 318.324219 L 193.707031 319.914062 L 186.261719 332.648438 L 185.332031 334.242188 L 184.867188 335.035156 L 184.414062 335.839844 L 182.617188 339.046875 L 179.015625 345.46875 L 175.417969 351.882812 C 175.117188 352.417969 174.828125 352.960938 174.539062 353.5 L 173.667969 355.113281 L 171.929688 358.347656 C 169.617188 362.660156 167.285156 366.964844 164.988281 371.28125 L 158.269531 384.300781 L 156.59375 387.558594 C 156.035156 388.644531 155.464844 389.726562 154.929688 390.824219 L 151.6875 397.375 L 148.441406 403.929688 L 146.820312 407.203125 L 146.011719 408.84375 L 145.605469 409.65625 L 145.214844 410.484375 L 138.945312 423.667969 L 135.8125 430.257812 L 132.785156 436.886719 L 126.734375 450.144531 L 125.976562 451.800781 C 125.726562 452.355469 125.488281 452.914062 125.242188 453.464844 L 123.78125 456.796875 L 117.9375 470.121094 C 116.96875 472.34375 115.976562 474.5625 115.050781 476.792969 L 109.40625 490.1875 L 106.585938 496.886719 C 106.109375 497.992188 105.667969 499.117188 105.210938 500.238281 L 103.847656 503.601562 L 98.402344 517.054688 L 97.039062 520.410156 L 96.359375 522.09375 L 95.699219 523.78125 L 93.070312 530.535156 L 87.8125 544.039062 L 86.5 547.414062 L 85.230469 550.808594 L 82.691406 557.582031 C 81.609375 560.476562 84.976562 563.109375 87.617188 561.457031 C 91.660156 558.925781 95.640625 556.398438 99.558594 553.882812 C 101.53125 552.628906 103.496094 551.382812 105.449219 550.140625 C 107.394531 548.890625 109.332031 547.644531 111.257812 546.414062 C 115.097656 543.933594 118.875 541.464844 122.59375 539 C 124.449219 537.765625 126.289062 536.53125 128.128906 535.3125 C 129.972656 534.089844 131.808594 532.875 133.632812 531.664062 C 137.277344 529.242188 140.859375 526.824219 144.378906 524.414062 C 146.136719 523.203125 147.882812 522.003906 149.617188 520.804688 C 151.355469 519.605469 153.054688 518.398438 154.789062 517.214844 C 161.6875 512.472656 168.351562 507.757812 174.789062 503.0625 C 200.703125 484.398438 223.554688 466.480469 243.769531 449.238281 C 237.6875 449.8125 232.140625 450.242188 227.097656 450.539062 C 222.078125 450.859375 217.570312 451.058594 213.515625 451.136719 C 205.414062 451.304688 199.15625 451.035156 194.425781 450.574219 C 189.691406 450.117188 186.488281 449.476562 184.46875 448.941406 C 182.445312 448.414062 181.613281 447.984375 181.613281 447.984375 C 190.78125 450.945312 201.242188 450.324219 211.765625 447.839844 C 213.082031 447.523438 214.398438 447.1875 215.714844 446.816406 C 216.371094 446.628906 217.03125 446.441406 217.6875 446.246094 C 218.347656 446.050781 219.011719 445.851562 219.675781 445.648438 C 222.320312 444.835938 224.957031 443.921875 227.5625 442.949219 C 232.769531 440.996094 237.851562 438.773438 242.664062 436.460938 C 243.871094 435.882812 245.070312 435.308594 246.253906 434.738281 C 247.4375 434.164062 248.597656 433.585938 249.738281 433.011719 C 252.019531 431.855469 254.21875 430.703125 256.3125 429.566406 C 258.40625 428.4375 260.398438 427.324219 262.269531 426.257812 C 264.140625 425.191406 265.90625 424.179688 267.542969 423.242188 C 274.082031 419.484375 278.398438 416.714844 279.355469 416.265625 C 279.457031 416.21875 279.585938 416.246094 279.671875 416.332031 C 279.78125 416.4375 279.953125 416.441406 280.054688 416.347656 C 297.332031 399.660156 312.15625 383.613281 324.972656 368.125 C 337.796875 352.632812 348.613281 337.691406 357.90625 323.191406 C 358.484375 322.277344 359.054688 321.363281 359.617188 320.449219 C 360.191406 319.5625 360.761719 318.671875 361.324219 317.777344 C 362.445312 315.992188 363.535156 314.199219 364.601562 312.398438 C 364.863281 311.945312 365.128906 311.492188 365.394531 311.042969 L 365.785156 310.367188 L 366.183594 309.707031 C 366.710938 308.832031 367.238281 307.953125 367.753906 307.074219 C 368.785156 305.3125 369.792969 303.542969 370.769531 301.757812 C 371.015625 301.3125 371.257812 300.863281 371.5 300.417969 C 371.746094 299.984375 371.992188 299.554688 372.238281 299.125 C 372.726562 298.257812 373.207031 297.390625 373.683594 296.519531 C 374.636719 294.773438 375.5625 293.023438 376.46875 291.261719 C 376.691406 290.8125 376.921875 290.390625 377.152344 289.960938 C 377.378906 289.535156 377.605469 289.105469 377.832031 288.679688 C 378.28125 287.824219 378.726562 286.96875 379.167969 286.101562 C 379.605469 285.238281 380.042969 284.375 380.46875 283.507812 C 380.683594 283.074219 380.894531 282.640625 381.109375 282.203125 C 381.320312 281.769531 381.527344 281.324219 381.742188 280.90625 C 388.527344 267.222656 394.308594 253.863281 399.65625 240.761719 C 397.65625 240.859375 395.703125 240.953125 393.792969 241.046875 C 391.859375 241.195312 389.972656 241.34375 388.128906 241.484375 C 387.195312 241.558594 386.269531 241.625 385.355469 241.699219 C 384.898438 241.734375 384.441406 241.765625 383.988281 241.800781 C 383.757812 241.816406 383.53125 241.835938 383.304688 241.847656 C 383.078125 241.867188 382.855469 241.894531 382.632812 241.917969 C 380.832031 242.097656 379.070312 242.277344 377.355469 242.453125 C 375.613281 242.621094 373.914062 242.785156 372.257812 242.949219 C 372.050781 242.96875 371.839844 242.984375 371.636719 243.011719 C 371.429688 243.03125 371.226562 243.0625 371.019531 243.082031 C 370.613281 243.132812 370.203125 243.183594 369.800781 243.230469 C 368.988281 243.332031 368.183594 243.421875 367.394531 243.515625 C 365.792969 243.703125 364.238281 243.878906 362.722656 244.054688 C 361.957031 244.140625 361.203125 244.226562 360.457031 244.308594 C 360.085938 244.347656 359.714844 244.386719 359.34375 244.433594 C 358.980469 244.476562 358.613281 244.523438 358.253906 244.574219 C 355.367188 244.949219 352.609375 245.292969 349.984375 245.605469 C 348.660156 245.753906 347.382812 245.902344 346.140625 246.046875 C 345.511719 246.109375 344.910156 246.199219 344.308594 246.273438 C 343.710938 246.351562 343.117188 246.425781 342.535156 246.5 C 340.199219 246.789062 337.996094 247.042969 335.921875 247.269531 C 334.878906 247.375 333.875 247.476562 332.90625 247.578125 C 332.417969 247.625 331.941406 247.667969 331.472656 247.714844 C 331 247.757812 330.539062 247.796875 330.089844 247.847656 C 322.914062 248.613281 317.777344 248.839844 314.464844 248.851562 C 314.050781 248.851562 313.664062 248.851562 313.308594 248.851562 C 312.953125 248.84375 312.625 248.84375 312.328125 248.839844 C 311.726562 248.828125 311.234375 248.8125 310.84375 248.792969 C 310.066406 248.753906 309.695312 248.703125 309.695312 248.703125 C 310.351562 248.652344 311.015625 248.589844 311.6875 248.511719 C 312.027344 248.472656 312.367188 248.429688 312.707031 248.382812 C 313.050781 248.332031 313.398438 248.289062 313.75 248.242188 C 315.148438 248.046875 316.582031 247.792969 318.046875 247.488281 C 320.96875 246.875 324.011719 246.066406 327.128906 245.085938 C 327.515625 244.957031 327.914062 244.84375 328.3125 244.71875 C 328.710938 244.601562 329.105469 244.476562 329.507812 244.355469 C 330.308594 244.105469 331.113281 243.847656 331.921875 243.578125 C 333.539062 243.042969 335.171875 242.46875 336.8125 241.867188 C 340.074219 240.621094 343.480469 239.40625 346.855469 238.050781 C 347.703125 237.714844 348.546875 237.375 349.394531 237.027344 C 349.816406 236.851562 350.238281 236.679688 350.660156 236.5 L 351.292969 236.234375 L 351.9375 235.988281 C 353.652344 235.3125 355.367188 234.625 357.070312 233.921875 C 357.917969 233.566406 358.769531 233.207031 359.617188 232.851562 L 360.890625 232.3125 L 361.523438 232.042969 C 361.734375 231.945312 361.949219 231.867188 362.164062 231.78125 C 363.871094 231.097656 365.570312 230.402344 367.25 229.707031 C 368.085938 229.351562 368.921875 228.996094 369.757812 228.648438 C 370.175781 228.46875 370.585938 228.292969 371.003906 228.113281 C 371.417969 227.941406 371.839844 227.78125 372.253906 227.613281 C 373.917969 226.953125 375.566406 226.285156 377.1875 225.617188 C 377.996094 225.285156 378.800781 224.945312 379.601562 224.613281 L 380.195312 224.359375 L 380.796875 224.128906 C 381.199219 223.980469 381.59375 223.820312 381.992188 223.667969 C 383.582031 223.050781 385.140625 222.4375 386.664062 221.824219 C 388.683594 220.972656 390.664062 220.164062 392.542969 219.1875 C 393.484375 218.707031 394.402344 218.195312 395.296875 217.652344 L 395.96875 217.25 L 396.640625 216.855469 C 397.082031 216.589844 397.519531 216.320312 397.953125 216.039062 C 398.820312 215.480469 399.667969 214.902344 400.492188 214.289062 C 400.902344 213.980469 401.308594 213.667969 401.710938 213.347656 L 402.3125 212.863281 L 402.910156 212.398438 C 404.496094 211.136719 406.003906 209.769531 407.425781 208.289062 C 413.160156 202.527344 417.742188 195.492188 421.335938 187.152344 C 422.050781 185.5 422.757812 183.863281 423.46875 182.238281 C 424.203125 180.621094 424.925781 179.011719 425.648438 177.417969 C 426.019531 176.613281 426.382812 175.804688 426.75 175.003906 C 427.121094 174.210938 427.5 173.429688 427.871094 172.644531 C 428.617188 171.074219 429.367188 169.480469 430.132812 167.910156 C 430.90625 166.351562 431.683594 164.808594 432.449219 163.277344 C 432.640625 162.894531 432.839844 162.507812 433.035156 162.121094 C 433.226562 161.738281 433.425781 161.339844 433.621094 160.96875 C 434.019531 160.214844 434.421875 159.460938 434.820312 158.714844 C 435.21875 157.953125 435.621094 157.199219 436.019531 156.453125 C 436.222656 156.074219 436.421875 155.699219 436.625 155.320312 L 436.929688 154.757812 L 437.234375 154.207031 C 438.070312 152.726562 438.898438 151.261719 439.714844 149.8125 C 440.542969 148.332031 441.390625 146.929688 442.242188 145.511719 C 442.675781 144.796875 443.101562 144.089844 443.523438 143.386719 C 443.746094 143.03125 443.957031 142.675781 444.171875 142.324219 C 444.382812 141.96875 444.605469 141.636719 444.824219 141.289062 C 445.695312 139.914062 446.574219 138.546875 447.457031 137.183594 C 447.675781 136.847656 447.898438 136.503906 448.117188 136.167969 C 448.339844 135.835938 448.566406 135.503906 448.785156 135.175781 C 449.242188 134.511719 449.6875 133.855469 450.136719 133.203125 C 450.585938 132.542969 451.042969 131.890625 451.488281 131.242188 C 451.714844 130.914062 451.9375 130.582031 452.167969 130.269531 C 452.398438 129.953125 452.625 129.636719 452.855469 129.324219 C 453.765625 128.0625 454.6875 126.808594 455.613281 125.570312 C 456.066406 124.941406 456.535156 124.347656 457 123.746094 C 457.46875 123.144531 457.9375 122.550781 458.398438 121.957031 C 458.871094 121.367188 459.335938 120.773438 459.796875 120.191406 C 460.265625 119.597656 460.738281 119.042969 461.210938 118.472656 C 462.148438 117.34375 463.09375 116.222656 464.035156 115.121094 C 464.980469 114.039062 465.933594 112.988281 466.878906 111.941406 C 467.351562 111.417969 467.824219 110.902344 468.289062 110.390625 C 468.769531 109.886719 469.246094 109.390625 469.714844 108.898438 C 470.660156 107.917969 471.597656 106.945312 472.539062 106.003906 C 474.433594 104.160156 476.273438 102.351562 478.132812 100.722656 C 478.597656 100.3125 479.054688 99.898438 479.511719 99.5 C 479.960938 99.09375 480.410156 98.695312 480.871094 98.316406 C 481.785156 97.550781 482.683594 96.808594 483.566406 96.089844 C 490.488281 90.367188 496.167969 86.40625 499.59375 84.066406 C 500.574219 83.402344 500.957031 82.4375 500.773438 81.453125 " fill-opacity="1" fill-rule="nonzero"/></g></svg>