<svg xmlns="http://www.w3.org/2000/svg" xmlns:xlink="http://www.w3.org/1999/xlink" width="712" zoomAndPan="magnify" viewBox="0 0 534 322.499991" height="430" preserveAspectRatio="xMidYMid meet" version="1.0"><defs><clipPath id="55c34ad80e"><path d="M 96 202 L 462.460938 202 L 462.460938 322 L 96 322 Z M 96 202 " clip-rule="nonzero"/></clipPath><clipPath id="dfadc2f9e4"><path d="M 83.550781 0 L 319 0 L 319 306 L 83.550781 306 Z M 83.550781 0 " clip-rule="nonzero"/></clipPath></defs><g clip-path="url(#55c34ad80e)"><path fill="#4f45e4" d="M 450.117188 210.46875 C 445.671875 207.996094 440.863281 206.039062 435.820312 204.71875 C 433.296875 204.066406 430.722656 203.566406 428.105469 203.222656 L 427.863281 203.1875 L 427.738281 203.171875 L 427.617188 203.160156 L 427.121094 203.105469 C 426.796875 203.066406 426.46875 203.03125 426.140625 202.996094 C 425.808594 202.964844 425.480469 202.9375 425.152344 202.90625 L 424.660156 202.863281 C 424.574219 202.855469 424.496094 202.847656 424.40625 202.84375 L 424.164062 202.828125 C 423.832031 202.808594 423.503906 202.785156 423.171875 202.765625 C 423.003906 202.757812 422.839844 202.742188 422.671875 202.738281 L 422.175781 202.71875 C 421.84375 202.707031 421.511719 202.691406 421.179688 202.679688 C 420.847656 202.671875 420.511719 202.667969 420.179688 202.664062 C 418.847656 202.640625 417.511719 202.671875 416.175781 202.714844 C 415.839844 202.730469 415.503906 202.75 415.167969 202.769531 L 414.667969 202.796875 L 414.417969 202.808594 L 414.164062 202.828125 C 413.832031 202.851562 413.5 202.878906 413.160156 202.902344 C 412.996094 202.914062 412.828125 202.925781 412.660156 202.941406 L 412.15625 202.988281 C 411.820312 203.023438 411.484375 203.054688 411.148438 203.085938 C 410.816406 203.121094 410.484375 203.164062 410.144531 203.203125 L 409.644531 203.261719 L 409.390625 203.289062 L 409.140625 203.324219 C 408.808594 203.367188 408.472656 203.414062 408.136719 203.460938 C 407.96875 203.484375 407.804688 203.503906 407.636719 203.53125 L 407.132812 203.609375 C 406.796875 203.660156 406.464844 203.714844 406.128906 203.769531 C 405.792969 203.820312 405.460938 203.882812 405.128906 203.941406 L 404.625 204.03125 C 404.457031 204.058594 404.289062 204.089844 404.125 204.121094 C 401.457031 204.628906 398.792969 205.25 396.148438 205.96875 L 395.898438 206.035156 L 395.652344 206.105469 L 395.15625 206.246094 C 394.828125 206.34375 394.496094 206.433594 394.167969 206.53125 C 393.839844 206.628906 393.507812 206.730469 393.179688 206.828125 C 392.851562 206.929688 392.523438 207.027344 392.191406 207.132812 C 391.539062 207.34375 390.878906 207.546875 390.226562 207.769531 C 389.898438 207.878906 389.570312 207.988281 389.242188 208.097656 C 388.917969 208.210938 388.589844 208.328125 388.265625 208.441406 C 386.960938 208.894531 385.660156 209.382812 384.363281 209.878906 C 384.039062 210.003906 383.71875 210.136719 383.394531 210.261719 C 383.070312 210.390625 382.746094 210.515625 382.425781 210.648438 C 382.105469 210.78125 381.78125 210.914062 381.457031 211.046875 L 380.976562 211.246094 L 380.492188 211.453125 C 377.925781 212.535156 375.375 213.699219 372.84375 214.929688 C 370.316406 216.164062 367.808594 217.460938 365.320312 218.820312 L 364.390625 219.335938 C 364.082031 219.507812 363.769531 219.679688 363.457031 219.855469 C 363.148438 220.023438 362.84375 220.203125 362.53125 220.378906 C 362.222656 220.554688 361.914062 220.730469 361.601562 220.90625 C 361.296875 221.082031 360.988281 221.261719 360.679688 221.441406 C 360.371094 221.621094 360.0625 221.800781 359.761719 221.980469 C 359.144531 222.34375 358.53125 222.703125 357.921875 223.070312 C 357.613281 223.25 357.308594 223.433594 357 223.621094 C 356.695312 223.804688 356.390625 223.988281 356.082031 224.171875 C 355.777344 224.359375 355.472656 224.542969 355.164062 224.726562 C 354.859375 224.914062 354.558594 225.101562 354.253906 225.289062 C 353.640625 225.664062 353.027344 226.035156 352.421875 226.414062 C 351.8125 226.792969 351.203125 227.175781 350.597656 227.558594 L 350.140625 227.839844 L 349.679688 228.128906 C 349.378906 228.324219 349.074219 228.515625 348.773438 228.707031 C 348.464844 228.902344 348.164062 229.09375 347.859375 229.289062 C 347.554688 229.480469 347.253906 229.675781 346.949219 229.871094 C 346.34375 230.261719 345.738281 230.652344 345.128906 231.042969 C 344.523438 231.441406 343.921875 231.835938 343.3125 232.230469 C 333.628906 238.578125 324.03125 245.34375 314.367188 252.257812 C 304.699219 259.171875 294.960938 266.234375 284.972656 273.152344 C 282.472656 274.882812 279.960938 276.605469 277.429688 278.308594 C 274.894531 280.015625 272.34375 281.707031 269.769531 283.378906 C 269.128906 283.796875 268.480469 284.210938 267.835938 284.628906 C 267.191406 285.042969 266.542969 285.460938 265.894531 285.867188 C 265.246094 286.28125 264.59375 286.691406 263.941406 287.101562 C 263.289062 287.511719 262.636719 287.917969 261.984375 288.324219 C 259.363281 289.945312 256.71875 291.546875 254.050781 293.113281 C 251.375 294.675781 248.679688 296.207031 245.953125 297.703125 C 243.226562 299.195312 240.46875 300.640625 237.679688 302.046875 C 234.894531 303.457031 232.074219 304.804688 229.222656 306.105469 C 227.800781 306.761719 226.363281 307.386719 224.925781 308.011719 C 224.203125 308.320312 223.480469 308.625 222.757812 308.933594 C 222.394531 309.085938 222.03125 309.230469 221.667969 309.382812 C 221.304688 309.53125 220.9375 309.675781 220.574219 309.824219 C 220.257812 309.953125 219.945312 310.082031 219.628906 310.207031 C 219.308594 310.332031 218.992188 310.457031 218.675781 310.582031 C 218.355469 310.707031 218.039062 310.828125 217.722656 310.953125 L 217.246094 311.136719 C 217.089844 311.203125 216.929688 311.261719 216.769531 311.320312 C 215.496094 311.796875 214.226562 312.28125 212.941406 312.726562 C 212.621094 312.84375 212.300781 312.957031 211.980469 313.070312 L 211.503906 313.238281 L 211.019531 313.40625 C 210.378906 313.621094 209.738281 313.839844 209.09375 314.058594 C 208.933594 314.109375 208.773438 314.164062 208.613281 314.21875 L 208.128906 314.375 C 207.804688 314.476562 207.484375 314.582031 207.160156 314.683594 C 206.839844 314.785156 206.515625 314.890625 206.195312 314.996094 L 205.226562 315.292969 C 204.578125 315.488281 203.933594 315.683594 203.285156 315.878906 C 203.125 315.929688 202.960938 315.976562 202.796875 316.023438 L 202.3125 316.160156 C 201.988281 316.25 201.664062 316.34375 201.335938 316.4375 C 201.011719 316.53125 200.691406 316.621094 200.363281 316.714844 C 200.039062 316.800781 199.714844 316.890625 199.386719 316.976562 C 198.738281 317.148438 198.085938 317.320312 197.433594 317.492188 C 194.835938 318.160156 192.242188 318.734375 189.652344 319.035156 C 188.359375 319.1875 187.066406 319.269531 185.785156 319.257812 C 184.503906 319.242188 183.230469 319.140625 181.988281 318.917969 C 181.835938 318.890625 181.679688 318.867188 181.523438 318.832031 L 181.292969 318.785156 L 181.175781 318.761719 L 181.066406 318.738281 C 180.773438 318.667969 180.480469 318.589844 180.191406 318.503906 C 179.898438 318.414062 179.613281 318.3125 179.332031 318.207031 C 179.054688 318.09375 178.773438 317.976562 178.503906 317.847656 C 178.234375 317.71875 177.972656 317.582031 177.71875 317.429688 L 177.621094 317.375 L 177.339844 317.199219 C 177.21875 317.117188 177.09375 317.039062 176.980469 316.953125 C 176.921875 316.90625 176.859375 316.867188 176.804688 316.824219 L 176.632812 316.691406 C 176.574219 316.648438 176.523438 316.601562 176.46875 316.554688 L 176.386719 316.484375 C 176.359375 316.464844 176.332031 316.441406 176.308594 316.417969 C 176.09375 316.226562 175.898438 316.027344 175.71875 315.824219 C 175.355469 315.410156 175.0625 314.964844 174.855469 314.496094 C 174.75 314.265625 174.675781 314.023438 174.617188 313.777344 C 174.554688 313.535156 174.527344 313.285156 174.507812 313.03125 C 174.480469 312.527344 174.546875 312.011719 174.691406 311.484375 C 174.839844 310.964844 175.0625 310.433594 175.34375 309.910156 C 175.621094 309.386719 175.953125 308.867188 176.3125 308.355469 C 176.492188 308.09375 176.679688 307.839844 176.875 307.578125 C 176.96875 307.449219 177.070312 307.320312 177.167969 307.191406 L 177.460938 306.8125 C 177.859375 306.308594 178.269531 305.808594 178.691406 305.320312 C 179.117188 304.828125 179.546875 304.34375 179.988281 303.863281 C 180.871094 302.90625 181.785156 301.964844 182.710938 301.035156 C 183.640625 300.105469 184.582031 299.1875 185.53125 298.273438 C 187.425781 296.449219 189.34375 294.632812 191.234375 292.78125 C 193.125 290.933594 194.988281 289.050781 196.773438 287.082031 C 197.664062 286.097656 198.535156 285.097656 199.375 284.0625 C 199.582031 283.804688 199.792969 283.546875 200 283.28125 L 200.304688 282.886719 L 200.609375 282.488281 C 200.8125 282.222656 201.007812 281.953125 201.207031 281.683594 C 201.304688 281.550781 201.398438 281.410156 201.496094 281.277344 C 201.59375 281.136719 201.691406 281.003906 201.785156 280.863281 L 202.070312 280.449219 C 202.164062 280.3125 202.253906 280.171875 202.347656 280.03125 C 202.535156 279.753906 202.710938 279.46875 202.890625 279.183594 C 203.246094 278.613281 203.589844 278.035156 203.910156 277.441406 C 204.074219 277.144531 204.226562 276.84375 204.378906 276.542969 C 204.457031 276.390625 204.527344 276.238281 204.601562 276.085938 L 204.714844 275.859375 L 204.820312 275.628906 L 205.027344 275.164062 L 205.226562 274.695312 C 205.292969 274.539062 205.355469 274.378906 205.414062 274.21875 L 205.507812 273.980469 C 205.539062 273.902344 205.570312 273.820312 205.59375 273.742188 L 205.765625 273.257812 C 205.796875 273.179688 205.820312 273.097656 205.847656 273.015625 L 205.925781 272.769531 L 206 272.527344 C 206.027344 272.441406 206.046875 272.359375 206.070312 272.277344 C 206.117188 272.109375 206.164062 271.949219 206.210938 271.78125 C 206.378906 271.117188 206.519531 270.441406 206.625 269.761719 C 206.726562 269.078125 206.792969 268.386719 206.8125 267.6875 C 206.824219 266.992188 206.796875 266.289062 206.710938 265.585938 C 206.546875 264.1875 206.140625 262.800781 205.503906 261.527344 C 205.1875 260.894531 204.8125 260.285156 204.390625 259.722656 C 203.972656 259.152344 203.503906 258.628906 203 258.144531 C 202 257.171875 200.863281 256.371094 199.675781 255.707031 C 198.484375 255.054688 197.234375 254.539062 195.960938 254.132812 C 195.324219 253.929688 194.679688 253.757812 194.035156 253.609375 C 193.714844 253.53125 193.386719 253.46875 193.0625 253.402344 L 192.574219 253.3125 C 192.414062 253.285156 192.25 253.265625 192.085938 253.238281 C 191.433594 253.136719 190.78125 253.058594 190.125 253.003906 C 189.46875 252.953125 188.8125 252.921875 188.15625 252.910156 C 187.503906 252.898438 186.847656 252.910156 186.195312 252.941406 C 185.539062 252.976562 184.886719 253.035156 184.234375 253.109375 C 182.9375 253.269531 181.644531 253.511719 180.378906 253.871094 L 179.902344 254.011719 C 179.746094 254.0625 179.589844 254.113281 179.433594 254.164062 C 179.351562 254.191406 179.277344 254.21875 179.203125 254.242188 L 178.976562 254.320312 L 178.523438 254.480469 L 178.296875 254.558594 L 178.074219 254.640625 L 177.625 254.808594 C 177.476562 254.863281 177.328125 254.917969 177.179688 254.976562 L 176.734375 255.148438 C 175.550781 255.613281 174.378906 256.105469 173.230469 256.632812 C 172.078125 257.15625 170.945312 257.710938 169.824219 258.28125 C 169.542969 258.425781 169.265625 258.566406 168.984375 258.714844 C 168.710938 258.863281 168.429688 259.007812 168.15625 259.152344 C 167.878906 259.304688 167.605469 259.453125 167.328125 259.601562 C 167.050781 259.75 166.78125 259.90625 166.507812 260.058594 C 165.414062 260.667969 164.335938 261.292969 163.265625 261.929688 C 162.199219 262.566406 161.140625 263.210938 160.089844 263.863281 C 157.988281 265.171875 155.921875 266.503906 153.863281 267.824219 C 152.832031 268.484375 151.804688 269.144531 150.777344 269.792969 C 150.261719 270.117188 149.746094 270.445312 149.234375 270.769531 C 148.71875 271.089844 148.203125 271.410156 147.6875 271.730469 C 146.65625 272.375 145.628906 273.019531 144.597656 273.667969 C 143.574219 274.316406 142.554688 274.96875 141.535156 275.613281 C 137.46875 278.226562 133.46875 280.871094 129.535156 283.554688 C 128.554688 284.226562 127.570312 284.890625 126.601562 285.570312 C 126.113281 285.90625 125.628906 286.246094 125.140625 286.585938 C 124.65625 286.921875 124.171875 287.253906 123.691406 287.597656 C 122.726562 288.28125 121.765625 288.964844 120.804688 289.640625 C 119.851562 290.328125 118.898438 291.011719 117.949219 291.695312 C 110.371094 297.199219 103.0625 302.8125 96.074219 308.558594 C 111.75 296.300781 128.9375 284.496094 147.449219 273.355469 C 148.03125 273.007812 148.609375 272.660156 149.1875 272.308594 C 149.773438 271.964844 150.351562 271.609375 150.933594 271.257812 C 152.09375 270.550781 153.253906 269.835938 154.414062 269.113281 C 156.734375 267.679688 159.058594 266.234375 161.414062 264.824219 C 163.773438 263.417969 166.160156 262.046875 168.605469 260.769531 C 171.050781 259.496094 173.550781 258.3125 176.121094 257.285156 C 176.765625 257.027344 177.410156 256.785156 178.0625 256.546875 L 178.550781 256.371094 C 178.714844 256.3125 178.878906 256.253906 179.042969 256.199219 L 179.78125 255.953125 C 179.863281 255.925781 179.945312 255.898438 180.027344 255.875 C 181.3125 255.464844 182.652344 255.1875 184.007812 255.019531 C 185.363281 254.847656 186.738281 254.789062 188.113281 254.828125 C 189.484375 254.867188 190.859375 255.003906 192.214844 255.253906 C 193.566406 255.5 194.894531 255.859375 196.171875 256.335938 C 197.449219 256.824219 198.675781 257.433594 199.78125 258.195312 C 200.886719 258.957031 201.875 259.875 202.65625 260.933594 C 203.046875 261.464844 203.382812 262.03125 203.660156 262.625 C 203.9375 263.21875 204.152344 263.839844 204.308594 264.480469 C 204.464844 265.121094 204.5625 265.777344 204.597656 266.445312 C 204.636719 267.109375 204.617188 267.78125 204.554688 268.457031 C 204.492188 269.128906 204.382812 269.808594 204.226562 270.472656 C 204.074219 271.144531 203.882812 271.804688 203.660156 272.460938 C 203.433594 273.113281 203.171875 273.757812 202.882812 274.394531 L 202.664062 274.867188 L 202.429688 275.339844 C 202.351562 275.5 202.265625 275.652344 202.1875 275.808594 L 202.0625 276.039062 C 202.023438 276.121094 201.976562 276.195312 201.933594 276.269531 C 201.597656 276.886719 201.226562 277.492188 200.84375 278.089844 C 200.464844 278.691406 200.058594 279.277344 199.640625 279.859375 C 197.96875 282.179688 196.0625 284.363281 194.054688 286.476562 C 192.042969 288.59375 189.929688 290.640625 187.78125 292.679688 C 185.632812 294.71875 183.445312 296.746094 181.296875 298.855469 C 180.757812 299.386719 180.222656 299.917969 179.691406 300.457031 C 179.160156 300.996094 178.632812 301.546875 178.113281 302.101562 C 177.59375 302.660156 177.082031 303.226562 176.578125 303.808594 C 176.074219 304.394531 175.582031 304.988281 175.105469 305.605469 C 174.636719 306.210938 174.167969 306.839844 173.726562 307.515625 C 173.285156 308.1875 172.871094 308.90625 172.539062 309.699219 C 172.371094 310.09375 172.226562 310.507812 172.113281 310.9375 C 172.054688 311.152344 172.011719 311.371094 171.96875 311.59375 C 171.933594 311.816406 171.898438 312.042969 171.882812 312.273438 C 171.863281 312.5 171.859375 312.734375 171.859375 312.964844 C 171.863281 313.082031 171.867188 313.195312 171.875 313.3125 L 171.910156 313.660156 C 171.964844 314.121094 172.070312 314.578125 172.214844 315.019531 L 172.273438 315.183594 C 172.292969 315.238281 172.3125 315.292969 172.335938 315.34375 L 172.46875 315.667969 L 172.621094 315.976562 C 172.671875 316.078125 172.730469 316.179688 172.785156 316.277344 C 173.011719 316.675781 173.269531 317.046875 173.550781 317.390625 C 173.832031 317.734375 174.140625 318.050781 174.460938 318.347656 C 174.78125 318.640625 175.117188 318.910156 175.464844 319.160156 C 175.8125 319.40625 176.171875 319.636719 176.535156 319.847656 C 176.902344 320.050781 177.277344 320.242188 177.65625 320.417969 C 178.417969 320.757812 179.203125 321.039062 180.007812 321.253906 C 180.210938 321.308594 180.414062 321.355469 180.617188 321.402344 C 180.8125 321.445312 181.011719 321.488281 181.207031 321.527344 C 181.40625 321.558594 181.605469 321.601562 181.804688 321.632812 L 182.253906 321.703125 L 182.402344 321.726562 C 183.199219 321.839844 184 321.910156 184.800781 321.949219 C 186.402344 322.023438 188 321.957031 189.578125 321.796875 C 191.152344 321.636719 192.710938 321.378906 194.246094 321.066406 C 195.015625 320.910156 195.777344 320.738281 196.539062 320.5625 C 197.296875 320.382812 198.054688 320.195312 198.800781 319.996094 C 199.550781 319.796875 200.300781 319.601562 201.050781 319.402344 C 201.800781 319.191406 202.546875 318.984375 203.296875 318.769531 L 203.855469 318.613281 C 204.042969 318.558594 204.230469 318.503906 204.414062 318.445312 C 204.789062 318.335938 205.160156 318.226562 205.535156 318.113281 C 205.90625 318 206.277344 317.886719 206.652344 317.777344 C 207.023438 317.660156 207.394531 317.539062 207.765625 317.421875 C 208.136719 317.304688 208.507812 317.1875 208.878906 317.070312 C 209.25 316.949219 209.625 316.832031 209.992188 316.707031 C 210.730469 316.460938 211.472656 316.210938 212.210938 315.960938 C 212.398438 315.898438 212.582031 315.832031 212.765625 315.769531 L 213.316406 315.574219 C 213.683594 315.441406 214.054688 315.3125 214.421875 315.183594 C 215.160156 314.925781 215.890625 314.648438 216.625 314.375 C 216.992188 314.242188 217.359375 314.105469 217.726562 313.96875 C 217.910156 313.902344 218.09375 313.828125 218.277344 313.757812 L 218.824219 313.542969 C 219.1875 313.40625 219.554688 313.261719 219.917969 313.121094 L 220.46875 312.90625 L 220.742188 312.800781 L 221.015625 312.691406 C 221.742188 312.394531 222.46875 312.097656 223.195312 311.804688 L 223.46875 311.695312 L 223.742188 311.578125 L 224.285156 311.351562 C 224.644531 311.199219 225.007812 311.046875 225.367188 310.890625 L 226.183594 310.546875 L 226.453125 310.429688 C 226.8125 310.273438 227.175781 310.113281 227.535156 309.957031 C 227.894531 309.796875 228.253906 309.640625 228.617188 309.480469 L 228.886719 309.363281 L 229.695312 309 C 230.050781 308.832031 230.410156 308.671875 230.769531 308.507812 L 231.308594 308.261719 L 231.578125 308.140625 L 231.84375 308.015625 C 232.558594 307.683594 233.269531 307.34375 233.984375 307.011719 C 236.835938 305.648438 239.664062 304.234375 242.472656 302.769531 C 243.175781 302.402344 243.875 302.03125 244.578125 301.65625 C 244.929688 301.472656 245.273438 301.28125 245.625 301.09375 C 245.972656 300.90625 246.320312 300.714844 246.671875 300.527344 C 247.019531 300.335938 247.367188 300.148438 247.714844 299.957031 C 248.0625 299.765625 248.410156 299.570312 248.757812 299.378906 C 249.453125 298.992188 250.148438 298.609375 250.835938 298.210938 C 251.4375 297.871094 252.035156 297.53125 252.636719 297.191406 C 253.230469 296.84375 253.828125 296.496094 254.421875 296.152344 L 255.316406 295.632812 L 256.203125 295.105469 C 256.792969 294.753906 257.382812 294.402344 257.976562 294.054688 C 259.148438 293.339844 260.328125 292.636719 261.492188 291.910156 C 262.074219 291.554688 262.660156 291.195312 263.242188 290.832031 C 263.820312 290.46875 264.402344 290.105469 264.980469 289.742188 C 265.5625 289.382812 266.136719 289.011719 266.714844 288.644531 L 267.578125 288.09375 L 268.4375 287.539062 C 269.011719 287.171875 269.585938 286.800781 270.15625 286.429688 C 270.445312 286.246094 270.730469 286.058594 271.015625 285.875 C 271.300781 285.683594 271.582031 285.5 271.867188 285.308594 C 273.007812 284.566406 274.140625 283.8125 275.269531 283.058594 C 275.839844 282.683594 276.398438 282.304688 276.964844 281.925781 C 277.527344 281.546875 278.089844 281.171875 278.648438 280.789062 C 279.207031 280.40625 279.769531 280.027344 280.328125 279.644531 C 280.886719 279.261719 281.445312 278.878906 282 278.496094 C 283.117188 277.734375 284.226562 276.960938 285.335938 276.191406 C 287.546875 274.644531 289.75 273.101562 291.9375 271.542969 C 296.3125 268.4375 300.640625 265.304688 304.945312 262.183594 C 313.542969 255.933594 322.023438 249.710938 330.507812 243.703125 C 338.996094 237.691406 347.488281 231.902344 356.09375 226.515625 C 356.632812 226.183594 357.171875 225.847656 357.710938 225.511719 C 357.980469 225.34375 358.246094 225.179688 358.519531 225.011719 C 358.785156 224.847656 359.058594 224.683594 359.328125 224.515625 C 359.867188 224.191406 360.40625 223.863281 360.945312 223.53125 C 361.484375 223.207031 362.027344 222.886719 362.570312 222.5625 C 364.734375 221.28125 366.914062 220.046875 369.117188 218.855469 C 373.515625 216.480469 377.980469 214.296875 382.511719 212.359375 C 387.050781 210.421875 391.652344 208.734375 396.316406 207.363281 C 400.972656 205.996094 405.695312 204.953125 410.441406 204.320312 C 412.8125 204.007812 415.1875 203.789062 417.558594 203.691406 L 418.003906 203.675781 L 418.449219 203.664062 C 418.746094 203.65625 419.042969 203.648438 419.339844 203.640625 C 419.632812 203.636719 419.929688 203.636719 420.226562 203.636719 C 420.523438 203.632812 420.820312 203.632812 421.109375 203.632812 C 421.410156 203.636719 421.707031 203.640625 422 203.648438 L 422.441406 203.65625 C 422.589844 203.660156 422.738281 203.660156 422.886719 203.667969 C 423.179688 203.683594 423.472656 203.695312 423.769531 203.707031 C 424.0625 203.722656 424.359375 203.730469 424.652344 203.75 C 429.355469 204.03125 433.992188 204.816406 438.453125 206.109375 C 440.683594 206.757812 442.867188 207.53125 444.988281 208.421875 C 447.113281 209.316406 449.179688 210.324219 451.179688 211.441406 C 455.179688 213.671875 458.894531 216.320312 462.324219 219.25 C 458.632812 215.9375 454.5625 212.941406 450.117188 210.46875 " fill-opacity="1" fill-rule="nonzero"/></g><g clip-path="url(#dfadc2f9e4)"><path fill="#4f45e4" d="M 249.578125 106.554688 C 249.578125 106.554688 224.296875 123.621094 200.253906 106.851562 C 200.253906 106.851562 229.847656 108.585938 249.578125 106.554688 Z M 224.621094 144.082031 C 224.039062 144.367188 223.1875 144.777344 222.105469 145.25 C 221.023438 145.722656 219.71875 146.265625 218.226562 146.828125 C 217.851562 146.964844 217.46875 147.109375 217.078125 147.253906 C 216.6875 147.402344 216.285156 147.546875 215.875 147.695312 C 215.054688 147.988281 214.191406 148.28125 213.292969 148.566406 C 211.496094 149.132812 209.5625 149.671875 207.53125 150.125 C 207.277344 150.179688 207.023438 150.230469 206.765625 150.289062 C 206.511719 150.34375 206.253906 150.398438 206 150.453125 C 205.484375 150.558594 204.964844 150.65625 204.441406 150.75 C 203.394531 150.9375 202.332031 151.09375 201.253906 151.214844 C 199.097656 151.457031 196.890625 151.554688 194.683594 151.445312 C 192.476562 151.339844 190.257812 151.023438 188.109375 150.449219 C 188.5 150.359375 188.886719 150.265625 189.28125 150.175781 L 190.464844 149.917969 L 192.824219 149.40625 C 194.394531 149.066406 195.960938 148.734375 197.527344 148.410156 C 199.089844 148.085938 200.644531 147.765625 202.203125 147.457031 C 203.773438 147.15625 205.339844 146.863281 206.902344 146.582031 C 208.464844 146.296875 210.019531 146.019531 211.574219 145.75 L 213.898438 145.347656 C 214.28125 145.28125 214.675781 145.222656 215.066406 145.160156 L 216.234375 144.976562 C 219.351562 144.496094 222.445312 144.046875 225.519531 143.625 C 225.519531 143.625 225.207031 143.792969 224.621094 144.082031 Z M 96.570312 291.128906 C 96.046875 291.9375 94.964844 292.371094 93.925781 292.191406 C 92.207031 291.890625 91.335938 290.230469 92.199219 288.894531 C 92.722656 288.089844 93.800781 287.65625 94.84375 287.835938 C 96.558594 288.132812 97.429688 289.796875 96.570312 291.128906 Z M 318.136719 8.394531 C 318.09375 8.164062 317.980469 7.929688 317.808594 7.714844 C 317.628906 7.503906 317.386719 7.304688 317.085938 7.148438 C 315.273438 6.21875 313.386719 5.402344 311.4375 4.683594 L 311.070312 4.542969 C 310.949219 4.5 310.816406 4.457031 310.6875 4.414062 L 309.917969 4.15625 L 309.144531 3.90625 C 309.011719 3.863281 308.886719 3.824219 308.757812 3.785156 L 308.378906 3.667969 C 307.871094 3.515625 307.359375 3.363281 306.84375 3.214844 C 306.339844 3.074219 305.835938 2.9375 305.328125 2.800781 C 301.269531 1.742188 297.242188 1.019531 293.222656 0.589844 C 289.207031 0.15625 285.207031 0.0117188 281.234375 0.0976562 C 280.25 0.128906 279.253906 0.160156 278.261719 0.207031 C 277.285156 0.269531 276.300781 0.335938 275.3125 0.414062 C 274.316406 0.484375 273.359375 0.59375 272.382812 0.703125 L 270.917969 0.875 L 270.183594 0.960938 L 269.464844 1.066406 C 269.464844 1.066406 269.050781 1.109375 268.265625 1.246094 C 267.871094 1.3125 267.386719 1.402344 266.8125 1.523438 C 266.527344 1.585938 266.21875 1.652344 265.886719 1.726562 C 265.566406 1.808594 265.222656 1.898438 264.859375 1.996094 C 263.414062 2.394531 261.617188 2.925781 259.644531 3.722656 C 259.148438 3.917969 258.636719 4.128906 258.105469 4.351562 C 257.84375 4.460938 257.574219 4.574219 257.304688 4.691406 C 257.039062 4.816406 256.769531 4.941406 256.5 5.070312 C 255.410156 5.589844 254.269531 6.164062 253.082031 6.804688 C 251.925781 7.464844 250.722656 8.1875 249.488281 8.976562 C 248.859375 9.367188 248.261719 9.796875 247.644531 10.234375 C 247.027344 10.675781 246.402344 11.132812 245.773438 11.609375 C 245.460938 11.847656 245.144531 12.089844 244.828125 12.335938 C 244.515625 12.589844 244.207031 12.847656 243.898438 13.109375 C 243.277344 13.632812 242.652344 14.171875 242.027344 14.734375 C 241.710938 15.015625 241.398438 15.300781 241.085938 15.589844 C 241.003906 15.660156 240.925781 15.734375 240.847656 15.808594 C 240.769531 15.882812 240.695312 15.957031 240.617188 16.03125 C 240.46875 16.183594 240.3125 16.332031 240.160156 16.484375 C 239.550781 17.09375 238.9375 17.722656 238.328125 18.371094 C 237.085938 19.65625 235.925781 21.0625 234.757812 22.535156 C 234.464844 22.902344 234.175781 23.277344 233.886719 23.65625 C 233.742188 23.84375 233.59375 24.035156 233.453125 24.226562 C 233.316406 24.421875 233.179688 24.617188 233.039062 24.8125 C 232.484375 25.601562 231.9375 26.410156 231.398438 27.238281 C 231.128906 27.648438 230.859375 28.066406 230.589844 28.488281 C 230.460938 28.703125 230.324219 28.914062 230.195312 29.132812 C 230.070312 29.347656 229.941406 29.566406 229.816406 29.785156 C 229.3125 30.664062 228.816406 31.5625 228.332031 32.476562 C 228.085938 32.933594 227.847656 33.398438 227.609375 33.867188 C 227.492188 34.101562 227.367188 34.335938 227.257812 34.574219 C 227.144531 34.8125 227.035156 35.054688 226.921875 35.296875 C 226.480469 36.261719 226.046875 37.25 225.628906 38.253906 C 225.628906 38.253906 225.496094 37.890625 225.488281 36.996094 C 225.484375 36.546875 225.511719 35.964844 225.601562 35.230469 C 225.648438 34.859375 225.710938 34.453125 225.796875 34.003906 C 225.839844 33.777344 225.886719 33.539062 225.9375 33.292969 C 225.96875 33.171875 225.996094 33.042969 226.023438 32.917969 C 226.054688 32.785156 226.089844 32.65625 226.125 32.523438 C 226.40625 31.460938 226.800781 30.214844 227.34375 28.765625 C 227.613281 28.039062 227.921875 27.265625 228.273438 26.433594 C 228.644531 25.613281 229.0625 24.738281 229.53125 23.808594 C 229.996094 22.875 230.515625 21.886719 231.09375 20.835938 C 231.695312 19.800781 232.363281 18.703125 233.09375 17.542969 C 233.460938 16.964844 233.84375 16.367188 234.246094 15.757812 C 234.660156 15.148438 235.101562 14.535156 235.554688 13.898438 C 236.011719 13.261719 236.488281 12.609375 236.984375 11.941406 C 237.234375 11.605469 237.488281 11.269531 237.75 10.925781 C 238.019531 10.585938 238.296875 10.246094 238.574219 9.898438 L 237.574219 10.328125 C 237.402344 10.398438 237.242188 10.472656 237.082031 10.546875 L 236.59375 10.769531 L 234.644531 11.671875 L 232.695312 12.59375 C 232.367188 12.746094 232.050781 12.90625 231.738281 13.066406 L 230.789062 13.550781 L 228.894531 14.527344 L 227.949219 15.019531 L 227.476562 15.269531 C 227.316406 15.351562 227.160156 15.4375 227.007812 15.523438 C 225.78125 16.203125 224.558594 16.898438 223.332031 17.597656 L 222.417969 18.125 L 221.960938 18.390625 L 221.515625 18.660156 L 219.734375 19.753906 L 217.960938 20.863281 C 217.371094 21.234375 216.769531 21.609375 216.207031 21.988281 C 215.058594 22.753906 213.917969 23.527344 212.777344 24.304688 L 211.921875 24.894531 L 211.496094 25.1875 L 209.425781 26.691406 C 200.59375 33.140625 192.613281 40.253906 185.417969 47.714844 C 185.265625 47.871094 185.121094 48.023438 184.976562 48.179688 L 184.550781 48.648438 C 184.265625 48.960938 183.984375 49.277344 183.707031 49.59375 C 183.152344 50.230469 182.613281 50.878906 182.085938 51.539062 C 181.558594 52.195312 181.046875 52.859375 180.546875 53.535156 C 180.421875 53.699219 180.304688 53.871094 180.183594 54.042969 L 179.832031 54.554688 C 179.601562 54.898438 179.371094 55.242188 179.148438 55.589844 C 178.246094 56.980469 177.40625 58.398438 176.628906 59.839844 L 176.339844 60.382812 C 176.246094 60.566406 176.15625 60.746094 176.066406 60.929688 C 175.890625 61.292969 175.714844 61.664062 175.546875 62.03125 C 175.207031 62.769531 174.882812 63.507812 174.574219 64.253906 C 174.265625 65 173.976562 65.75 173.703125 66.503906 C 173.566406 66.882812 173.433594 67.257812 173.304688 67.636719 C 173.238281 67.828125 173.175781 68.019531 173.113281 68.207031 L 172.945312 68.78125 C 172.492188 70.308594 172.113281 71.851562 171.800781 73.394531 C 171.644531 74.171875 171.503906 74.945312 171.386719 75.71875 C 171.324219 76.109375 171.269531 76.496094 171.21875 76.882812 C 171.167969 77.273438 171.132812 77.664062 171.097656 78.054688 C 170.953125 79.613281 170.882812 81.175781 170.886719 82.734375 C 170.886719 83.675781 170.902344 84.605469 170.929688 85.511719 C 170.945312 85.964844 170.964844 86.414062 170.984375 86.855469 C 170.992188 86.964844 170.996094 87.074219 171.003906 87.183594 C 171.011719 87.292969 171.019531 87.402344 171.027344 87.511719 C 171.042969 87.730469 171.058594 87.949219 171.078125 88.164062 C 171.21875 89.882812 171.421875 91.492188 171.6875 92.949219 C 172.226562 95.863281 173.027344 98.164062 174.148438 99.527344 C 174.148438 99.527344 173.816406 99.367188 173.222656 98.785156 C 172.628906 98.203125 171.773438 97.207031 170.734375 95.523438 C 169.699219 93.835938 168.484375 91.46875 167.1875 88.121094 C 166.863281 87.289062 166.535156 86.386719 166.203125 85.421875 C 165.875 84.457031 165.53125 83.421875 165.214844 82.324219 C 164.574219 80.125 163.933594 77.636719 163.320312 74.816406 C 155.003906 86.8125 148.09375 99.046875 142.316406 111.082031 C 136.542969 123.117188 131.902344 134.957031 128.101562 146.253906 C 127.78125 147.203125 127.484375 148.160156 127.214844 149.121094 C 126.945312 150.082031 126.6875 151.046875 126.488281 152.019531 C 126.074219 153.964844 125.761719 155.925781 125.550781 157.890625 C 125.449219 158.871094 125.367188 159.855469 125.3125 160.839844 C 125.285156 161.332031 125.265625 161.828125 125.25 162.316406 C 125.246094 162.5625 125.238281 162.808594 125.238281 163.054688 L 125.242188 163.796875 C 125.261719 165.765625 125.386719 167.734375 125.613281 169.691406 C 125.792969 171.226562 126 172.722656 126.234375 174.140625 C 126.351562 174.851562 126.472656 175.542969 126.605469 176.210938 C 126.742188 176.878906 126.890625 177.523438 127.042969 178.144531 C 127.65625 180.617188 128.386719 182.644531 129.25 183.949219 C 129.25 183.949219 128.296875 182.710938 126.777344 180.386719 C 126.019531 179.226562 125.117188 177.789062 124.128906 176.097656 C 123.882812 175.675781 123.628906 175.238281 123.371094 174.78125 C 123.117188 174.328125 122.859375 173.859375 122.59375 173.375 C 122.070312 172.40625 121.53125 171.371094 120.980469 170.277344 C 120.1875 173.242188 119.515625 176.152344 118.855469 178.988281 C 118.53125 180.410156 118.210938 181.8125 117.902344 183.195312 C 117.75 183.886719 117.597656 184.574219 117.445312 185.257812 C 117.304688 185.941406 117.167969 186.621094 117.027344 187.296875 C 116.484375 189.996094 115.96875 192.621094 115.488281 195.167969 C 115.371094 195.800781 115.253906 196.433594 115.136719 197.058594 C 115.105469 197.214844 115.078125 197.375 115.046875 197.527344 C 115.023438 197.683594 114.996094 197.839844 114.96875 197.996094 C 114.914062 198.308594 114.863281 198.613281 114.808594 198.925781 C 114.601562 200.160156 114.402344 201.371094 114.207031 202.5625 C 113.820312 204.945312 113.460938 207.242188 113.128906 209.445312 C 113.089844 209.71875 113.046875 209.996094 113.007812 210.265625 C 112.96875 210.539062 112.933594 210.8125 112.894531 211.085938 C 112.824219 211.621094 112.75 212.160156 112.683594 212.6875 C 112.546875 213.746094 112.410156 214.78125 112.28125 215.789062 C 112.027344 217.8125 111.796875 219.734375 111.585938 221.550781 C 111.535156 222.007812 111.484375 222.457031 111.429688 222.898438 C 111.382812 223.339844 111.332031 223.777344 111.292969 224.207031 C 111.210938 225.066406 111.132812 225.898438 111.054688 226.707031 C 111.042969 226.84375 111.007812 226.980469 110.960938 227.105469 L 108.71875 232.878906 L 107.601562 235.761719 L 107.320312 236.484375 L 107.050781 237.207031 L 106.507812 238.65625 L 104.34375 244.445312 L 103.265625 247.335938 L 102.722656 248.785156 L 102.453125 249.507812 L 102.195312 250.234375 L 99.863281 256.71875 L 99.972656 256.765625 C 99.671875 257.59375 99.367188 258.421875 99.0625 259.261719 C 98.066406 262.015625 97.109375 264.75 96.191406 267.449219 C 95.964844 268.121094 95.738281 268.796875 95.511719 269.464844 C 95.296875 270.136719 95.078125 270.804688 94.863281 271.472656 C 94.4375 272.804688 94.023438 274.128906 93.617188 275.445312 C 93.289062 276.511719 92.96875 277.566406 92.652344 278.617188 L 83.808594 304.410156 C 83.609375 304.980469 84.457031 305.382812 84.886719 304.917969 C 89.765625 299.617188 99.691406 293.148438 102.492188 291.371094 C 102.820312 291.15625 102.769531 290.71875 102.40625 290.554688 C 99.9375 289.445312 98.039062 287.699219 96.601562 285.867188 C 99.832031 276.683594 103.03125 267.84375 106.199219 259.332031 L 106.265625 259.359375 L 108.480469 253.339844 C 109.03125 251.820312 109.621094 250.3125 110.195312 248.800781 L 111.929688 244.265625 L 113.660156 239.734375 C 113.945312 238.972656 114.25 238.226562 114.546875 237.472656 L 115.441406 235.214844 L 117.234375 230.695312 L 118.132812 228.4375 L 118.804688 226.742188 L 119.035156 226.183594 L 122.738281 217.1875 L 123.664062 214.9375 L 124.621094 212.699219 L 126.539062 208.21875 L 128.453125 203.746094 C 128.609375 203.371094 128.777344 203 128.945312 202.628906 L 129.4375 201.511719 L 130.429688 199.285156 L 132.410156 194.828125 L 133.402344 192.601562 C 133.734375 191.859375 134.082031 191.121094 134.421875 190.382812 L 138.523438 181.519531 L 142.757812 172.699219 C 148.488281 160.972656 154.542969 149.363281 161.023438 137.925781 C 162.609375 135.054688 164.304688 132.230469 165.964844 129.386719 L 167.210938 127.257812 L 167.367188 126.992188 L 167.53125 126.726562 L 167.851562 126.199219 L 168.496094 125.144531 L 171.078125 120.917969 L 171.722656 119.863281 C 171.9375 119.511719 172.148438 119.15625 172.375 118.808594 L 173.707031 116.71875 L 176.375 112.53125 L 176.707031 112.011719 L 176.875 111.746094 L 177.046875 111.488281 L 177.734375 110.453125 L 179.113281 108.382812 L 180.488281 106.308594 L 181.179688 105.273438 L 181.523438 104.757812 C 181.636719 104.582031 181.757812 104.414062 181.875 104.242188 L 184.722656 100.144531 L 186.144531 98.089844 C 186.625 97.414062 187.121094 96.742188 187.609375 96.0625 L 190.550781 92.011719 L 190.914062 91.507812 L 191.296875 91.003906 L 193.570312 88.003906 L 195.089844 86 L 195.46875 85.503906 C 195.597656 85.335938 195.730469 85.175781 195.859375 85.007812 L 196.640625 84.023438 L 199.773438 80.074219 C 199.90625 79.910156 200.035156 79.742188 200.167969 79.582031 L 200.574219 79.097656 L 201.382812 78.121094 L 203 76.175781 L 204.617188 74.234375 L 206.285156 72.316406 L 207.953125 70.402344 L 208.789062 69.445312 C 208.929688 69.285156 209.066406 69.128906 209.210938 68.96875 L 209.640625 68.496094 L 213.085938 64.738281 L 213.515625 64.265625 C 213.660156 64.109375 213.808594 63.957031 213.957031 63.804688 L 214.84375 62.878906 L 217.511719 60.109375 L 217.957031 59.648438 C 218.105469 59.496094 218.261719 59.347656 218.410156 59.195312 L 220.242188 57.386719 C 225.128906 52.5625 230.261719 47.90625 235.703125 43.5 L 235.34375 43.796875 C 235.226562 43.890625 235.105469 43.988281 234.992188 44.09375 L 234.292969 44.699219 L 231.511719 47.121094 L 231.164062 47.425781 L 230.988281 47.578125 L 230.820312 47.730469 L 230.144531 48.351562 L 227.445312 50.835938 L 226.773438 51.460938 L 226.117188 52.09375 L 224.808594 53.367188 L 223.503906 54.636719 L 222.851562 55.273438 C 222.742188 55.382812 222.628906 55.484375 222.523438 55.59375 L 222.207031 55.917969 L 219.671875 58.515625 L 218.40625 59.8125 C 217.992188 60.25 217.585938 60.691406 217.175781 61.132812 L 214.722656 63.78125 C 208.242188 70.875 202.230469 78.253906 196.585938 85.816406 C 190.9375 93.378906 185.652344 101.125 180.636719 108.988281 L 178.753906 111.9375 L 178.285156 112.675781 L 177.832031 113.421875 L 176.921875 114.90625 L 175.105469 117.886719 L 174.195312 119.375 L 173.742188 120.117188 L 173.300781 120.871094 L 169.789062 126.875 L 169.351562 127.628906 L 169.132812 128 L 168.917969 128.382812 L 168.070312 129.894531 L 166.371094 132.921875 L 164.675781 135.949219 C 164.53125 136.199219 164.398438 136.457031 164.261719 136.710938 L 163.03125 138.996094 C 161.9375 141.03125 160.839844 143.0625 159.757812 145.097656 L 156.585938 151.238281 L 155.796875 152.773438 C 155.535156 153.289062 155.265625 153.796875 155.011719 154.316406 L 153.480469 157.40625 L 151.953125 160.496094 L 151.1875 162.039062 L 150.613281 163.199219 L 150.429688 163.585938 L 147.472656 169.804688 L 145.996094 172.914062 L 144.566406 176.042969 L 141.710938 182.292969 L 141.355469 183.074219 C 141.238281 183.335938 141.125 183.601562 141.011719 183.859375 L 140.320312 185.429688 L 137.566406 191.714844 C 137.105469 192.765625 136.640625 193.8125 136.203125 194.863281 L 133.539062 201.179688 L 132.210938 204.339844 C 131.984375 204.863281 131.777344 205.394531 131.5625 205.921875 L 130.917969 207.507812 L 128.351562 213.851562 L 127.707031 215.4375 L 127.386719 216.230469 L 127.074219 217.027344 L 125.835938 220.210938 L 123.355469 226.582031 L 122.734375 228.171875 L 122.136719 229.773438 L 120.9375 232.96875 C 120.429688 234.335938 122.015625 235.578125 123.261719 234.796875 C 125.171875 233.601562 127.046875 232.410156 128.894531 231.222656 C 129.824219 230.632812 130.75 230.046875 131.671875 229.457031 C 132.589844 228.871094 133.503906 228.28125 134.414062 227.703125 C 136.222656 226.53125 138.007812 225.367188 139.757812 224.203125 C 140.632812 223.621094 141.503906 223.039062 142.371094 222.464844 C 143.238281 221.890625 144.105469 221.316406 144.96875 220.746094 C 146.683594 219.601562 148.375 218.460938 150.035156 217.324219 C 150.863281 216.753906 151.6875 216.1875 152.507812 215.621094 C 153.324219 215.058594 154.128906 214.488281 154.945312 213.929688 C 158.199219 211.691406 161.34375 209.46875 164.378906 207.253906 C 176.601562 198.449219 187.378906 190 196.914062 181.867188 C 194.046875 182.136719 191.429688 182.339844 189.050781 182.480469 C 186.683594 182.632812 184.558594 182.722656 182.644531 182.761719 C 178.824219 182.839844 175.871094 182.714844 173.640625 182.496094 C 171.40625 182.28125 169.894531 181.980469 168.945312 181.726562 C 167.992188 181.476562 167.597656 181.273438 167.597656 181.273438 C 171.921875 182.671875 176.855469 182.378906 181.820312 181.207031 C 182.441406 181.058594 183.0625 180.898438 183.683594 180.722656 C 183.992188 180.636719 184.300781 180.546875 184.613281 180.453125 C 184.921875 180.363281 185.238281 180.269531 185.550781 180.175781 C 186.796875 179.789062 188.042969 179.359375 189.269531 178.898438 C 191.726562 177.980469 194.121094 176.929688 196.394531 175.839844 C 196.960938 175.566406 197.527344 175.296875 198.085938 175.027344 C 198.644531 174.757812 199.191406 174.484375 199.730469 174.210938 C 200.808594 173.667969 201.84375 173.125 202.832031 172.589844 C 203.820312 172.054688 204.757812 171.53125 205.640625 171.027344 C 206.523438 170.523438 207.355469 170.046875 208.128906 169.605469 C 211.214844 167.832031 213.246094 166.527344 213.699219 166.316406 C 213.746094 166.292969 213.808594 166.304688 213.847656 166.34375 C 213.898438 166.394531 213.980469 166.398438 214.027344 166.355469 C 222.179688 158.480469 229.167969 150.914062 235.214844 143.609375 C 241.265625 136.300781 246.367188 129.253906 250.75 122.414062 C 251.023438 121.984375 251.289062 121.550781 251.558594 121.121094 C 251.828125 120.703125 252.097656 120.28125 252.359375 119.859375 C 252.890625 119.019531 253.40625 118.171875 253.90625 117.324219 C 254.03125 117.109375 254.15625 116.898438 254.28125 116.683594 L 254.464844 116.367188 L 254.652344 116.054688 C 254.902344 115.640625 255.152344 115.226562 255.394531 114.8125 C 255.878906 113.980469 256.355469 113.148438 256.816406 112.304688 C 256.929688 112.09375 257.046875 111.882812 257.160156 111.671875 C 257.277344 111.46875 257.394531 111.265625 257.507812 111.0625 C 257.738281 110.652344 257.964844 110.246094 258.191406 109.835938 C 258.640625 109.011719 259.078125 108.1875 259.503906 107.355469 C 259.609375 107.144531 259.71875 106.945312 259.828125 106.742188 C 259.933594 106.539062 260.039062 106.339844 260.148438 106.136719 C 260.359375 105.734375 260.570312 105.328125 260.777344 104.921875 C 260.984375 104.515625 261.191406 104.105469 261.390625 103.699219 C 261.492188 103.492188 261.59375 103.289062 261.691406 103.082031 C 261.792969 102.878906 261.890625 102.667969 261.992188 102.472656 C 265.191406 96.015625 267.917969 89.714844 270.441406 83.535156 C 269.5 83.582031 268.578125 83.625 267.675781 83.667969 C 266.765625 83.742188 265.875 83.808594 265.003906 83.875 C 264.5625 83.910156 264.125 83.941406 263.695312 83.976562 C 263.480469 83.992188 263.265625 84.007812 263.050781 84.023438 C 262.941406 84.03125 262.835938 84.042969 262.730469 84.046875 C 262.621094 84.058594 262.519531 84.070312 262.410156 84.082031 C 261.5625 84.164062 260.734375 84.25 259.921875 84.332031 C 259.101562 84.414062 258.300781 84.488281 257.519531 84.566406 C 257.421875 84.578125 257.320312 84.585938 257.226562 84.597656 C 257.128906 84.605469 257.03125 84.621094 256.933594 84.628906 C 256.742188 84.652344 256.550781 84.679688 256.359375 84.699219 C 255.976562 84.746094 255.597656 84.789062 255.222656 84.835938 C 254.46875 84.921875 253.734375 85.007812 253.019531 85.089844 C 252.660156 85.128906 252.304688 85.167969 251.953125 85.207031 C 251.777344 85.226562 251.601562 85.246094 251.425781 85.265625 C 251.253906 85.289062 251.082031 85.308594 250.914062 85.332031 C 249.550781 85.511719 248.25 85.671875 247.011719 85.820312 C 246.386719 85.890625 245.785156 85.960938 245.199219 86.027344 C 244.902344 86.058594 244.621094 86.101562 244.335938 86.132812 C 244.054688 86.171875 243.773438 86.207031 243.5 86.242188 C 242.398438 86.378906 241.359375 86.5 240.378906 86.605469 C 239.886719 86.65625 239.414062 86.703125 238.957031 86.75 C 238.726562 86.773438 238.5 86.792969 238.28125 86.816406 C 238.058594 86.835938 237.839844 86.855469 237.628906 86.878906 C 234.242188 87.238281 231.820312 87.34375 230.257812 87.351562 C 230.0625 87.351562 229.882812 87.351562 229.714844 87.351562 C 229.546875 87.347656 229.390625 87.347656 229.25 87.34375 C 228.96875 87.339844 228.734375 87.332031 228.550781 87.324219 C 228.183594 87.304688 228.007812 87.28125 228.007812 87.28125 C 228.320312 87.257812 228.632812 87.226562 228.949219 87.191406 C 229.109375 87.171875 229.269531 87.152344 229.429688 87.128906 C 229.59375 87.105469 229.753906 87.085938 229.921875 87.0625 C 230.582031 86.972656 231.257812 86.851562 231.949219 86.707031 C 233.328125 86.417969 234.761719 86.035156 236.230469 85.574219 C 236.414062 85.511719 236.601562 85.460938 236.789062 85.402344 C 236.976562 85.347656 237.164062 85.289062 237.355469 85.230469 C 237.734375 85.113281 238.113281 84.992188 238.492188 84.863281 C 239.253906 84.613281 240.027344 84.339844 240.800781 84.058594 C 242.339844 83.46875 243.945312 82.898438 245.539062 82.257812 C 245.9375 82.097656 246.335938 81.9375 246.734375 81.773438 C 246.933594 81.691406 247.132812 81.609375 247.332031 81.523438 L 247.628906 81.398438 L 247.933594 81.285156 C 248.742188 80.964844 249.550781 80.640625 250.355469 80.308594 C 250.753906 80.140625 251.15625 79.972656 251.558594 79.804688 L 252.15625 79.550781 L 252.453125 79.421875 C 252.554688 79.378906 252.65625 79.339844 252.757812 79.300781 C 253.5625 78.976562 254.363281 78.648438 255.15625 78.320312 C 255.550781 78.15625 255.945312 77.988281 256.339844 77.824219 C 256.535156 77.738281 256.730469 77.65625 256.925781 77.570312 C 257.121094 77.488281 257.320312 77.414062 257.515625 77.335938 C 258.300781 77.023438 259.078125 76.707031 259.84375 76.390625 C 260.222656 76.234375 260.605469 76.074219 260.980469 75.917969 L 261.261719 75.800781 L 261.546875 75.691406 C 261.734375 75.621094 261.921875 75.542969 262.109375 75.472656 C 262.859375 75.179688 263.59375 74.890625 264.3125 74.601562 C 265.265625 74.203125 266.199219 73.820312 267.085938 73.359375 C 267.53125 73.132812 267.964844 72.890625 268.386719 72.636719 L 268.703125 72.445312 L 269.019531 72.257812 C 269.226562 72.132812 269.433594 72.007812 269.636719 71.875 C 270.046875 71.609375 270.445312 71.335938 270.835938 71.046875 C 271.03125 70.902344 271.222656 70.757812 271.410156 70.605469 L 271.695312 70.378906 L 271.976562 70.15625 C 272.726562 69.5625 273.433594 68.917969 274.105469 68.21875 C 276.8125 65.5 278.972656 62.183594 280.667969 58.25 C 281.003906 57.46875 281.339844 56.699219 281.671875 55.929688 C 282.019531 55.167969 282.359375 54.410156 282.699219 53.660156 C 282.875 53.277344 283.046875 52.898438 283.21875 52.519531 C 283.394531 52.144531 283.574219 51.777344 283.75 51.40625 C 284.101562 50.664062 284.453125 49.914062 284.816406 49.171875 C 285.183594 48.4375 285.546875 47.710938 285.910156 46.988281 C 286 46.808594 286.09375 46.625 286.183594 46.441406 C 286.277344 46.261719 286.367188 46.074219 286.460938 45.898438 C 286.648438 45.542969 286.839844 45.1875 287.027344 44.835938 C 287.214844 44.476562 287.40625 44.121094 287.59375 43.769531 C 287.6875 43.589844 287.78125 43.414062 287.878906 43.234375 L 288.019531 42.96875 L 288.164062 42.710938 C 288.558594 42.011719 288.949219 41.320312 289.335938 40.636719 C 289.726562 39.941406 290.125 39.277344 290.527344 38.609375 C 290.730469 38.273438 290.933594 37.9375 291.132812 37.605469 C 291.238281 37.4375 291.335938 37.273438 291.4375 37.105469 C 291.539062 36.9375 291.640625 36.78125 291.746094 36.617188 C 292.15625 35.96875 292.570312 35.324219 292.988281 34.679688 C 293.089844 34.523438 293.195312 34.359375 293.296875 34.203125 C 293.40625 34.042969 293.511719 33.886719 293.613281 33.734375 C 293.828125 33.421875 294.039062 33.109375 294.25 32.804688 C 294.464844 32.492188 294.679688 32.183594 294.886719 31.878906 C 294.996094 31.722656 295.101562 31.566406 295.210938 31.417969 C 295.316406 31.269531 295.425781 31.121094 295.53125 30.972656 C 295.964844 30.378906 296.398438 29.789062 296.832031 29.203125 C 297.046875 28.90625 297.269531 28.628906 297.488281 28.34375 C 297.710938 28.058594 297.929688 27.777344 298.148438 27.5 C 298.371094 27.222656 298.589844 26.941406 298.808594 26.667969 C 299.027344 26.386719 299.25 26.125 299.476562 25.855469 C 299.917969 25.324219 300.363281 24.792969 300.808594 24.273438 C 301.253906 23.765625 301.703125 23.269531 302.148438 22.773438 C 302.371094 22.527344 302.59375 22.285156 302.8125 22.042969 C 303.039062 21.808594 303.265625 21.574219 303.484375 21.339844 C 303.929688 20.878906 304.375 20.417969 304.816406 19.976562 C 305.710938 19.105469 306.578125 18.253906 307.457031 17.484375 C 307.675781 17.289062 307.890625 17.09375 308.105469 16.90625 C 308.316406 16.714844 308.53125 16.527344 308.746094 16.347656 C 309.179688 15.988281 309.601562 15.636719 310.019531 15.300781 C 313.285156 12.597656 315.960938 10.730469 317.578125 9.625 C 318.039062 9.3125 318.21875 8.859375 318.136719 8.394531 " fill-opacity="1" fill-rule="nonzero"/></g></svg>