<svg xmlns="http://www.w3.org/2000/svg" xmlns:xlink="http://www.w3.org/1999/xlink" width="900" zoomAndPan="magnify" viewBox="0 0 675 299.999988" height="400" preserveAspectRatio="xMidYMid meet" version="1.0"><defs><g/><clipPath id="0dc8568cea"><path d="M 8 168 L 259.5 168 L 259.5 250.5 L 8 250.5 Z M 8 168 " clip-rule="nonzero"/></clipPath></defs><g clip-path="url(#0dc8568cea)"><path fill="#4f45e4" d="M 251.253906 174.261719 C 248.207031 172.566406 244.914062 171.226562 241.457031 170.324219 C 239.726562 169.875 237.960938 169.53125 236.171875 169.296875 L 236 169.273438 L 235.917969 169.261719 L 235.832031 169.253906 L 235.496094 169.214844 C 235.269531 169.1875 235.046875 169.164062 234.820312 169.140625 C 234.59375 169.117188 234.371094 169.101562 234.144531 169.078125 L 233.808594 169.050781 C 233.75 169.046875 233.695312 169.039062 233.632812 169.035156 L 233.464844 169.023438 C 233.238281 169.011719 233.011719 168.996094 232.785156 168.984375 C 232.671875 168.976562 232.558594 168.96875 232.445312 168.964844 L 232.101562 168.949219 C 231.875 168.941406 231.648438 168.933594 231.421875 168.921875 C 231.195312 168.917969 230.964844 168.917969 230.738281 168.914062 C 229.824219 168.898438 228.90625 168.917969 227.992188 168.949219 C 227.761719 168.960938 227.53125 168.972656 227.300781 168.984375 L 226.957031 169.003906 L 226.785156 169.011719 L 226.613281 169.023438 C 226.382812 169.042969 226.15625 169.058594 225.925781 169.078125 C 225.8125 169.085938 225.695312 169.09375 225.582031 169.105469 L 225.238281 169.136719 C 225.003906 169.160156 224.777344 169.179688 224.546875 169.203125 C 224.320312 169.226562 224.089844 169.253906 223.859375 169.28125 L 223.515625 169.320312 L 223.171875 169.367188 C 222.941406 169.394531 222.710938 169.425781 222.480469 169.460938 C 222.367188 169.472656 222.253906 169.488281 222.136719 169.507812 L 221.792969 169.5625 C 221.5625 169.597656 221.335938 169.632812 221.105469 169.667969 C 220.875 169.707031 220.648438 169.75 220.417969 169.789062 L 220.074219 169.851562 C 219.960938 169.871094 219.84375 169.890625 219.730469 169.910156 C 217.902344 170.257812 216.078125 170.683594 214.265625 171.179688 L 214.09375 171.226562 L 213.925781 171.273438 L 213.585938 171.367188 C 213.359375 171.433594 213.132812 171.496094 212.90625 171.5625 C 212.679688 171.628906 212.457031 171.699219 212.230469 171.765625 C 212.003906 171.835938 211.777344 171.902344 211.550781 171.976562 C 211.105469 172.121094 210.652344 172.261719 210.207031 172.414062 C 209.980469 172.488281 209.753906 172.5625 209.53125 172.636719 C 209.308594 172.714844 209.085938 172.796875 208.859375 172.875 C 207.964844 173.183594 207.074219 173.519531 206.1875 173.859375 C 205.964844 173.945312 205.746094 174.035156 205.523438 174.121094 C 205.300781 174.210938 205.078125 174.296875 204.859375 174.386719 C 204.636719 174.476562 204.414062 174.570312 204.195312 174.660156 L 203.863281 174.796875 L 203.535156 174.9375 C 201.773438 175.679688 200.023438 176.476562 198.292969 177.320312 C 196.558594 178.164062 194.839844 179.058594 193.132812 179.988281 L 192.816406 180.164062 L 192.496094 180.339844 C 192.285156 180.457031 192.070312 180.574219 191.855469 180.695312 C 191.644531 180.8125 191.433594 180.933594 191.222656 181.054688 C 191.011719 181.175781 190.800781 181.296875 190.585938 181.417969 C 190.375 181.539062 190.164062 181.660156 189.953125 181.785156 C 189.742188 181.90625 189.53125 182.03125 189.324219 182.152344 C 188.902344 182.402344 188.480469 182.648438 188.0625 182.898438 C 187.851562 183.023438 187.640625 183.148438 187.429688 183.277344 C 187.222656 183.402344 187.015625 183.53125 186.800781 183.65625 C 186.59375 183.785156 186.382812 183.910156 186.171875 184.035156 C 185.964844 184.164062 185.757812 184.292969 185.546875 184.421875 C 185.128906 184.679688 184.707031 184.933594 184.292969 185.191406 C 183.875 185.453125 183.457031 185.714844 183.039062 185.976562 L 182.414062 186.367188 C 182.207031 186.5 181.996094 186.632812 181.789062 186.765625 C 181.582031 186.898438 181.375 187.027344 181.164062 187.160156 C 180.957031 187.292969 180.75 187.429688 180.539062 187.5625 C 180.125 187.828125 179.710938 188.097656 179.292969 188.367188 C 178.878906 188.636719 178.464844 188.90625 178.046875 189.179688 C 171.410156 193.527344 164.832031 198.167969 158.207031 202.90625 C 151.582031 207.644531 144.90625 212.488281 138.058594 217.230469 C 136.347656 218.414062 134.625 219.59375 132.890625 220.761719 C 131.152344 221.933594 129.40625 223.09375 127.640625 224.238281 C 127.199219 224.523438 126.757812 224.808594 126.3125 225.09375 C 125.871094 225.378906 125.429688 225.664062 124.984375 225.945312 C 124.539062 226.226562 124.09375 226.507812 123.644531 226.789062 C 123.199219 227.070312 122.75 227.347656 122.300781 227.628906 C 120.503906 228.738281 118.695312 229.835938 116.863281 230.910156 C 115.03125 231.980469 113.183594 233.03125 111.316406 234.054688 C 109.445312 235.078125 107.554688 236.070312 105.644531 237.035156 C 103.734375 238 101.800781 238.925781 99.847656 239.816406 C 98.875 240.265625 97.886719 240.691406 96.902344 241.125 C 96.40625 241.332031 95.910156 241.542969 95.414062 241.753906 C 95.167969 241.859375 94.917969 241.957031 94.667969 242.0625 C 94.417969 242.164062 94.167969 242.261719 93.921875 242.363281 C 93.703125 242.453125 93.488281 242.539062 93.269531 242.628906 C 93.054688 242.714844 92.835938 242.800781 92.617188 242.882812 C 92.398438 242.96875 92.183594 243.054688 91.964844 243.136719 L 91.640625 243.265625 C 91.53125 243.308594 91.421875 243.351562 91.3125 243.390625 C 90.4375 243.714844 89.566406 244.050781 88.6875 244.355469 C 88.46875 244.433594 88.25 244.511719 88.03125 244.589844 L 87.703125 244.707031 L 87.371094 244.820312 C 86.929688 244.96875 86.492188 245.117188 86.050781 245.265625 C 85.941406 245.304688 85.832031 245.339844 85.71875 245.375 L 85.386719 245.484375 C 85.167969 245.554688 84.945312 245.625 84.726562 245.695312 C 84.503906 245.765625 84.285156 245.835938 84.0625 245.910156 L 83.898438 245.960938 L 83.730469 246.011719 L 83.398438 246.113281 C 82.957031 246.246094 82.511719 246.382812 82.070312 246.515625 C 81.957031 246.550781 81.847656 246.582031 81.734375 246.613281 L 81.402344 246.707031 C 81.179688 246.769531 80.957031 246.835938 80.734375 246.898438 C 80.511719 246.960938 80.289062 247.023438 80.066406 247.085938 C 79.84375 247.148438 79.621094 247.207031 79.398438 247.265625 C 78.949219 247.386719 78.503906 247.503906 78.058594 247.621094 C 76.277344 248.078125 74.5 248.472656 72.722656 248.679688 C 71.835938 248.78125 70.953125 248.835938 70.074219 248.828125 C 69.195312 248.820312 68.324219 248.75 67.472656 248.597656 C 67.367188 248.578125 67.257812 248.5625 67.152344 248.539062 L 66.996094 248.507812 L 66.914062 248.492188 L 66.839844 248.472656 C 66.636719 248.425781 66.4375 248.375 66.238281 248.3125 C 66.039062 248.253906 65.84375 248.183594 65.652344 248.109375 C 65.460938 248.035156 65.269531 247.953125 65.085938 247.863281 C 64.898438 247.773438 64.71875 247.683594 64.542969 247.578125 L 64.476562 247.539062 L 64.414062 247.5 L 64.285156 247.421875 C 64.203125 247.363281 64.117188 247.308594 64.039062 247.25 C 63.996094 247.21875 63.957031 247.191406 63.917969 247.160156 L 63.800781 247.074219 C 63.761719 247.042969 63.726562 247.007812 63.6875 246.976562 L 63.632812 246.929688 C 63.613281 246.917969 63.59375 246.898438 63.578125 246.882812 C 63.429688 246.753906 63.296875 246.617188 63.171875 246.476562 C 62.925781 246.195312 62.722656 245.886719 62.582031 245.566406 C 62.511719 245.40625 62.460938 245.242188 62.417969 245.074219 C 62.375 244.90625 62.355469 244.738281 62.34375 244.5625 C 62.328125 244.21875 62.371094 243.863281 62.46875 243.503906 C 62.570312 243.144531 62.726562 242.78125 62.914062 242.425781 C 63.105469 242.066406 63.332031 241.710938 63.582031 241.355469 C 63.703125 241.179688 63.832031 241.003906 63.964844 240.824219 C 64.03125 240.738281 64.097656 240.648438 64.167969 240.558594 L 64.367188 240.300781 C 64.640625 239.953125 64.921875 239.613281 65.210938 239.277344 C 65.503906 238.941406 65.800781 238.609375 66.101562 238.277344 C 66.707031 237.621094 67.332031 236.976562 67.96875 236.339844 C 68.601562 235.703125 69.25 235.074219 69.898438 234.449219 C 71.199219 233.195312 72.515625 231.953125 73.808594 230.683594 C 75.105469 229.414062 76.382812 228.125 77.605469 226.777344 C 78.214844 226.101562 78.8125 225.414062 79.386719 224.707031 C 79.53125 224.527344 79.675781 224.351562 79.816406 224.171875 L 80.027344 223.902344 L 80.234375 223.628906 C 80.375 223.445312 80.507812 223.261719 80.644531 223.078125 C 80.710938 222.984375 80.777344 222.890625 80.84375 222.796875 C 80.910156 222.703125 80.976562 222.613281 81.039062 222.515625 L 81.234375 222.230469 C 81.300781 222.136719 81.363281 222.039062 81.425781 221.945312 C 81.554688 221.753906 81.675781 221.558594 81.800781 221.363281 C 82.039062 220.972656 82.277344 220.574219 82.496094 220.167969 C 82.609375 219.964844 82.714844 219.757812 82.820312 219.554688 C 82.871094 219.449219 82.921875 219.34375 82.972656 219.238281 L 83.121094 218.925781 L 83.265625 218.605469 L 83.398438 218.285156 C 83.445312 218.175781 83.488281 218.066406 83.527344 217.960938 L 83.59375 217.796875 C 83.613281 217.742188 83.632812 217.6875 83.652344 217.632812 L 83.769531 217.300781 C 83.789062 217.246094 83.808594 217.191406 83.824219 217.132812 L 83.878906 216.964844 L 83.929688 216.800781 C 83.949219 216.742188 83.964844 216.6875 83.980469 216.628906 C 84.011719 216.515625 84.042969 216.402344 84.074219 216.289062 C 84.191406 215.832031 84.285156 215.371094 84.359375 214.902344 C 84.425781 214.433594 84.472656 213.960938 84.484375 213.484375 C 84.496094 213.003906 84.476562 212.523438 84.417969 212.042969 C 84.304688 211.085938 84.023438 210.132812 83.589844 209.261719 C 83.371094 208.828125 83.117188 208.410156 82.828125 208.023438 C 82.539062 207.632812 82.21875 207.273438 81.875 206.941406 C 81.1875 206.273438 80.410156 205.726562 79.59375 205.273438 C 78.777344 204.824219 77.921875 204.46875 77.050781 204.191406 C 76.613281 204.054688 76.171875 203.933594 75.730469 203.832031 C 75.507812 203.78125 75.285156 203.738281 75.0625 203.691406 L 74.726562 203.628906 C 74.617188 203.609375 74.503906 203.597656 74.394531 203.578125 C 73.945312 203.507812 73.496094 203.457031 73.046875 203.417969 C 72.597656 203.382812 72.148438 203.363281 71.699219 203.355469 C 71.25 203.34375 70.800781 203.355469 70.355469 203.375 C 69.90625 203.398438 69.457031 203.4375 69.011719 203.492188 C 68.121094 203.601562 67.234375 203.765625 66.367188 204.011719 L 66.042969 204.109375 C 65.933594 204.140625 65.824219 204.179688 65.71875 204.214844 C 65.664062 204.230469 65.613281 204.25 65.5625 204.265625 L 65.40625 204.320312 L 65.097656 204.429688 L 64.941406 204.484375 L 64.789062 204.539062 L 64.480469 204.65625 C 64.378906 204.691406 64.277344 204.730469 64.175781 204.769531 L 63.871094 204.886719 C 63.058594 205.207031 62.257812 205.542969 61.46875 205.90625 C 60.679688 206.265625 59.902344 206.644531 59.132812 207.035156 C 58.941406 207.136719 58.75 207.230469 58.558594 207.332031 C 58.371094 207.433594 58.179688 207.535156 57.988281 207.632812 C 57.800781 207.738281 57.613281 207.839844 57.421875 207.941406 C 57.234375 208.042969 57.046875 208.148438 56.859375 208.253906 C 56.113281 208.671875 55.371094 209.101562 54.640625 209.535156 C 53.90625 209.972656 53.179688 210.414062 52.460938 210.863281 C 51.023438 211.757812 49.605469 212.671875 48.191406 213.578125 C 47.484375 214.03125 46.78125 214.480469 46.078125 214.925781 C 45.726562 215.148438 45.371094 215.371094 45.019531 215.59375 C 44.667969 215.816406 44.3125 216.035156 43.960938 216.253906 C 43.253906 216.695312 42.546875 217.140625 41.84375 217.582031 C 41.140625 218.027344 40.441406 218.472656 39.742188 218.917969 C 36.957031 220.707031 34.214844 222.519531 31.519531 224.359375 C 30.847656 224.816406 30.171875 225.273438 29.507812 225.742188 C 29.171875 225.972656 28.839844 226.203125 28.507812 226.433594 C 28.175781 226.667969 27.839844 226.894531 27.511719 227.128906 C 26.851562 227.597656 26.191406 228.066406 25.535156 228.527344 C 24.878906 229 24.226562 229.472656 23.578125 229.9375 C 18.382812 233.710938 13.375 237.558594 8.582031 241.496094 C 19.328125 233.09375 31.109375 225.003906 43.796875 217.367188 C 44.195312 217.128906 44.589844 216.890625 44.988281 216.652344 C 45.390625 216.414062 45.785156 216.171875 46.183594 215.929688 C 46.980469 215.445312 47.777344 214.953125 48.570312 214.460938 C 50.160156 213.476562 51.753906 212.484375 53.371094 211.519531 C 54.984375 210.554688 56.621094 209.617188 58.296875 208.742188 C 59.972656 207.867188 61.6875 207.058594 63.449219 206.351562 C 63.890625 206.175781 64.335938 206.007812 64.78125 205.84375 L 65.117188 205.726562 C 65.226562 205.6875 65.339844 205.644531 65.453125 205.609375 L 65.789062 205.496094 L 65.960938 205.4375 C 66.015625 205.417969 66.070312 205.402344 66.125 205.382812 C 67.007812 205.105469 67.925781 204.914062 68.855469 204.800781 C 69.785156 204.683594 70.726562 204.640625 71.667969 204.667969 C 72.609375 204.695312 73.550781 204.789062 74.480469 204.960938 C 75.40625 205.128906 76.320312 205.375 77.195312 205.703125 C 78.070312 206.035156 78.910156 206.453125 79.667969 206.976562 C 80.425781 207.5 81.101562 208.125 81.636719 208.855469 C 81.90625 209.21875 82.136719 209.605469 82.324219 210.011719 C 82.515625 210.421875 82.664062 210.847656 82.769531 211.285156 C 82.878906 211.722656 82.945312 212.175781 82.96875 212.632812 C 82.996094 213.085938 82.984375 213.546875 82.9375 214.007812 C 82.894531 214.472656 82.820312 214.9375 82.714844 215.394531 C 82.609375 215.851562 82.480469 216.304688 82.328125 216.753906 C 82.167969 217.199219 81.992188 217.640625 81.792969 218.078125 L 81.640625 218.40625 L 81.480469 218.726562 C 81.429688 218.835938 81.371094 218.941406 81.316406 219.050781 L 81.230469 219.207031 C 81.203125 219.261719 81.171875 219.3125 81.144531 219.367188 C 80.910156 219.789062 80.660156 220.203125 80.394531 220.613281 C 80.136719 221.023438 79.859375 221.425781 79.570312 221.824219 C 78.425781 223.414062 77.117188 224.914062 75.742188 226.363281 C 74.363281 227.8125 72.914062 229.214844 71.441406 230.613281 C 69.96875 232.011719 68.472656 233.402344 66.996094 234.847656 C 66.628906 235.210938 66.261719 235.574219 65.898438 235.945312 C 65.535156 236.3125 65.171875 236.691406 64.816406 237.070312 C 64.460938 237.453125 64.109375 237.84375 63.761719 238.242188 C 63.417969 238.640625 63.082031 239.050781 62.753906 239.472656 C 62.433594 239.886719 62.113281 240.320312 61.808594 240.78125 C 61.507812 241.242188 61.222656 241.734375 60.996094 242.277344 C 60.878906 242.546875 60.78125 242.832031 60.703125 243.125 C 60.664062 243.273438 60.632812 243.425781 60.605469 243.578125 C 60.578125 243.730469 60.554688 243.886719 60.542969 244.042969 C 60.53125 244.199219 60.527344 244.359375 60.527344 244.515625 C 60.53125 244.597656 60.535156 244.675781 60.539062 244.753906 L 60.5625 244.992188 C 60.601562 245.308594 60.671875 245.621094 60.773438 245.925781 L 60.8125 246.039062 C 60.828125 246.074219 60.839844 246.113281 60.855469 246.148438 L 60.945312 246.367188 L 61.050781 246.582031 C 61.085938 246.652344 61.125 246.71875 61.164062 246.789062 C 61.316406 247.058594 61.496094 247.316406 61.6875 247.550781 C 61.882812 247.789062 62.09375 248.003906 62.3125 248.207031 C 62.53125 248.40625 62.761719 248.59375 63 248.761719 C 63.238281 248.933594 63.484375 249.089844 63.734375 249.234375 C 63.984375 249.375 64.242188 249.503906 64.503906 249.625 C 65.023438 249.859375 65.5625 250.054688 66.113281 250.199219 C 66.253906 250.234375 66.390625 250.269531 66.53125 250.300781 C 66.667969 250.328125 66.800781 250.359375 66.9375 250.386719 C 67.074219 250.410156 67.210938 250.4375 67.34375 250.457031 L 67.652344 250.507812 L 67.753906 250.523438 C 68.300781 250.601562 68.851562 250.648438 69.398438 250.675781 C 70.496094 250.726562 71.59375 250.683594 72.671875 250.570312 C 73.753906 250.460938 74.820312 250.285156 75.875 250.070312 C 76.398438 249.964844 76.921875 249.847656 77.445312 249.726562 C 77.964844 249.601562 78.484375 249.472656 78.996094 249.335938 C 79.507812 249.203125 80.023438 249.066406 80.539062 248.929688 C 81.050781 248.785156 81.5625 248.644531 82.074219 248.496094 L 82.460938 248.390625 C 82.589844 248.351562 82.714844 248.3125 82.84375 248.273438 C 83.097656 248.199219 83.355469 248.121094 83.609375 248.046875 C 83.863281 247.96875 84.121094 247.890625 84.375 247.816406 C 84.632812 247.738281 84.886719 247.652344 85.140625 247.574219 C 85.394531 247.492188 85.648438 247.410156 85.902344 247.332031 C 86.160156 247.25 86.414062 247.167969 86.664062 247.082031 C 87.171875 246.914062 87.679688 246.742188 88.1875 246.570312 C 88.3125 246.527344 88.441406 246.484375 88.566406 246.441406 L 88.945312 246.304688 C 89.195312 246.214844 89.449219 246.125 89.703125 246.039062 C 90.207031 245.859375 90.710938 245.671875 91.214844 245.484375 C 91.464844 245.390625 91.714844 245.296875 91.96875 245.203125 C 92.09375 245.160156 92.21875 245.109375 92.34375 245.0625 L 92.71875 244.914062 C 92.96875 244.820312 93.21875 244.71875 93.472656 244.625 L 94.222656 244.328125 C 94.71875 244.128906 95.21875 243.921875 95.714844 243.722656 L 95.902344 243.648438 L 96.089844 243.566406 L 96.460938 243.410156 C 96.710938 243.308594 96.957031 243.203125 97.207031 243.09375 L 97.765625 242.859375 L 97.949219 242.78125 C 98.195312 242.671875 98.441406 242.5625 98.691406 242.457031 C 98.9375 242.347656 99.183594 242.238281 99.433594 242.128906 L 99.617188 242.050781 L 99.800781 241.964844 L 100.171875 241.796875 C 100.414062 241.6875 100.660156 241.574219 100.90625 241.460938 L 101.277344 241.292969 L 101.460938 241.210938 L 101.644531 241.125 C 102.132812 240.894531 102.621094 240.664062 103.113281 240.4375 C 105.066406 239.503906 107.003906 238.535156 108.929688 237.527344 C 109.410156 237.277344 109.890625 237.023438 110.371094 236.765625 C 110.613281 236.640625 110.847656 236.511719 111.089844 236.378906 C 111.328125 236.253906 111.566406 236.121094 111.808594 235.992188 C 112.042969 235.859375 112.285156 235.734375 112.523438 235.601562 C 112.761719 235.46875 113 235.335938 113.238281 235.203125 C 113.710938 234.941406 114.191406 234.675781 114.664062 234.40625 C 115.074219 234.171875 115.484375 233.9375 115.894531 233.707031 C 116.304688 233.464844 116.710938 233.230469 117.121094 232.992188 L 117.730469 232.636719 L 118.339844 232.277344 C 118.746094 232.035156 119.152344 231.792969 119.554688 231.554688 C 120.359375 231.066406 121.167969 230.582031 121.96875 230.085938 C 122.367188 229.839844 122.769531 229.59375 123.164062 229.347656 C 123.5625 229.097656 123.960938 228.847656 124.359375 228.601562 C 124.753906 228.351562 125.148438 228.097656 125.546875 227.847656 L 126.136719 227.472656 L 126.433594 227.28125 L 126.726562 227.089844 C 127.121094 226.835938 127.511719 226.582031 127.90625 226.328125 C 128.101562 226.203125 128.296875 226.074219 128.492188 225.949219 C 128.6875 225.820312 128.882812 225.691406 129.078125 225.5625 C 129.859375 225.050781 130.636719 224.535156 131.410156 224.019531 C 131.800781 223.761719 132.183594 223.5 132.570312 223.242188 C 132.957031 222.980469 133.34375 222.722656 133.726562 222.460938 C 134.109375 222.199219 134.492188 221.941406 134.878906 221.679688 C 135.257812 221.417969 135.640625 221.152344 136.023438 220.890625 C 136.789062 220.367188 137.546875 219.839844 138.308594 219.3125 C 139.824219 218.253906 141.335938 217.195312 142.832031 216.125 C 145.832031 213.996094 148.800781 211.847656 151.75 209.707031 C 157.644531 205.425781 163.457031 201.160156 169.273438 197.042969 C 175.089844 192.921875 180.910156 188.953125 186.808594 185.261719 C 187.179688 185.035156 187.546875 184.804688 187.917969 184.574219 C 188.101562 184.460938 188.285156 184.34375 188.472656 184.230469 C 188.65625 184.117188 188.839844 184.007812 189.027344 183.890625 C 189.394531 183.667969 189.765625 183.441406 190.132812 183.21875 C 190.503906 182.992188 190.875 182.777344 191.246094 182.554688 C 192.730469 181.675781 194.226562 180.828125 195.734375 180.011719 C 198.75 178.382812 201.8125 176.886719 204.917969 175.558594 C 208.027344 174.230469 211.183594 173.074219 214.378906 172.132812 C 217.570312 171.199219 220.808594 170.484375 224.0625 170.050781 C 225.6875 169.832031 227.316406 169.683594 228.941406 169.617188 L 229.09375 169.613281 L 229.246094 169.605469 L 229.550781 169.597656 C 229.753906 169.59375 229.957031 169.585938 230.160156 169.582031 C 230.359375 169.578125 230.566406 169.582031 230.769531 169.578125 C 230.972656 169.578125 231.175781 169.578125 231.375 169.578125 C 231.578125 169.582031 231.78125 169.582031 231.984375 169.585938 L 232.285156 169.59375 C 232.386719 169.597656 232.488281 169.597656 232.589844 169.601562 C 232.792969 169.613281 232.996094 169.621094 233.195312 169.628906 C 233.398438 169.636719 233.601562 169.644531 233.800781 169.660156 C 237.023438 169.851562 240.203125 170.386719 243.261719 171.277344 C 244.789062 171.71875 246.285156 172.25 247.742188 172.859375 C 249.199219 173.472656 250.613281 174.164062 251.984375 174.929688 C 254.726562 176.457031 257.273438 178.273438 259.621094 180.28125 C 257.09375 178.011719 254.304688 175.957031 251.253906 174.261719 " fill-opacity="1" fill-rule="nonzero"/></g><path fill="#4f45e4" d="M 113.800781 103.035156 C 113.800781 103.035156 96.46875 114.734375 79.992188 103.238281 C 79.992188 103.238281 100.277344 104.429688 113.800781 103.035156 Z M 96.695312 128.757812 C 96.292969 128.957031 95.710938 129.234375 94.96875 129.558594 C 94.226562 129.882812 93.332031 130.253906 92.308594 130.640625 C 92.054688 130.734375 91.792969 130.832031 91.523438 130.933594 C 91.253906 131.035156 90.980469 131.132812 90.699219 131.234375 C 90.136719 131.4375 89.542969 131.636719 88.929688 131.832031 C 87.699219 132.222656 86.371094 132.589844 84.980469 132.902344 C 84.804688 132.9375 84.628906 132.972656 84.453125 133.011719 C 84.28125 133.050781 84.105469 133.085938 83.929688 133.125 C 83.578125 133.199219 83.222656 133.265625 82.863281 133.328125 C 82.144531 133.457031 81.414062 133.5625 80.675781 133.648438 C 79.199219 133.8125 77.6875 133.878906 76.171875 133.804688 C 74.660156 133.734375 73.140625 133.515625 71.667969 133.121094 C 71.933594 133.058594 72.199219 132.996094 72.472656 132.9375 L 73.28125 132.757812 L 74.898438 132.40625 C 75.976562 132.175781 77.050781 131.949219 78.121094 131.726562 C 79.191406 131.503906 80.257812 131.28125 81.328125 131.070312 C 82.402344 130.867188 83.476562 130.667969 84.546875 130.472656 C 85.617188 130.277344 86.6875 130.085938 87.75 129.902344 L 89.34375 129.628906 C 89.605469 129.582031 89.875 129.539062 90.144531 129.496094 L 90.945312 129.371094 C 93.082031 129.042969 95.203125 128.734375 97.308594 128.445312 C 97.308594 128.445312 97.09375 128.5625 96.695312 128.757812 Z M 8.921875 229.550781 C 8.5625 230.105469 7.824219 230.402344 7.109375 230.277344 C 5.933594 230.074219 5.335938 228.933594 5.925781 228.019531 C 6.285156 227.464844 7.023438 227.171875 7.738281 227.292969 C 8.914062 227.496094 9.511719 228.636719 8.921875 229.550781 Z M 160.792969 35.753906 C 160.761719 35.597656 160.6875 35.4375 160.566406 35.289062 C 160.445312 35.144531 160.277344 35.007812 160.070312 34.898438 C 158.828125 34.261719 157.535156 33.703125 156.199219 33.210938 L 155.949219 33.113281 C 155.867188 33.082031 155.773438 33.054688 155.6875 33.023438 L 155.160156 32.847656 L 154.628906 32.675781 C 154.535156 32.648438 154.453125 32.621094 154.363281 32.59375 L 154.105469 32.515625 C 153.753906 32.410156 153.40625 32.304688 153.050781 32.203125 C 152.703125 32.105469 152.359375 32.015625 152.011719 31.921875 C 149.230469 31.191406 146.46875 30.699219 143.714844 30.402344 C 140.964844 30.109375 138.222656 30.007812 135.5 30.066406 C 134.824219 30.085938 134.140625 30.109375 133.460938 30.140625 C 132.789062 30.183594 132.117188 30.230469 131.441406 30.285156 C 130.757812 30.332031 130.101562 30.40625 129.429688 30.480469 L 128.429688 30.597656 L 127.925781 30.660156 L 127.429688 30.730469 C 127.429688 30.730469 127.148438 30.761719 126.609375 30.851562 C 126.339844 30.902344 126.007812 30.960938 125.613281 31.042969 C 125.417969 31.085938 125.203125 31.132812 124.980469 31.183594 C 124.757812 31.238281 124.523438 31.300781 124.273438 31.367188 C 123.28125 31.640625 122.050781 32.007812 120.699219 32.550781 C 120.359375 32.683594 120.007812 32.828125 119.644531 32.980469 C 119.464844 33.058594 119.28125 33.136719 119.09375 33.214844 C 118.914062 33.300781 118.730469 33.386719 118.542969 33.476562 C 117.796875 33.832031 117.015625 34.226562 116.199219 34.664062 C 115.40625 35.117188 114.585938 35.609375 113.738281 36.152344 C 113.308594 36.421875 112.898438 36.714844 112.472656 37.015625 C 112.050781 37.316406 111.625 37.632812 111.191406 37.957031 C 110.976562 38.121094 110.761719 38.285156 110.542969 38.457031 C 110.332031 38.628906 110.117188 38.804688 109.90625 38.984375 C 109.480469 39.34375 109.054688 39.714844 108.625 40.097656 C 108.410156 40.292969 108.191406 40.488281 107.976562 40.683594 C 107.925781 40.734375 107.871094 40.785156 107.816406 40.835938 C 107.761719 40.886719 107.710938 40.9375 107.660156 40.988281 C 107.554688 41.09375 107.449219 41.195312 107.34375 41.300781 C 106.925781 41.71875 106.507812 42.148438 106.085938 42.589844 C 105.234375 43.472656 104.441406 44.4375 103.640625 45.449219 C 103.441406 45.699219 103.242188 45.953125 103.042969 46.214844 C 102.945312 46.34375 102.84375 46.472656 102.746094 46.605469 C 102.652344 46.742188 102.558594 46.875 102.460938 47.007812 C 102.082031 47.546875 101.707031 48.101562 101.339844 48.667969 C 101.152344 48.949219 100.96875 49.238281 100.785156 49.527344 C 100.695312 49.671875 100.601562 49.820312 100.515625 49.96875 C 100.429688 50.117188 100.339844 50.265625 100.253906 50.414062 C 99.910156 51.015625 99.566406 51.632812 99.234375 52.261719 C 99.070312 52.574219 98.902344 52.890625 98.742188 53.214844 C 98.660156 53.375 98.578125 53.535156 98.5 53.695312 C 98.425781 53.863281 98.347656 54.027344 98.269531 54.191406 C 97.96875 54.855469 97.671875 55.53125 97.386719 56.222656 C 97.386719 56.222656 97.292969 55.972656 97.285156 55.359375 C 97.285156 55.050781 97.300781 54.652344 97.367188 54.148438 C 97.398438 53.894531 97.441406 53.617188 97.5 53.304688 C 97.527344 53.152344 97.5625 52.988281 97.597656 52.820312 C 97.617188 52.738281 97.636719 52.648438 97.65625 52.5625 C 97.675781 52.472656 97.699219 52.382812 97.722656 52.292969 C 97.917969 51.5625 98.1875 50.710938 98.558594 49.71875 C 98.742188 49.21875 98.957031 48.6875 99.195312 48.121094 C 99.453125 47.558594 99.738281 46.957031 100.058594 46.320312 C 100.378906 45.679688 100.734375 45 101.128906 44.28125 C 101.542969 43.570312 102 42.820312 102.5 42.023438 C 102.753906 41.628906 103.015625 41.21875 103.289062 40.800781 C 103.574219 40.382812 103.875 39.960938 104.1875 39.527344 C 104.5 39.089844 104.828125 38.644531 105.167969 38.183594 C 105.339844 37.957031 105.511719 37.726562 105.691406 37.488281 C 105.878906 37.257812 106.066406 37.023438 106.257812 36.785156 L 105.570312 37.078125 C 105.457031 37.128906 105.34375 37.179688 105.234375 37.230469 L 104.898438 37.382812 L 103.5625 38 L 102.226562 38.632812 C 102.003906 38.734375 101.785156 38.847656 101.570312 38.957031 L 100.921875 39.289062 L 99.621094 39.957031 L 98.972656 40.296875 L 98.648438 40.464844 C 98.542969 40.523438 98.433594 40.582031 98.328125 40.640625 C 97.488281 41.105469 96.648438 41.582031 95.8125 42.0625 L 95.183594 42.421875 L 94.867188 42.605469 L 94.5625 42.789062 L 93.34375 43.539062 L 92.128906 44.300781 C 91.722656 44.554688 91.3125 44.8125 90.925781 45.070312 C 90.140625 45.597656 89.355469 46.125 88.574219 46.660156 L 87.988281 47.0625 L 87.695312 47.265625 L 87.414062 47.46875 L 86.277344 48.292969 C 80.226562 52.714844 74.753906 57.589844 69.820312 62.707031 C 69.71875 62.8125 69.621094 62.917969 69.519531 63.023438 L 69.226562 63.34375 C 69.03125 63.558594 68.839844 63.777344 68.648438 63.996094 C 68.269531 64.429688 67.898438 64.875 67.539062 65.328125 C 67.175781 65.773438 66.824219 66.230469 66.484375 66.695312 C 66.398438 66.808594 66.316406 66.925781 66.234375 67.042969 L 65.996094 67.394531 C 65.835938 67.628906 65.679688 67.867188 65.523438 68.105469 C 64.90625 69.054688 64.332031 70.027344 63.796875 71.015625 L 63.601562 71.390625 C 63.535156 71.511719 63.472656 71.640625 63.414062 71.765625 C 63.292969 72.011719 63.171875 72.265625 63.054688 72.519531 C 62.824219 73.023438 62.601562 73.53125 62.390625 74.042969 C 62.179688 74.554688 61.980469 75.070312 61.792969 75.585938 C 61.699219 75.84375 61.605469 76.101562 61.519531 76.363281 C 61.476562 76.492188 61.429688 76.621094 61.390625 76.75 L 61.273438 77.144531 C 60.964844 78.191406 60.703125 79.25 60.488281 80.308594 C 60.382812 80.839844 60.285156 81.371094 60.203125 81.902344 C 60.164062 82.167969 60.125 82.433594 60.089844 82.699219 C 60.054688 82.964844 60.03125 83.234375 60.003906 83.5 C 59.90625 84.570312 59.859375 85.640625 59.859375 86.707031 C 59.863281 87.355469 59.871094 87.992188 59.890625 88.613281 C 59.902344 88.921875 59.914062 89.230469 59.929688 89.53125 C 59.933594 89.609375 59.9375 89.683594 59.941406 89.757812 C 59.945312 89.835938 59.953125 89.910156 59.957031 89.984375 C 59.96875 90.132812 59.980469 90.28125 59.992188 90.429688 C 60.089844 91.609375 60.226562 92.714844 60.410156 93.710938 C 60.777344 95.707031 61.328125 97.285156 62.097656 98.21875 C 62.097656 98.21875 61.871094 98.109375 61.460938 97.710938 C 61.054688 97.3125 60.46875 96.628906 59.757812 95.472656 C 59.046875 94.320312 58.214844 92.695312 57.324219 90.402344 C 57.105469 89.828125 56.878906 89.214844 56.652344 88.550781 C 56.425781 87.890625 56.191406 87.179688 55.972656 86.425781 C 55.535156 84.917969 55.097656 83.214844 54.675781 81.28125 C 48.976562 89.503906 44.238281 97.890625 40.28125 106.140625 C 36.320312 114.390625 33.140625 122.503906 30.535156 130.246094 C 30.316406 130.898438 30.113281 131.554688 29.925781 132.210938 C 29.742188 132.871094 29.566406 133.53125 29.429688 134.199219 C 29.148438 135.53125 28.933594 136.878906 28.789062 138.222656 C 28.714844 138.894531 28.660156 139.570312 28.625 140.246094 C 28.605469 140.582031 28.59375 140.921875 28.582031 141.257812 C 28.578125 141.425781 28.570312 141.59375 28.570312 141.761719 L 28.574219 142.269531 C 28.589844 143.621094 28.671875 144.972656 28.832031 146.3125 C 28.953125 147.363281 29.09375 148.390625 29.253906 149.363281 C 29.335938 149.851562 29.417969 150.324219 29.511719 150.78125 C 29.601562 151.238281 29.703125 151.683594 29.808594 152.105469 C 30.230469 153.800781 30.730469 155.191406 31.320312 156.085938 C 31.320312 156.085938 30.667969 155.238281 29.628906 153.644531 C 29.109375 152.847656 28.492188 151.863281 27.8125 150.703125 C 27.640625 150.414062 27.46875 150.113281 27.292969 149.800781 C 27.117188 149.492188 26.941406 149.171875 26.761719 148.835938 C 26.402344 148.171875 26.03125 147.464844 25.652344 146.714844 C 25.109375 148.746094 24.652344 150.742188 24.199219 152.6875 C 23.972656 153.660156 23.757812 154.621094 23.542969 155.566406 C 23.4375 156.042969 23.335938 156.515625 23.230469 156.980469 C 23.136719 157.449219 23.039062 157.917969 22.945312 158.378906 C 22.570312 160.230469 22.21875 162.03125 21.890625 163.773438 C 21.808594 164.210938 21.726562 164.640625 21.648438 165.070312 C 21.628906 165.179688 21.609375 165.285156 21.585938 165.390625 C 21.570312 165.5 21.550781 165.605469 21.53125 165.710938 C 21.496094 165.925781 21.460938 166.136719 21.425781 166.351562 C 21.28125 167.195312 21.144531 168.027344 21.011719 168.84375 C 20.746094 170.476562 20.5 172.050781 20.273438 173.5625 C 20.246094 173.75 20.21875 173.9375 20.1875 174.125 C 20.164062 174.3125 20.136719 174.5 20.113281 174.683594 C 20.0625 175.054688 20.015625 175.421875 19.964844 175.785156 C 19.871094 176.507812 19.78125 177.21875 19.691406 177.910156 C 19.515625 179.296875 19.359375 180.613281 19.214844 181.859375 C 19.179688 182.171875 19.144531 182.480469 19.109375 182.78125 C 19.074219 183.085938 19.039062 183.382812 19.015625 183.679688 C 18.957031 184.269531 18.902344 184.839844 18.851562 185.394531 C 18.84375 185.488281 18.820312 185.578125 18.785156 185.667969 L 17.25 189.621094 L 16.484375 191.601562 L 16.292969 192.09375 L 16.105469 192.589844 L 14.25 197.550781 L 13.511719 199.535156 L 13.140625 200.527344 L 12.957031 201.023438 L 12.777344 201.519531 L 11.179688 205.964844 L 11.253906 205.996094 C 11.046875 206.5625 10.839844 207.132812 10.628906 207.707031 C 9.949219 209.597656 9.292969 211.46875 8.664062 213.316406 C 8.507812 213.78125 8.351562 214.242188 8.195312 214.699219 C 8.046875 215.160156 7.902344 215.621094 7.753906 216.078125 C 7.460938 216.992188 7.175781 217.898438 6.898438 218.800781 C 6.671875 219.53125 6.453125 220.253906 6.238281 220.976562 L 0.175781 238.652344 C 0.0390625 239.046875 0.621094 239.320312 0.914062 239.003906 C 4.257812 235.371094 11.0625 230.933594 12.980469 229.714844 C 13.207031 229.570312 13.171875 229.269531 12.921875 229.15625 C 11.230469 228.394531 9.929688 227.199219 8.945312 225.945312 C 11.15625 219.648438 13.351562 213.589844 15.523438 207.757812 L 15.566406 207.773438 L 17.085938 203.648438 C 17.464844 202.605469 17.867188 201.574219 18.261719 200.535156 L 19.449219 197.429688 L 20.636719 194.320312 C 20.832031 193.800781 21.042969 193.289062 21.246094 192.769531 L 21.859375 191.222656 L 23.085938 188.125 L 23.703125 186.582031 L 24.160156 185.417969 L 24.320312 185.035156 L 26.859375 178.867188 L 27.496094 177.328125 L 28.148438 175.792969 L 29.464844 172.722656 L 30.777344 169.652344 C 30.882812 169.398438 31 169.144531 31.113281 168.886719 L 31.453125 168.125 L 32.132812 166.597656 L 33.488281 163.542969 L 34.167969 162.015625 C 34.398438 161.507812 34.632812 161.003906 34.867188 160.496094 L 37.679688 154.421875 L 40.582031 148.375 C 44.507812 140.335938 48.660156 132.378906 53.101562 124.539062 C 54.1875 122.570312 55.351562 120.636719 56.488281 118.6875 L 57.34375 117.226562 L 57.449219 117.042969 L 57.5625 116.863281 L 57.78125 116.5 L 58.222656 115.777344 L 59.992188 112.882812 L 60.433594 112.160156 C 60.582031 111.917969 60.726562 111.675781 60.882812 111.4375 L 61.796875 110.003906 L 63.625 107.132812 L 63.851562 106.777344 L 63.964844 106.59375 L 64.085938 106.417969 L 64.554688 105.707031 L 65.5 104.289062 L 66.445312 102.867188 L 66.917969 102.160156 L 67.152344 101.804688 C 67.230469 101.683594 67.3125 101.570312 67.394531 101.449219 L 69.34375 98.640625 L 70.320312 97.234375 C 70.652344 96.769531 70.988281 96.308594 71.324219 95.84375 L 73.339844 93.066406 L 73.589844 92.722656 L 73.851562 92.378906 L 74.371094 91.691406 L 76.449219 88.949219 L 76.710938 88.605469 C 76.796875 88.492188 76.890625 88.382812 76.976562 88.269531 L 77.515625 87.59375 L 79.664062 84.882812 C 79.753906 84.773438 79.839844 84.660156 79.933594 84.546875 L 80.210938 84.214844 L 80.765625 83.546875 L 81.871094 82.214844 L 82.980469 80.882812 L 85.269531 78.257812 L 85.84375 77.601562 C 85.9375 77.492188 86.03125 77.382812 86.128906 77.273438 L 86.425781 76.949219 L 88.785156 74.375 L 89.082031 74.050781 C 89.179688 73.941406 89.28125 73.839844 89.382812 73.734375 L 89.992188 73.101562 L 91.820312 71.199219 L 92.125 70.886719 C 92.226562 70.78125 92.332031 70.679688 92.4375 70.574219 L 93.691406 69.335938 C 97.042969 66.027344 100.558594 62.835938 104.289062 59.816406 L 104.042969 60.019531 C 103.960938 60.085938 103.878906 60.152344 103.800781 60.222656 L 103.324219 60.636719 L 102.371094 61.46875 L 101.414062 62.300781 L 101.175781 62.507812 L 100.941406 62.71875 L 100.480469 63.144531 L 98.628906 64.847656 L 98.167969 65.273438 L 97.71875 65.707031 L 96.824219 66.578125 L 95.925781 67.449219 L 95.480469 67.886719 C 95.40625 67.960938 95.328125 68.03125 95.257812 68.105469 L 95.039062 68.328125 L 93.300781 70.105469 L 92.433594 70.996094 C 92.148438 71.296875 91.871094 71.601562 91.589844 71.902344 L 89.910156 73.714844 C 85.464844 78.582031 81.347656 83.640625 77.476562 88.820312 C 73.605469 94.007812 69.984375 99.316406 66.542969 104.707031 L 65.253906 106.726562 L 64.933594 107.230469 L 64.621094 107.742188 L 64 108.761719 L 62.753906 110.804688 L 62.128906 111.824219 L 61.820312 112.332031 L 61.515625 112.847656 L 59.109375 116.964844 L 58.808594 117.480469 L 58.511719 117.996094 L 57.929688 119.035156 L 56.765625 121.109375 L 55.605469 123.183594 C 55.507812 123.355469 55.414062 123.53125 55.320312 123.707031 L 55.039062 124.226562 L 54.476562 125.273438 C 53.730469 126.667969 52.976562 128.058594 52.234375 129.453125 L 50.058594 133.664062 L 49.519531 134.71875 C 49.339844 135.070312 49.152344 135.417969 48.980469 135.773438 L 47.933594 137.890625 L 46.882812 140.011719 L 46.359375 141.070312 L 46.097656 141.597656 L 45.964844 141.863281 L 45.839844 142.128906 L 43.8125 146.390625 L 42.800781 148.523438 L 41.820312 150.664062 L 39.863281 154.949219 L 39.621094 155.484375 C 39.539062 155.664062 39.460938 155.847656 39.382812 156.023438 L 38.910156 157.101562 L 37.023438 161.410156 C 36.707031 162.128906 36.386719 162.84375 36.085938 163.566406 L 34.261719 167.898438 L 33.351562 170.0625 C 33.199219 170.421875 33.054688 170.785156 32.90625 171.144531 L 32.464844 172.234375 L 30.707031 176.582031 L 30.265625 177.667969 L 30.046875 178.210938 L 29.832031 178.757812 L 28.980469 180.941406 L 27.28125 185.308594 L 26.855469 186.398438 L 26.445312 187.496094 L 25.625 189.6875 C 25.277344 190.621094 26.363281 191.472656 27.21875 190.9375 C 28.527344 190.121094 29.8125 189.300781 31.078125 188.488281 C 31.71875 188.082031 32.351562 187.679688 32.984375 187.277344 C 33.613281 186.875 34.238281 186.472656 34.859375 186.074219 C 36.101562 185.273438 37.324219 184.472656 38.527344 183.675781 C 39.125 183.277344 39.722656 182.878906 40.316406 182.484375 C 40.910156 182.089844 41.503906 181.699219 42.09375 181.308594 C 43.273438 180.523438 44.429688 179.742188 45.570312 178.960938 C 46.136719 178.570312 46.703125 178.183594 47.261719 177.796875 C 47.824219 177.40625 48.375 177.015625 48.933594 176.636719 C 51.164062 175.101562 53.320312 173.578125 55.402344 172.058594 C 63.777344 166.023438 71.167969 160.234375 77.703125 154.660156 C 75.734375 154.84375 73.941406 154.980469 72.3125 155.078125 C 70.691406 155.183594 69.230469 155.246094 67.921875 155.273438 C 65.300781 155.328125 63.277344 155.238281 61.75 155.089844 C 60.21875 154.941406 59.183594 154.734375 58.53125 154.5625 C 57.875 154.390625 57.605469 154.253906 57.605469 154.253906 C 60.570312 155.210938 63.953125 155.007812 67.355469 154.207031 C 67.78125 154.101562 68.207031 153.996094 68.632812 153.875 C 68.84375 153.8125 69.058594 153.753906 69.269531 153.691406 C 69.484375 153.628906 69.699219 153.5625 69.914062 153.496094 C 70.769531 153.234375 71.621094 152.9375 72.460938 152.625 C 74.144531 151.992188 75.789062 151.273438 77.34375 150.527344 C 77.734375 150.339844 78.121094 150.152344 78.503906 149.96875 C 78.886719 149.785156 79.261719 149.597656 79.632812 149.410156 C 80.371094 149.039062 81.082031 148.664062 81.757812 148.296875 C 82.433594 147.933594 83.078125 147.574219 83.683594 147.226562 C 84.289062 146.882812 84.859375 146.558594 85.386719 146.253906 C 87.503906 145.039062 88.898438 144.144531 89.207031 143.996094 C 89.242188 143.984375 89.28125 143.992188 89.308594 144.019531 C 89.34375 144.054688 89.402344 144.054688 89.433594 144.023438 C 95.019531 138.628906 99.8125 133.441406 103.957031 128.433594 C 108.101562 123.425781 111.597656 118.59375 114.601562 113.90625 C 114.789062 113.613281 114.972656 113.316406 115.15625 113.019531 C 115.339844 112.734375 115.527344 112.445312 115.707031 112.15625 C 116.070312 111.582031 116.421875 111 116.765625 110.417969 C 116.851562 110.273438 116.9375 110.125 117.023438 109.980469 L 117.148438 109.761719 L 117.277344 109.546875 C 117.449219 109.265625 117.621094 108.980469 117.785156 108.695312 C 118.121094 108.128906 118.445312 107.554688 118.761719 106.976562 C 118.839844 106.835938 118.917969 106.6875 118.996094 106.542969 C 119.078125 106.40625 119.15625 106.265625 119.234375 106.125 C 119.394531 105.847656 119.550781 105.566406 119.703125 105.285156 C 120.011719 104.71875 120.3125 104.15625 120.601562 103.585938 C 120.675781 103.4375 120.75 103.304688 120.824219 103.164062 C 120.898438 103.027344 120.96875 102.886719 121.042969 102.75 C 121.191406 102.472656 121.332031 102.195312 121.476562 101.917969 C 121.617188 101.636719 121.757812 101.359375 121.898438 101.078125 C 121.964844 100.9375 122.035156 100.796875 122.101562 100.65625 C 122.171875 100.515625 122.238281 100.371094 122.308594 100.238281 C 124.503906 95.8125 126.371094 91.496094 128.101562 87.257812 C 127.453125 87.289062 126.820312 87.320312 126.203125 87.351562 C 125.578125 87.398438 124.96875 87.445312 124.375 87.492188 C 124.070312 87.515625 123.773438 87.539062 123.476562 87.5625 C 123.328125 87.570312 123.179688 87.582031 123.035156 87.59375 C 122.960938 87.597656 122.886719 87.605469 122.8125 87.609375 C 122.742188 87.617188 122.667969 87.625 122.597656 87.632812 C 122.015625 87.691406 121.445312 87.75 120.890625 87.804688 C 120.328125 87.859375 119.777344 87.910156 119.242188 87.964844 C 119.175781 87.972656 119.105469 87.976562 119.042969 87.984375 C 118.972656 87.992188 118.910156 88 118.84375 88.007812 C 118.710938 88.023438 118.578125 88.042969 118.449219 88.054688 C 118.183594 88.089844 117.925781 88.117188 117.667969 88.148438 C 117.152344 88.207031 116.648438 88.265625 116.160156 88.324219 C 115.914062 88.351562 115.667969 88.378906 115.425781 88.40625 C 115.308594 88.417969 115.1875 88.429688 115.066406 88.445312 C 114.949219 88.460938 114.832031 88.472656 114.714844 88.492188 C 113.78125 88.613281 112.890625 88.722656 112.039062 88.824219 C 111.613281 88.871094 111.199219 88.921875 110.796875 88.96875 C 110.597656 88.988281 110.402344 89.015625 110.207031 89.039062 C 110.011719 89.066406 109.820312 89.089844 109.632812 89.113281 C 108.878906 89.207031 108.164062 89.289062 107.496094 89.363281 C 107.15625 89.394531 106.832031 89.429688 106.519531 89.460938 C 106.363281 89.476562 106.207031 89.492188 106.054688 89.503906 C 105.902344 89.519531 105.753906 89.53125 105.609375 89.550781 C 103.289062 89.796875 101.628906 89.871094 100.558594 89.875 C 100.421875 89.875 100.300781 89.875 100.183594 89.875 C 100.070312 89.871094 99.964844 89.871094 99.867188 89.871094 C 99.671875 89.867188 99.511719 89.859375 99.386719 89.855469 C 99.136719 89.84375 99.015625 89.824219 99.015625 89.824219 C 99.226562 89.808594 99.441406 89.789062 99.660156 89.765625 C 99.769531 89.75 99.878906 89.738281 99.988281 89.722656 C 100.101562 89.707031 100.210938 89.691406 100.328125 89.675781 C 100.777344 89.613281 101.242188 89.53125 101.714844 89.433594 C 102.660156 89.234375 103.644531 88.972656 104.652344 88.65625 C 104.777344 88.613281 104.90625 88.578125 105.035156 88.539062 C 105.164062 88.5 105.292969 88.460938 105.421875 88.421875 C 105.679688 88.339844 105.941406 88.253906 106.203125 88.167969 C 106.722656 87.996094 107.253906 87.808594 107.78125 87.617188 C 108.835938 87.214844 109.9375 86.820312 111.03125 86.382812 C 111.304688 86.273438 111.578125 86.164062 111.851562 86.050781 C 111.988281 85.996094 112.125 85.9375 112.261719 85.878906 L 112.464844 85.792969 L 112.671875 85.714844 C 113.226562 85.496094 113.78125 85.273438 114.332031 85.046875 C 114.605469 84.933594 114.882812 84.816406 115.15625 84.699219 L 115.566406 84.527344 L 115.773438 84.4375 C 115.839844 84.410156 115.910156 84.382812 115.976562 84.355469 C 116.53125 84.132812 117.078125 83.910156 117.625 83.683594 C 117.894531 83.570312 118.164062 83.453125 118.433594 83.34375 C 118.570312 83.285156 118.703125 83.226562 118.835938 83.167969 C 118.96875 83.113281 119.105469 83.0625 119.242188 83.007812 C 119.78125 82.792969 120.3125 82.578125 120.835938 82.363281 C 121.097656 82.253906 121.355469 82.144531 121.617188 82.039062 L 121.808594 81.957031 L 122.003906 81.882812 C 122.132812 81.832031 122.261719 81.78125 122.390625 81.730469 C 122.902344 81.53125 123.40625 81.332031 123.898438 81.136719 C 124.550781 80.859375 125.191406 80.597656 125.800781 80.285156 C 126.105469 80.128906 126.402344 79.960938 126.691406 79.785156 L 126.90625 79.65625 L 127.125 79.527344 C 127.269531 79.441406 127.410156 79.355469 127.550781 79.265625 C 127.828125 79.085938 128.101562 78.898438 128.371094 78.699219 C 128.503906 78.597656 128.636719 78.5 128.765625 78.394531 L 128.957031 78.238281 L 129.152344 78.089844 C 129.664062 77.679688 130.152344 77.238281 130.613281 76.757812 C 132.464844 74.898438 133.945312 72.625 135.109375 69.925781 C 135.339844 69.390625 135.570312 68.863281 135.800781 68.335938 C 136.035156 67.816406 136.269531 67.292969 136.503906 66.78125 C 136.625 66.519531 136.742188 66.257812 136.859375 66 C 136.980469 65.742188 137.101562 65.488281 137.222656 65.238281 C 137.464844 64.726562 137.707031 64.210938 137.953125 63.707031 C 138.203125 63.203125 138.453125 62.703125 138.703125 62.207031 C 138.765625 62.085938 138.828125 61.957031 138.890625 61.832031 C 138.953125 61.710938 139.015625 61.582031 139.082031 61.460938 C 139.210938 61.21875 139.339844 60.972656 139.46875 60.734375 C 139.597656 60.488281 139.726562 60.242188 139.855469 60 C 139.921875 59.878906 139.988281 59.757812 140.050781 59.636719 L 140.148438 59.453125 L 140.25 59.273438 C 140.519531 58.796875 140.785156 58.324219 141.050781 57.855469 C 141.320312 57.375 141.59375 56.921875 141.867188 56.464844 C 142.007812 56.234375 142.144531 56.003906 142.28125 55.777344 C 142.355469 55.664062 142.421875 55.546875 142.492188 55.433594 C 142.5625 55.316406 142.632812 55.210938 142.703125 55.097656 C 142.984375 54.65625 143.269531 54.210938 143.554688 53.773438 C 143.625 53.664062 143.695312 53.550781 143.765625 53.441406 C 143.839844 53.335938 143.914062 53.226562 143.984375 53.121094 C 144.132812 52.90625 144.273438 52.695312 144.421875 52.484375 C 144.566406 52.269531 144.714844 52.058594 144.855469 51.851562 C 144.929688 51.746094 145.003906 51.636719 145.078125 51.535156 C 145.152344 51.433594 145.222656 51.332031 145.296875 51.230469 C 145.59375 50.824219 145.890625 50.417969 146.191406 50.015625 C 146.335938 49.8125 146.488281 49.621094 146.640625 49.425781 C 146.789062 49.234375 146.941406 49.039062 147.089844 48.847656 C 147.242188 48.65625 147.394531 48.46875 147.542969 48.277344 C 147.695312 48.085938 147.847656 47.90625 148 47.722656 C 148.304688 47.359375 148.609375 46.996094 148.914062 46.640625 C 149.21875 46.289062 149.527344 45.949219 149.832031 45.609375 C 149.984375 45.441406 150.136719 45.273438 150.289062 45.109375 C 150.445312 44.945312 150.597656 44.785156 150.75 44.625 C 151.054688 44.308594 151.359375 43.996094 151.664062 43.691406 C 152.277344 43.09375 152.871094 42.511719 153.472656 41.984375 C 153.621094 41.851562 153.769531 41.71875 153.917969 41.589844 C 154.0625 41.457031 154.207031 41.328125 154.355469 41.207031 C 154.652344 40.957031 154.941406 40.71875 155.230469 40.488281 C 157.464844 38.636719 159.300781 37.355469 160.410156 36.597656 C 160.726562 36.382812 160.851562 36.074219 160.792969 35.753906 " fill-opacity="1" fill-rule="nonzero"/><g fill="#ffffff" fill-opacity="1"><g transform="translate(178.925828, 224.580231)"><g><path d="M 41.5625 -109.453125 C 43.269531 -109.910156 45.378906 -110.140625 47.890625 -110.140625 C 50.398438 -110.140625 54.5625 -109.910156 60.375 -109.453125 C 62.425781 -109.335938 64.164062 -109.082031 65.59375 -108.6875 C 67.019531 -108.289062 68.703125 -107.578125 70.640625 -106.546875 C 73.484375 -105.179688 76.300781 -103.242188 79.09375 -100.734375 C 81.894531 -98.222656 83.46875 -96.113281 83.8125 -94.40625 C 84.03125 -93.382812 84.253906 -92.644531 84.484375 -92.1875 C 84.710938 -91.726562 85.285156 -90.875 86.203125 -89.625 C 86.878906 -88.59375 87.21875 -87.820312 87.21875 -87.3125 C 87.21875 -86.800781 87.050781 -85.742188 86.71875 -84.140625 C 86.257812 -82.660156 85.859375 -81.632812 85.515625 -81.0625 C 85.171875 -80.5 84.375 -79.929688 83.125 -79.359375 C 81.300781 -78.554688 79.875 -78.15625 78.84375 -78.15625 C 78.15625 -78.039062 77.8125 -77.867188 77.8125 -77.640625 C 77.8125 -77.535156 77.8125 -77.425781 77.8125 -77.3125 C 77.8125 -76.851562 77.242188 -76.253906 76.109375 -75.515625 C 74.972656 -74.773438 74.003906 -74.40625 73.203125 -74.40625 C 73.085938 -74.40625 72.972656 -74.40625 72.859375 -74.40625 C 72.054688 -74.40625 71.515625 -74.660156 71.234375 -75.171875 C 70.953125 -75.679688 70.582031 -76.789062 70.125 -78.5 C 67.84375 -87.164062 64.191406 -92.128906 59.171875 -93.390625 C 58.148438 -93.722656 56.953125 -93.890625 55.578125 -93.890625 C 54.441406 -93.890625 52.816406 -93.691406 50.703125 -93.296875 C 48.597656 -92.898438 46.40625 -92.070312 44.125 -90.8125 C 41.957031 -89.5625 39.5625 -87.59375 36.9375 -84.90625 C 34.320312 -82.226562 32.554688 -80.035156 31.640625 -78.328125 C 29.359375 -73.765625 28.070312 -69.800781 27.78125 -66.4375 C 27.5 -63.082031 27.359375 -60.773438 27.359375 -59.515625 C 27.359375 -55.523438 27.957031 -51.390625 29.15625 -47.109375 C 30.351562 -42.835938 32.4375 -39.445312 35.40625 -36.9375 C 38.25 -34.207031 40.695312 -32.671875 42.75 -32.328125 C 44.8125 -31.984375 46.351562 -31.8125 47.375 -31.8125 C 49.882812 -31.8125 52.675781 -32.269531 55.75 -33.1875 C 58.375 -34.09375 61.3125 -35.398438 64.5625 -37.109375 C 67.8125 -38.816406 70.117188 -40.472656 71.484375 -42.078125 C 72.859375 -43.328125 73.71875 -43.953125 74.0625 -43.953125 C 74.507812 -43.953125 75.078125 -44.46875 75.765625 -45.5 C 76.335938 -46.289062 76.851562 -46.6875 77.3125 -46.6875 C 77.757812 -46.6875 79.125 -47.941406 81.40625 -50.453125 C 82.207031 -51.367188 83.0625 -52.164062 83.96875 -52.84375 C 84.882812 -53.53125 85.457031 -53.875 85.6875 -53.875 C 86.375 -53.875 86.800781 -53.726562 86.96875 -53.4375 C 87.132812 -53.15625 87.21875 -52.898438 87.21875 -52.671875 C 87.21875 -52.335938 87.050781 -52 86.71875 -51.65625 C 86.375 -51.195312 86.203125 -50.796875 86.203125 -50.453125 C 86.203125 -50.335938 86.257812 -50.222656 86.375 -50.109375 C 86.488281 -49.878906 86.546875 -49.425781 86.546875 -48.75 C 86.546875 -47.832031 86.285156 -46.085938 85.765625 -43.515625 C 85.253906 -40.953125 84.601562 -39.160156 83.8125 -38.140625 C 82.894531 -36.773438 82.4375 -35.976562 82.4375 -35.75 C 82.320312 -35.175781 81.75 -34.003906 80.71875 -32.234375 C 79.695312 -30.472656 78.671875 -29.019531 77.640625 -27.875 C 76.046875 -25.820312 73.878906 -23.796875 71.140625 -21.796875 C 68.410156 -19.804688 66.019531 -18.300781 63.96875 -17.28125 C 61.6875 -16.132812 58.722656 -15.160156 55.078125 -14.359375 C 52.566406 -13.910156 50.054688 -13.6875 47.546875 -13.6875 C 37.398438 -13.6875 27.992188 -18.128906 19.328125 -27.015625 C 15.566406 -30.785156 12.742188 -35.117188 10.859375 -40.015625 C 8.972656 -44.921875 7.804688 -50.910156 7.359375 -57.984375 C 7.359375 -58.890625 7.359375 -59.859375 7.359375 -60.890625 C 7.359375 -74.566406 11.859375 -86.253906 20.859375 -95.953125 C 27.015625 -102.785156 33.914062 -107.285156 41.5625 -109.453125 Z M 41.5625 -109.453125 "/></g></g></g><g fill="#ffffff" fill-opacity="1"><g transform="translate(265.634672, 224.580231)"><g><path d="M 10.953125 -116.640625 C 11.515625 -116.984375 13.675781 -117.15625 17.4375 -117.15625 C 18.125 -117.15625 19.890625 -117.125 22.734375 -117.0625 C 25.585938 -117.007812 27.585938 -116.753906 28.734375 -116.296875 L 30.953125 -115.609375 L 30.78125 -109.125 L 30.265625 -94.921875 C 30.148438 -87.398438 29.984375 -82.953125 29.765625 -81.578125 C 29.648438 -80.785156 29.59375 -80.160156 29.59375 -79.703125 C 29.59375 -79.242188 29.648438 -79.015625 29.765625 -79.015625 C 30.097656 -79.015625 31.691406 -80.15625 34.546875 -82.4375 C 39.679688 -86.3125 45.066406 -88.25 50.703125 -88.25 C 56.347656 -88.25 61.109375 -86.367188 64.984375 -82.609375 C 66.816406 -80.785156 68.21875 -79.046875 69.1875 -77.390625 C 70.15625 -75.734375 70.921875 -73.222656 71.484375 -69.859375 C 72.054688 -66.503906 72.398438 -63.054688 72.515625 -59.515625 C 72.628906 -55.984375 72.6875 -52.222656 72.6875 -48.234375 C 72.6875 -45.492188 72.6875 -42.53125 72.6875 -39.34375 L 72.515625 -15.90625 L 69.265625 -15.5625 C 68.804688 -15.5625 68.296875 -15.5625 67.734375 -15.5625 C 66.128906 -15.5625 63.875 -15.847656 60.96875 -16.421875 C 58.0625 -16.992188 55.867188 -17.734375 54.390625 -18.640625 C 53.242188 -19.441406 52.585938 -19.867188 52.421875 -19.921875 C 52.253906 -19.984375 52.171875 -27.023438 52.171875 -41.046875 C 52.171875 -49.023438 52.082031 -54.8125 51.90625 -58.40625 C 51.738281 -62 51.425781 -64.648438 50.96875 -66.359375 C 50.507812 -68.066406 49.769531 -69.265625 48.75 -69.953125 C 47.71875 -70.640625 46.578125 -70.984375 45.328125 -70.984375 C 44.640625 -70.984375 43.523438 -70.753906 41.984375 -70.296875 C 40.441406 -69.835938 38.476562 -68.46875 36.09375 -66.1875 C 33.582031 -63.675781 31.898438 -61.222656 31.046875 -58.828125 C 30.191406 -56.441406 29.648438 -52.394531 29.421875 -46.6875 C 29.078125 -39.394531 28.90625 -32.894531 28.90625 -27.1875 C 28.789062 -23.082031 28.675781 -20.457031 28.5625 -19.3125 C 28.445312 -18.175781 28.160156 -17.5 27.703125 -17.28125 C 26.910156 -16.9375 25.769531 -16.765625 24.28125 -16.765625 C 23.488281 -16.765625 22.09375 -16.847656 20.09375 -17.015625 C 18.101562 -17.191406 16.023438 -17.617188 13.859375 -18.296875 L 9.40625 -19.671875 L 9.234375 -29.078125 C 9.234375 -38.992188 9.347656 -55.582031 9.578125 -78.84375 C 9.578125 -84.882812 9.519531 -90.128906 9.40625 -94.578125 L 9.75 -109.796875 C 9.863281 -112.878906 9.921875 -114.535156 9.921875 -114.765625 C 10.148438 -115.554688 10.492188 -116.179688 10.953125 -116.640625 Z M 10.953125 -116.640625 "/></g></g></g><g fill="#ffffff" fill-opacity="1"><g transform="translate(344.476436, 224.580231)"><g><path d="M 30.953125 -90.640625 C 33.347656 -91.210938 35.859375 -91.5 38.484375 -91.5 C 39.171875 -91.5 40.539062 -91.441406 42.59375 -91.328125 C 44.644531 -91.210938 46.921875 -90.644531 49.421875 -89.625 C 52.960938 -88.25 56.128906 -85.878906 58.921875 -82.515625 C 61.710938 -79.160156 63.394531 -75.65625 63.96875 -72 C 63.96875 -71.65625 63.96875 -71.144531 63.96875 -70.46875 C 63.96875 -68.1875 63.679688 -64.25 63.109375 -58.65625 C 62.203125 -51.707031 61.75 -45.953125 61.75 -41.390625 C 61.75 -39.109375 61.859375 -37.113281 62.078125 -35.40625 L 62.59375 -32.328125 L 67.734375 -37.796875 C 68.640625 -38.828125 69.519531 -39.738281 70.375 -40.53125 C 71.226562 -41.332031 71.910156 -41.875 72.421875 -42.15625 C 72.941406 -42.445312 73.257812 -42.59375 73.375 -42.59375 C 73.488281 -42.59375 73.546875 -42.59375 73.546875 -42.59375 C 73.660156 -42.476562 73.71875 -42.363281 73.71875 -42.25 C 73.71875 -42.019531 73.546875 -41.847656 73.203125 -41.734375 C 72.859375 -41.617188 72.6875 -41.503906 72.6875 -41.390625 C 72.6875 -41.160156 72.800781 -40.988281 73.03125 -40.875 C 73.257812 -40.757812 73.375 -40.585938 73.375 -40.359375 C 73.375 -39.796875 73.03125 -38.828125 72.34375 -37.453125 C 71.65625 -36.085938 71.3125 -35.289062 71.3125 -35.0625 C 71.3125 -35.0625 71.597656 -35.289062 72.171875 -35.75 C 72.742188 -36.3125 73.085938 -36.59375 73.203125 -36.59375 C 73.316406 -36.59375 73.375 -36.535156 73.375 -36.421875 C 73.375 -36.203125 73.257812 -35.519531 73.03125 -34.375 C 71.882812 -28.675781 70.769531 -24.710938 69.6875 -22.484375 C 68.613281 -20.265625 66.9375 -18.695312 64.65625 -17.78125 C 63.28125 -17.21875 62.023438 -16.9375 60.890625 -16.9375 C 60.773438 -16.9375 60.347656 -16.960938 59.609375 -17.015625 C 58.867188 -17.078125 57.414062 -17.445312 55.25 -18.125 C 52.851562 -19.039062 50.738281 -20.097656 48.90625 -21.296875 C 47.082031 -22.492188 45.832031 -23.660156 45.15625 -24.796875 L 44.125 -26.6875 L 41.734375 -24.28125 C 39.566406 -22.113281 36.828125 -20.457031 33.515625 -19.3125 C 30.210938 -18.175781 27.363281 -17.609375 24.96875 -17.609375 C 24.164062 -17.609375 23.425781 -17.664062 22.75 -17.78125 C 19.101562 -18.351562 15.710938 -20.0625 12.578125 -22.90625 C 9.441406 -25.757812 7.300781 -29.128906 6.15625 -33.015625 C 5.46875 -35.398438 5.125 -37.566406 5.125 -39.515625 C 5.125 -39.960938 5.179688 -40.867188 5.296875 -42.234375 C 5.410156 -43.609375 6.097656 -45.550781 7.359375 -48.0625 C 9.296875 -51.9375 12.257812 -55.269531 16.25 -58.0625 C 20.238281 -60.851562 25.082031 -62.992188 30.78125 -64.484375 C 35 -65.503906 38.648438 -66.414062 41.734375 -67.21875 L 46.6875 -68.75 L 46.859375 -71.15625 C 46.859375 -71.488281 46.859375 -71.828125 46.859375 -72.171875 C 46.859375 -72.742188 46.769531 -73.285156 46.59375 -73.796875 C 46.425781 -74.304688 45.945312 -74.90625 45.15625 -75.59375 C 44.238281 -76.507812 43.4375 -77.078125 42.75 -77.296875 C 42.070312 -77.523438 40.9375 -77.640625 39.34375 -77.640625 C 36.144531 -77.640625 33.347656 -76.898438 30.953125 -75.421875 C 28.554688 -73.941406 25.820312 -71.378906 22.75 -67.734375 C 22.175781 -66.929688 21.488281 -66.53125 20.6875 -66.53125 C 20.46875 -66.53125 20.1875 -66.585938 19.84375 -66.703125 C 18.019531 -67.160156 15.96875 -68.53125 13.6875 -70.8125 C 11.40625 -73.09375 10.265625 -74.972656 10.265625 -76.453125 C 10.265625 -76.796875 10.601562 -77.453125 11.28125 -78.421875 C 11.96875 -79.390625 12.828125 -80.382812 13.859375 -81.40625 C 15.796875 -83.570312 18.300781 -85.484375 21.375 -87.140625 C 24.457031 -88.796875 27.648438 -89.960938 30.953125 -90.640625 Z M 44.984375 -53.359375 C 44.984375 -53.816406 44.8125 -54.046875 44.46875 -54.046875 C 44.007812 -54.046875 42.1875 -53.585938 39 -52.671875 C 35.6875 -51.648438 33.0625 -50.625 31.125 -49.59375 C 29.1875 -48.570312 27.535156 -47.320312 26.171875 -45.84375 C 24.117188 -43.445312 23.09375 -40.707031 23.09375 -37.625 C 23.09375 -36.601562 23.207031 -35.519531 23.4375 -34.375 C 23.65625 -33.351562 23.9375 -32.671875 24.28125 -32.328125 C 24.625 -31.984375 25.140625 -31.8125 25.828125 -31.8125 C 26.054688 -31.8125 26.34375 -31.8125 26.6875 -31.8125 C 28.507812 -31.8125 30.875 -32.78125 33.78125 -34.71875 C 36.6875 -36.65625 39.109375 -39.050781 41.046875 -41.90625 C 41.960938 -43.15625 42.847656 -45.0625 43.703125 -47.625 C 44.554688 -50.195312 44.984375 -52.109375 44.984375 -53.359375 Z M 44.984375 -53.359375 "/></g></g></g><g fill="#ffffff" fill-opacity="1"><g transform="translate(419.897732, 224.580231)"><g><path d="M 29.421875 -111.515625 C 30.097656 -111.628906 30.835938 -111.6875 31.640625 -111.6875 C 33.117188 -111.6875 34.941406 -111.367188 37.109375 -110.734375 C 39.273438 -110.109375 40.585938 -109.226562 41.046875 -108.09375 C 41.046875 -107.976562 41.046875 -107.691406 41.046875 -107.234375 C 41.046875 -105.753906 40.757812 -102.734375 40.1875 -98.171875 C 39.625 -93.378906 39.34375 -90.1875 39.34375 -88.59375 C 39.34375 -87.675781 39.398438 -87.21875 39.515625 -87.21875 C 39.617188 -87.21875 39.785156 -87.21875 40.015625 -87.21875 C 40.929688 -87.21875 43.382812 -87.390625 47.375 -87.734375 C 50.675781 -88.304688 52.785156 -88.59375 53.703125 -88.59375 C 53.703125 -88.59375 53.929688 -88.5625 54.390625 -88.5 C 54.847656 -88.445312 55.359375 -88.078125 55.921875 -87.390625 C 56.953125 -86.140625 57.921875 -84.316406 58.828125 -81.921875 C 59.742188 -79.523438 60.203125 -77.53125 60.203125 -75.9375 L 60.203125 -73.03125 L 48.921875 -72.515625 C 44.359375 -72.285156 41.363281 -72.054688 39.9375 -71.828125 C 38.507812 -71.597656 37.738281 -71.316406 37.625 -70.984375 C 36.71875 -68.359375 36.207031 -63.222656 36.09375 -55.578125 C 35.976562 -47.941406 35.921875 -42.984375 35.921875 -40.703125 C 35.921875 -33.628906 36.203125 -29.695312 36.765625 -28.90625 C 36.878906 -28.675781 37.164062 -28.5625 37.625 -28.5625 C 38.195312 -28.5625 39.304688 -29.046875 40.953125 -30.015625 C 42.609375 -30.984375 44.691406 -32.632812 47.203125 -34.96875 C 49.710938 -37.3125 51.820312 -39.625 53.53125 -41.90625 C 55.125 -44.1875 56.320312 -45.328125 57.125 -45.328125 C 57.238281 -45.328125 57.296875 -45.328125 57.296875 -45.328125 C 57.523438 -45.210938 57.722656 -45.066406 57.890625 -44.890625 C 58.066406 -44.722656 58.15625 -44.523438 58.15625 -44.296875 C 58.15625 -44.179688 58.066406 -43.8125 57.890625 -43.1875 C 57.722656 -42.5625 57.640625 -42.019531 57.640625 -41.5625 C 56.378906 -35.632812 55.410156 -32.671875 54.734375 -32.671875 C 54.617188 -32.671875 54.5625 -32.671875 54.5625 -32.671875 C 54.332031 -32.671875 54.128906 -32.582031 53.953125 -32.40625 C 53.785156 -32.238281 53.703125 -31.984375 53.703125 -31.640625 C 53.703125 -31.523438 53.703125 -31.351562 53.703125 -31.125 C 53.703125 -30.101562 53.015625 -28.421875 51.640625 -26.078125 C 50.273438 -23.742188 48.738281 -21.78125 47.03125 -20.1875 C 44.289062 -17.789062 41.441406 -16.59375 38.484375 -16.59375 C 38.140625 -16.59375 37.023438 -16.675781 35.140625 -16.84375 C 33.265625 -17.019531 30.613281 -18.757812 27.1875 -22.0625 C 23.539062 -25.707031 21.203125 -29.582031 20.171875 -33.6875 C 19.148438 -37.789062 18.640625 -43.035156 18.640625 -49.421875 C 18.640625 -51.585938 18.695312 -53.925781 18.8125 -56.4375 C 19.039062 -59.519531 19.179688 -61.710938 19.234375 -63.015625 C 19.296875 -64.328125 19.328125 -65.328125 19.328125 -66.015625 C 19.328125 -66.703125 19.296875 -67.414062 19.234375 -68.15625 C 19.179688 -68.894531 19.066406 -69.378906 18.890625 -69.609375 C 18.722656 -69.835938 18.582031 -69.953125 18.46875 -69.953125 C 18.46875 -69.953125 18.410156 -69.953125 18.296875 -69.953125 C 17.835938 -69.722656 15.957031 -69.4375 12.65625 -69.09375 L 8.03125 -68.578125 L 7.015625 -71.3125 C 5.753906 -73.820312 5.125 -76.332031 5.125 -78.84375 C 5.125 -79.757812 5.179688 -80.671875 5.296875 -81.578125 L 5.8125 -83.96875 L 13.34375 -84.65625 C 18.351562 -85.113281 20.914062 -85.457031 21.03125 -85.6875 C 21.375 -85.914062 21.890625 -89.222656 22.578125 -95.609375 C 22.804688 -97.660156 23.0625 -100.023438 23.34375 -102.703125 C 23.625 -105.378906 23.878906 -106.832031 24.109375 -107.0625 C 24.335938 -108.882812 24.648438 -109.96875 25.046875 -110.3125 C 25.453125 -110.65625 26.910156 -111.054688 29.421875 -111.515625 Z M 29.421875 -111.515625 "/></g></g></g><g fill="#ffffff" fill-opacity="1"><g transform="translate(481.46614, 224.580231)"><g><path d="M 29.421875 -111.515625 C 30.097656 -111.628906 30.835938 -111.6875 31.640625 -111.6875 C 33.117188 -111.6875 34.941406 -111.367188 37.109375 -110.734375 C 39.273438 -110.109375 40.585938 -109.226562 41.046875 -108.09375 C 41.046875 -107.976562 41.046875 -107.691406 41.046875 -107.234375 C 41.046875 -105.753906 40.757812 -102.734375 40.1875 -98.171875 C 39.625 -93.378906 39.34375 -90.1875 39.34375 -88.59375 C 39.34375 -87.675781 39.398438 -87.21875 39.515625 -87.21875 C 39.617188 -87.21875 39.785156 -87.21875 40.015625 -87.21875 C 40.929688 -87.21875 43.382812 -87.390625 47.375 -87.734375 C 50.675781 -88.304688 52.785156 -88.59375 53.703125 -88.59375 C 53.703125 -88.59375 53.929688 -88.5625 54.390625 -88.5 C 54.847656 -88.445312 55.359375 -88.078125 55.921875 -87.390625 C 56.953125 -86.140625 57.921875 -84.316406 58.828125 -81.921875 C 59.742188 -79.523438 60.203125 -77.53125 60.203125 -75.9375 L 60.203125 -73.03125 L 48.921875 -72.515625 C 44.359375 -72.285156 41.363281 -72.054688 39.9375 -71.828125 C 38.507812 -71.597656 37.738281 -71.316406 37.625 -70.984375 C 36.71875 -68.359375 36.207031 -63.222656 36.09375 -55.578125 C 35.976562 -47.941406 35.921875 -42.984375 35.921875 -40.703125 C 35.921875 -33.628906 36.203125 -29.695312 36.765625 -28.90625 C 36.878906 -28.675781 37.164062 -28.5625 37.625 -28.5625 C 38.195312 -28.5625 39.304688 -29.046875 40.953125 -30.015625 C 42.609375 -30.984375 44.691406 -32.632812 47.203125 -34.96875 C 49.710938 -37.3125 51.820312 -39.625 53.53125 -41.90625 C 55.125 -44.1875 56.320312 -45.328125 57.125 -45.328125 C 57.238281 -45.328125 57.296875 -45.328125 57.296875 -45.328125 C 57.523438 -45.210938 57.722656 -45.066406 57.890625 -44.890625 C 58.066406 -44.722656 58.15625 -44.523438 58.15625 -44.296875 C 58.15625 -44.179688 58.066406 -43.8125 57.890625 -43.1875 C 57.722656 -42.5625 57.640625 -42.019531 57.640625 -41.5625 C 56.378906 -35.632812 55.410156 -32.671875 54.734375 -32.671875 C 54.617188 -32.671875 54.5625 -32.671875 54.5625 -32.671875 C 54.332031 -32.671875 54.128906 -32.582031 53.953125 -32.40625 C 53.785156 -32.238281 53.703125 -31.984375 53.703125 -31.640625 C 53.703125 -31.523438 53.703125 -31.351562 53.703125 -31.125 C 53.703125 -30.101562 53.015625 -28.421875 51.640625 -26.078125 C 50.273438 -23.742188 48.738281 -21.78125 47.03125 -20.1875 C 44.289062 -17.789062 41.441406 -16.59375 38.484375 -16.59375 C 38.140625 -16.59375 37.023438 -16.675781 35.140625 -16.84375 C 33.265625 -17.019531 30.613281 -18.757812 27.1875 -22.0625 C 23.539062 -25.707031 21.203125 -29.582031 20.171875 -33.6875 C 19.148438 -37.789062 18.640625 -43.035156 18.640625 -49.421875 C 18.640625 -51.585938 18.695312 -53.925781 18.8125 -56.4375 C 19.039062 -59.519531 19.179688 -61.710938 19.234375 -63.015625 C 19.296875 -64.328125 19.328125 -65.328125 19.328125 -66.015625 C 19.328125 -66.703125 19.296875 -67.414062 19.234375 -68.15625 C 19.179688 -68.894531 19.066406 -69.378906 18.890625 -69.609375 C 18.722656 -69.835938 18.582031 -69.953125 18.46875 -69.953125 C 18.46875 -69.953125 18.410156 -69.953125 18.296875 -69.953125 C 17.835938 -69.722656 15.957031 -69.4375 12.65625 -69.09375 L 8.03125 -68.578125 L 7.015625 -71.3125 C 5.753906 -73.820312 5.125 -76.332031 5.125 -78.84375 C 5.125 -79.757812 5.179688 -80.671875 5.296875 -81.578125 L 5.8125 -83.96875 L 13.34375 -84.65625 C 18.351562 -85.113281 20.914062 -85.457031 21.03125 -85.6875 C 21.375 -85.914062 21.890625 -89.222656 22.578125 -95.609375 C 22.804688 -97.660156 23.0625 -100.023438 23.34375 -102.703125 C 23.625 -105.378906 23.878906 -106.832031 24.109375 -107.0625 C 24.335938 -108.882812 24.648438 -109.96875 25.046875 -110.3125 C 25.453125 -110.65625 26.910156 -111.054688 29.421875 -111.515625 Z M 29.421875 -111.515625 "/></g></g></g><g fill="#ffffff" fill-opacity="1"><g transform="translate(543.034548, 224.580231)"><g><path d="M 32.5 -88.9375 C 34.4375 -89.28125 36.375 -89.453125 38.3125 -89.453125 C 40.707031 -89.453125 43.585938 -89.078125 46.953125 -88.328125 C 50.316406 -87.585938 53.476562 -86.023438 56.4375 -83.640625 C 60.425781 -80.554688 63.25 -76.789062 64.90625 -72.34375 C 66.5625 -67.894531 67.390625 -64.414062 67.390625 -61.90625 C 67.390625 -59.851562 66.988281 -58.085938 66.1875 -56.609375 C 65.5 -55.128906 64.128906 -53.90625 62.078125 -52.9375 C 60.023438 -51.96875 56.722656 -50.96875 52.171875 -49.9375 C 43.734375 -48.113281 36.488281 -47.203125 30.4375 -47.203125 C 29.1875 -47.203125 27.992188 -47.257812 26.859375 -47.375 L 21.890625 -47.71875 L 21.890625 -45.5 C 21.890625 -42.1875 22.882812 -39.21875 24.875 -36.59375 C 26.875 -33.976562 29.472656 -32.328125 32.671875 -31.640625 C 34.148438 -31.296875 35.800781 -31.125 37.625 -31.125 C 39.90625 -31.125 42.867188 -31.578125 46.515625 -32.484375 C 50.171875 -33.398438 53.878906 -35.226562 57.640625 -37.96875 C 60.828125 -40.363281 62.789062 -41.757812 63.53125 -42.15625 C 64.28125 -42.550781 65.050781 -42.921875 65.84375 -43.265625 C 66.1875 -43.378906 66.472656 -43.4375 66.703125 -43.4375 C 66.929688 -43.4375 67.046875 -43.40625 67.046875 -43.34375 C 67.046875 -43.289062 67.046875 -43.207031 67.046875 -43.09375 C 67.046875 -42.757812 66.988281 -42.191406 66.875 -41.390625 C 66.070312 -37.515625 63.960938 -33.378906 60.546875 -28.984375 C 57.128906 -24.597656 53.765625 -21.609375 50.453125 -20.015625 C 48.171875 -18.867188 45.691406 -18.066406 43.015625 -17.609375 C 40.335938 -17.160156 37.914062 -16.9375 35.75 -16.9375 C 34.71875 -16.9375 33.75 -16.992188 32.84375 -17.109375 C 26.6875 -17.441406 21.125 -19.800781 16.15625 -24.1875 C 11.195312 -28.582031 7.863281 -34.03125 6.15625 -40.53125 C 5.46875 -43.15625 5.125 -46.75 5.125 -51.3125 C 5.125 -55.875 5.46875 -59.40625 6.15625 -61.90625 C 7.863281 -68.976562 11.140625 -74.992188 15.984375 -79.953125 C 20.835938 -84.910156 26.34375 -87.90625 32.5 -88.9375 Z M 44.296875 -75.59375 C 42.472656 -76.507812 40.707031 -76.96875 39 -76.96875 C 37.28125 -76.96875 35.625 -76.566406 34.03125 -75.765625 C 31.070312 -74.398438 28.765625 -72.773438 27.109375 -70.890625 C 25.453125 -69.015625 24.054688 -66.421875 22.921875 -63.109375 L 21.890625 -60.375 L 24.453125 -60.375 C 26.160156 -60.375 29.632812 -60.800781 34.875 -61.65625 C 40.125 -62.507812 43.945312 -63.28125 46.34375 -63.96875 C 48.0625 -64.539062 49.085938 -64.96875 49.421875 -65.25 C 49.765625 -65.53125 49.9375 -66.242188 49.9375 -67.390625 C 49.9375 -69.210938 49.421875 -70.863281 48.390625 -72.34375 C 47.367188 -73.820312 46.003906 -74.90625 44.296875 -75.59375 Z M 44.296875 -75.59375 "/></g></g></g><g fill="#ffffff" fill-opacity="1"><g transform="translate(615.548473, 224.580231)"><g><path d="M 42.921875 -92.015625 C 44.066406 -92.359375 45.894531 -92.585938 48.40625 -92.703125 C 50 -92.703125 51.050781 -92.613281 51.5625 -92.4375 C 52.070312 -92.269531 52.671875 -91.726562 53.359375 -90.8125 C 54.273438 -89.675781 55.015625 -88.140625 55.578125 -86.203125 C 56.035156 -85.171875 56.347656 -83.941406 56.515625 -82.515625 C 56.691406 -81.097656 56.722656 -79.875 56.609375 -78.84375 C 56.609375 -78.613281 56.578125 -78.128906 56.515625 -77.390625 C 56.460938 -76.648438 56.265625 -76.28125 55.921875 -76.28125 C 55.804688 -76.28125 55.691406 -76.28125 55.578125 -76.28125 C 55.472656 -76.28125 55.421875 -76.222656 55.421875 -76.109375 C 55.421875 -75.992188 55.472656 -75.765625 55.578125 -75.421875 C 55.691406 -75.078125 55.75 -74.789062 55.75 -74.5625 C 55.75 -74.226562 55.582031 -74.0625 55.25 -74.0625 C 54.90625 -74.0625 54.734375 -74.226562 54.734375 -74.5625 C 54.734375 -75.019531 53.421875 -75.535156 50.796875 -76.109375 C 48.742188 -76.679688 46.632812 -76.96875 44.46875 -76.96875 C 41.5 -76.96875 38.707031 -76.453125 36.09375 -75.421875 C 34.039062 -74.628906 32.523438 -73.742188 31.546875 -72.765625 C 30.578125 -71.796875 29.8125 -70.628906 29.25 -69.265625 C 28.789062 -67.671875 28.472656 -65.160156 28.296875 -61.734375 C 28.128906 -58.316406 28.046875 -56.039062 28.046875 -54.90625 C 27.929688 -48.75 27.929688 -39.851562 28.046875 -28.21875 L 28.390625 -17.109375 L 22.40625 -17.4375 C 19.78125 -17.550781 17.894531 -17.722656 16.75 -17.953125 C 15.613281 -18.179688 14.191406 -18.8125 12.484375 -19.84375 L 8.71875 -22.234375 L 9.578125 -60.71875 C 9.921875 -73.832031 10.175781 -82.15625 10.34375 -85.6875 C 10.519531 -89.21875 10.832031 -91.097656 11.28125 -91.328125 C 11.96875 -91.785156 13.679688 -92.015625 16.421875 -92.015625 C 16.992188 -92.015625 18.359375 -91.984375 20.515625 -91.921875 C 22.679688 -91.867188 24.453125 -91.554688 25.828125 -90.984375 C 27.191406 -90.523438 28.101562 -90.007812 28.5625 -89.4375 C 29.019531 -88.875 29.191406 -87.96875 29.078125 -86.71875 C 29.078125 -85.800781 29.160156 -85.253906 29.328125 -85.078125 C 29.503906 -84.910156 29.648438 -84.828125 29.765625 -84.828125 C 30.097656 -84.941406 31.125 -85.570312 32.84375 -86.71875 C 36.488281 -89.332031 39.847656 -91.097656 42.921875 -92.015625 Z M 42.921875 -92.015625 "/></g></g></g></svg>