<svg xmlns="http://www.w3.org/2000/svg" xmlns:xlink="http://www.w3.org/1999/xlink" width="500" zoomAndPan="magnify" viewBox="0 0 375 374.999991" height="500" preserveAspectRatio="xMidYMid meet" version="1.0"><defs><g/><clipPath id="0d92001e9d"><path d="M 37.5 156.085938 L 114.777344 156.085938 L 114.777344 233.363281 L 37.5 233.363281 Z M 37.5 156.085938 " clip-rule="nonzero"/></clipPath><clipPath id="d251f7edbc"><path d="M 76.136719 156.085938 C 54.796875 156.085938 37.5 173.386719 37.5 194.726562 C 37.5 216.0625 54.796875 233.363281 76.136719 233.363281 C 97.476562 233.363281 114.777344 216.0625 114.777344 194.726562 C 114.777344 173.386719 97.476562 156.085938 76.136719 156.085938 Z M 76.136719 156.085938 " clip-rule="nonzero"/></clipPath><clipPath id="2ca1e0cbc7"><path d="M 42.855469 161.441406 L 109.421875 161.441406 L 109.421875 228.007812 L 42.855469 228.007812 Z M 42.855469 161.441406 " clip-rule="nonzero"/></clipPath><clipPath id="1e0dc94026"><path d="M 76.136719 161.441406 C 57.757812 161.441406 42.855469 176.34375 42.855469 194.726562 C 42.855469 213.105469 57.757812 228.007812 76.136719 228.007812 C 94.519531 228.007812 109.421875 213.105469 109.421875 194.726562 C 109.421875 176.34375 94.519531 161.441406 76.136719 161.441406 Z M 76.136719 161.441406 " clip-rule="nonzero"/></clipPath><clipPath id="180469a6f7"><path d="M 56.933594 131.328125 L 130 131.328125 L 130 228 L 56.933594 228 Z M 56.933594 131.328125 " clip-rule="nonzero"/></clipPath></defs><g fill="#e9b44c" fill-opacity="1"><g transform="translate(120.903165, 216.369945)"><g><path d="M 19.78125 0.765625 C 16.53125 0.765625 13.660156 0.0625 11.171875 -1.34375 C 8.691406 -2.757812 6.734375 -4.726562 5.296875 -7.25 C 3.859375 -9.78125 3.140625 -12.675781 3.140625 -15.9375 C 3.140625 -19.1875 3.859375 -22.078125 5.296875 -24.609375 C 6.734375 -27.140625 8.691406 -29.109375 11.171875 -30.515625 C 13.660156 -31.929688 16.53125 -32.640625 19.78125 -32.640625 C 23.851562 -32.640625 27.28125 -31.578125 30.0625 -29.453125 C 32.851562 -27.335938 34.632812 -24.414062 35.40625 -20.6875 L 26.734375 -20.6875 C 26.296875 -22.226562 25.445312 -23.4375 24.1875 -24.3125 C 22.925781 -25.195312 21.4375 -25.640625 19.71875 -25.640625 C 17.445312 -25.640625 15.519531 -24.78125 13.9375 -23.0625 C 12.351562 -21.351562 11.5625 -18.976562 11.5625 -15.9375 C 11.5625 -12.894531 12.351562 -10.515625 13.9375 -8.796875 C 15.519531 -7.085938 17.445312 -6.234375 19.71875 -6.234375 C 21.4375 -6.234375 22.925781 -6.660156 24.1875 -7.515625 C 25.445312 -8.367188 26.296875 -9.585938 26.734375 -11.171875 L 35.40625 -11.171875 C 34.632812 -7.578125 32.851562 -4.6875 30.0625 -2.5 C 27.28125 -0.320312 23.851562 0.765625 19.78125 0.765625 Z M 19.78125 0.765625 "/></g></g></g><g fill="#e9b44c" fill-opacity="1"><g transform="translate(156.559455, 216.369945)"><g><path d="M 4.171875 0 L 4.171875 -46.265625 L 12.40625 -46.265625 L 12.40625 -26.984375 C 13.46875 -28.742188 14.910156 -30.125 16.734375 -31.125 C 18.554688 -32.132812 20.644531 -32.640625 23 -32.640625 C 26.9375 -32.640625 29.988281 -31.394531 32.15625 -28.90625 C 34.320312 -26.425781 35.40625 -22.785156 35.40625 -17.984375 L 35.40625 0 L 27.234375 0 L 27.234375 -17.21875 C 27.234375 -19.957031 26.6875 -22.054688 25.59375 -23.515625 C 24.507812 -24.972656 22.789062 -25.703125 20.4375 -25.703125 C 18.125 -25.703125 16.207031 -24.882812 14.6875 -23.25 C 13.164062 -21.625 12.40625 -19.359375 12.40625 -16.453125 L 12.40625 0 Z M 4.171875 0 "/></g></g></g><g fill="#e9b44c" fill-opacity="1"><g transform="translate(192.729713, 216.369945)"><g><path d="M 15.15625 0.765625 C 12.414062 0.765625 10.164062 0.328125 8.40625 -0.546875 C 6.65625 -1.421875 5.351562 -2.585938 4.5 -4.046875 C 3.644531 -5.503906 3.21875 -7.109375 3.21875 -8.859375 C 3.21875 -11.816406 4.375 -14.21875 6.6875 -16.0625 C 9 -17.90625 12.46875 -18.828125 17.09375 -18.828125 L 25.1875 -18.828125 L 25.1875 -19.59375 C 25.1875 -21.78125 24.5625 -23.382812 23.3125 -24.40625 C 22.070312 -25.4375 20.535156 -25.953125 18.703125 -25.953125 C 17.023438 -25.953125 15.566406 -25.554688 14.328125 -24.765625 C 13.085938 -23.972656 12.316406 -22.804688 12.015625 -21.265625 L 3.984375 -21.265625 C 4.203125 -23.578125 4.984375 -25.585938 6.328125 -27.296875 C 7.679688 -29.015625 9.425781 -30.332031 11.5625 -31.25 C 13.707031 -32.175781 16.109375 -32.640625 18.765625 -32.640625 C 23.304688 -32.640625 26.878906 -31.503906 29.484375 -29.234375 C 32.097656 -26.960938 33.40625 -23.75 33.40625 -19.59375 L 33.40625 0 L 26.40625 0 L 25.640625 -5.140625 C 24.691406 -3.421875 23.367188 -2.003906 21.671875 -0.890625 C 19.984375 0.210938 17.8125 0.765625 15.15625 0.765625 Z M 17.03125 -5.65625 C 19.382812 -5.65625 21.210938 -6.425781 22.515625 -7.96875 C 23.828125 -9.507812 24.65625 -11.414062 25 -13.6875 L 17.984375 -13.6875 C 15.804688 -13.6875 14.242188 -13.289062 13.296875 -12.5 C 12.359375 -11.707031 11.890625 -10.734375 11.890625 -9.578125 C 11.890625 -8.328125 12.359375 -7.359375 13.296875 -6.671875 C 14.242188 -5.992188 15.488281 -5.65625 17.03125 -5.65625 Z M 17.03125 -5.65625 "/></g></g></g><g fill="#e9b44c" fill-opacity="1"><g transform="translate(226.908322, 216.369945)"><g><path d="M 18.375 0 C 15.03125 0 12.351562 -0.8125 10.34375 -2.4375 C 8.332031 -4.070312 7.328125 -6.960938 7.328125 -11.109375 L 7.328125 -25 L 1.859375 -25 L 1.859375 -31.875 L 7.328125 -31.875 L 8.28125 -40.40625 L 15.546875 -40.40625 L 15.546875 -31.875 L 24.15625 -31.875 L 24.15625 -25 L 15.546875 -25 L 15.546875 -11.046875 C 15.546875 -9.503906 15.878906 -8.441406 16.546875 -7.859375 C 17.210938 -7.285156 18.359375 -7 19.984375 -7 L 23.96875 -7 L 23.96875 0 Z M 18.375 0 "/></g></g></g><g fill="#e9b44c" fill-opacity="1"><g transform="translate(251.064422, 216.369945)"><g><path d="M 18.375 0 C 15.03125 0 12.351562 -0.8125 10.34375 -2.4375 C 8.332031 -4.070312 7.328125 -6.960938 7.328125 -11.109375 L 7.328125 -25 L 1.859375 -25 L 1.859375 -31.875 L 7.328125 -31.875 L 8.28125 -40.40625 L 15.546875 -40.40625 L 15.546875 -31.875 L 24.15625 -31.875 L 24.15625 -25 L 15.546875 -25 L 15.546875 -11.046875 C 15.546875 -9.503906 15.878906 -8.441406 16.546875 -7.859375 C 17.210938 -7.285156 18.359375 -7 19.984375 -7 L 23.96875 -7 L 23.96875 0 Z M 18.375 0 "/></g></g></g><g fill="#e9b44c" fill-opacity="1"><g transform="translate(275.220522, 216.369945)"><g><path d="M 19.65625 0.765625 C 16.445312 0.765625 13.597656 0.0820312 11.109375 -1.28125 C 8.628906 -2.65625 6.679688 -4.582031 5.265625 -7.0625 C 3.847656 -9.550781 3.140625 -12.421875 3.140625 -15.671875 C 3.140625 -18.972656 3.835938 -21.90625 5.234375 -24.46875 C 6.628906 -27.039062 8.554688 -29.046875 11.015625 -30.484375 C 13.484375 -31.921875 16.382812 -32.640625 19.71875 -32.640625 C 22.851562 -32.640625 25.617188 -31.953125 28.015625 -30.578125 C 30.410156 -29.210938 32.28125 -27.335938 33.625 -24.953125 C 34.976562 -22.578125 35.65625 -19.9375 35.65625 -17.03125 C 35.65625 -16.550781 35.644531 -16.054688 35.625 -15.546875 C 35.601562 -15.035156 35.570312 -14.5 35.53125 -13.9375 L 11.3125 -13.9375 C 11.476562 -11.457031 12.34375 -9.507812 13.90625 -8.09375 C 15.46875 -6.675781 17.363281 -5.96875 19.59375 -5.96875 C 21.269531 -5.96875 22.671875 -6.34375 23.796875 -7.09375 C 24.929688 -7.84375 25.78125 -8.816406 26.34375 -10.015625 L 34.6875 -10.015625 C 34.09375 -8.003906 33.097656 -6.175781 31.703125 -4.53125 C 30.316406 -2.882812 28.601562 -1.585938 26.5625 -0.640625 C 24.53125 0.296875 22.226562 0.765625 19.65625 0.765625 Z M 19.71875 -25.953125 C 17.707031 -25.953125 15.929688 -25.382812 14.390625 -24.25 C 12.847656 -23.113281 11.863281 -21.390625 11.4375 -19.078125 L 27.3125 -19.078125 C 27.175781 -21.179688 26.398438 -22.851562 24.984375 -24.09375 C 23.578125 -25.332031 21.820312 -25.953125 19.71875 -25.953125 Z M 19.71875 -25.953125 "/></g></g></g><g fill="#e9b44c" fill-opacity="1"><g transform="translate(310.74831, 216.369945)"><g><path d="M 4.171875 0 L 4.171875 -31.875 L 11.5 -31.875 L 12.265625 -25.890625 C 13.421875 -27.953125 14.992188 -29.59375 16.984375 -30.8125 C 18.984375 -32.03125 21.332031 -32.640625 24.03125 -32.640625 L 24.03125 -23.96875 L 21.71875 -23.96875 C 19.914062 -23.96875 18.304688 -23.6875 16.890625 -23.125 C 15.484375 -22.570312 14.382812 -21.609375 13.59375 -20.234375 C 12.800781 -18.867188 12.40625 -16.960938 12.40625 -14.515625 L 12.40625 0 Z M 4.171875 0 "/></g></g></g><g clip-path="url(#0d92001e9d)"><g clip-path="url(#d251f7edbc)"><path fill="#e9b44c" d="M 37.5 156.085938 L 114.777344 156.085938 L 114.777344 233.363281 L 37.5 233.363281 Z M 37.5 156.085938 " fill-opacity="1" fill-rule="nonzero"/></g></g><g clip-path="url(#2ca1e0cbc7)"><g clip-path="url(#1e0dc94026)"><path fill="#ffffff" d="M 42.855469 161.441406 L 109.421875 161.441406 L 109.421875 228.007812 L 42.855469 228.007812 Z M 42.855469 161.441406 " fill-opacity="1" fill-rule="nonzero"/></g></g><g clip-path="url(#180469a6f7)"><path fill="#e9b44c" d="M 129.398438 131.328125 C 123.609375 139.882812 116.871094 136.554688 112.121094 144.242188 C 109.132812 149.082031 107.410156 149.382812 107.410156 149.382812 C 110.253906 145.710938 107.84375 140.75 107.84375 140.75 C 100.621094 148.039062 96.28125 145.859375 89.988281 150.394531 C 83.699219 154.929688 82.695312 162.484375 82.695312 162.484375 C 81.648438 158.523438 83.21875 153.257812 83.21875 153.257812 C 70.769531 160.667969 65.609375 173.902344 68.898438 182.339844 C 65.101562 187.148438 64.640625 193.398438 64.640625 193.398438 C 68.683594 182.792969 78.535156 175.460938 88.367188 170.042969 C 103.832031 161.519531 112.796875 152.480469 112.796875 152.480469 C 107.3125 162.136719 94.527344 169.425781 84.179688 176.816406 C 73.835938 184.207031 65.421875 192.636719 60.875 210.101562 L 56.949219 215.007812 L 64.6875 227.992188 L 64.003906 218.003906 C 63.285156 217.664062 62.753906 216.972656 62.671875 216.121094 C 62.550781 214.847656 63.484375 213.714844 64.761719 213.589844 C 66.035156 213.46875 67.171875 214.402344 67.292969 215.679688 C 67.398438 216.761719 66.738281 217.738281 65.757812 218.085938 L 65.253906 227.9375 L 72.558594 214.585938 L 68.347656 209.476562 C 68 196.09375 74.890625 189.804688 74.890625 189.804688 C 91.226562 194.375 104.363281 180.550781 104.363281 180.550781 C 96.640625 181.960938 91.765625 179.484375 91.765625 179.484375 C 112.996094 178.023438 117.742188 164.75 117.742188 164.75 C 113.585938 165.859375 110.339844 164.398438 110.339844 164.398438 C 122.121094 163.382812 125.003906 153.527344 125.003906 153.527344 C 120.425781 155.585938 118.726562 155.742188 118.726562 155.742188 C 132.371094 149.152344 129.398438 131.328125 129.398438 131.328125 Z M 129.398438 131.328125 " fill-opacity="1" fill-rule="nonzero"/></g><path stroke-linecap="round" transform="matrix(0.618513, -0.424195, 0.424195, 0.618513, 83.881045, 172.682741)" fill="none" stroke-linejoin="miter" d="M 2.500942 2.499725 L 24.952347 2.500256 " stroke="#ffffff" stroke-width="5" stroke-opacity="1" stroke-miterlimit="4"/></svg>