<svg xmlns="http://www.w3.org/2000/svg" xmlns:xlink="http://www.w3.org/1999/xlink" width="500" zoomAndPan="magnify" viewBox="0 0 375 374.999991" height="400" preserveAspectRatio="xMidYMid meet" version="1.0"><defs><g/><clipPath id="0e455d32b3"><path d="M 42 118 L 140 118 L 140 239 L 42 239 Z M 42 118 " clip-rule="nonzero"/></clipPath><clipPath id="b14cec0b58"><path d="M 46.664062 114.882812 L 142.605469 118.289062 L 138.242188 241.210938 L 42.300781 237.804688 Z M 46.664062 114.882812 " clip-rule="nonzero"/></clipPath><clipPath id="9297d09190"><path d="M 46.664062 114.882812 L 142.605469 118.289062 L 138.242188 241.210938 L 42.300781 237.804688 Z M 46.664062 114.882812 " clip-rule="nonzero"/></clipPath><clipPath id="75922aab86"><path d="M 3.824219 156.355469 L 99 156.355469 L 99 251.605469 L 3.824219 251.605469 Z M 3.824219 156.355469 " clip-rule="nonzero"/></clipPath></defs><g fill="#e9b44c" fill-opacity="1"><g transform="translate(113.84875, 231.057172)"><g><path d="M 23.84375 0.921875 C 19.925781 0.921875 16.46875 0.0703125 13.46875 -1.625 C 10.476562 -3.332031 8.117188 -5.707031 6.390625 -8.75 C 4.660156 -11.789062 3.796875 -15.273438 3.796875 -19.203125 C 3.796875 -23.117188 4.660156 -26.597656 6.390625 -29.640625 C 8.117188 -32.691406 10.476562 -35.066406 13.46875 -36.765625 C 16.46875 -38.472656 19.925781 -39.328125 23.84375 -39.328125 C 28.75 -39.328125 32.878906 -38.050781 36.234375 -35.5 C 39.585938 -32.945312 41.726562 -29.425781 42.65625 -24.9375 L 32.203125 -24.9375 C 31.691406 -26.789062 30.671875 -28.242188 29.140625 -29.296875 C 27.617188 -30.359375 25.828125 -30.890625 23.765625 -30.890625 C 21.035156 -30.890625 18.710938 -29.859375 16.796875 -27.796875 C 14.890625 -25.734375 13.9375 -22.867188 13.9375 -19.203125 C 13.9375 -15.535156 14.890625 -12.671875 16.796875 -10.609375 C 18.710938 -8.546875 21.035156 -7.515625 23.765625 -7.515625 C 25.828125 -7.515625 27.617188 -8.03125 29.140625 -9.0625 C 30.671875 -10.09375 31.691406 -11.5625 32.203125 -13.46875 L 42.65625 -13.46875 C 41.726562 -9.132812 39.585938 -5.648438 36.234375 -3.015625 C 32.878906 -0.390625 28.75 0.921875 23.84375 0.921875 Z M 23.84375 0.921875 "/></g></g></g><g fill="#e9b44c" fill-opacity="1"><g transform="translate(156.810056, 231.057172)"><g><path d="M 5.03125 0 L 5.03125 -55.75 L 14.9375 -55.75 L 14.9375 -32.515625 C 16.226562 -34.628906 17.96875 -36.289062 20.15625 -37.5 C 22.351562 -38.71875 24.875 -39.328125 27.71875 -39.328125 C 32.46875 -39.328125 36.144531 -37.828125 38.75 -34.828125 C 41.351562 -31.835938 42.65625 -27.453125 42.65625 -21.671875 L 42.65625 0 L 32.828125 0 L 32.828125 -20.75 C 32.828125 -24.050781 32.164062 -26.578125 30.84375 -28.328125 C 29.53125 -30.085938 27.457031 -30.96875 24.625 -30.96875 C 21.832031 -30.96875 19.519531 -29.984375 17.6875 -28.015625 C 15.851562 -26.054688 14.9375 -23.320312 14.9375 -19.8125 L 14.9375 0 Z M 5.03125 0 "/></g></g></g><g fill="#e9b44c" fill-opacity="1"><g transform="translate(200.390628, 231.057172)"><g><path d="M 18.265625 0.921875 C 14.960938 0.921875 12.253906 0.394531 10.140625 -0.65625 C 8.023438 -1.71875 6.453125 -3.125 5.421875 -4.875 C 4.390625 -6.632812 3.875 -8.570312 3.875 -10.6875 C 3.875 -14.25 5.265625 -17.140625 8.046875 -19.359375 C 10.835938 -21.578125 15.019531 -22.6875 20.59375 -22.6875 L 30.34375 -22.6875 L 30.34375 -23.609375 C 30.34375 -26.242188 29.59375 -28.179688 28.09375 -29.421875 C 26.601562 -30.660156 24.75 -31.28125 22.53125 -31.28125 C 20.519531 -31.28125 18.765625 -30.800781 17.265625 -29.84375 C 15.765625 -28.882812 14.835938 -27.476562 14.484375 -25.625 L 4.796875 -25.625 C 5.054688 -28.414062 6 -30.84375 7.625 -32.90625 C 9.25 -34.96875 11.351562 -36.550781 13.9375 -37.65625 C 16.519531 -38.769531 19.410156 -39.328125 22.609375 -39.328125 C 28.078125 -39.328125 32.382812 -37.957031 35.53125 -35.21875 C 38.6875 -32.488281 40.265625 -28.617188 40.265625 -23.609375 L 40.265625 0 L 31.828125 0 L 30.890625 -6.1875 C 29.753906 -4.125 28.164062 -2.421875 26.125 -1.078125 C 24.09375 0.253906 21.472656 0.921875 18.265625 0.921875 Z M 20.515625 -6.8125 C 23.359375 -6.8125 25.566406 -7.738281 27.140625 -9.59375 C 28.710938 -11.457031 29.703125 -13.753906 30.109375 -16.484375 L 21.671875 -16.484375 C 19.046875 -16.484375 17.164062 -16.003906 16.03125 -15.046875 C 14.894531 -14.097656 14.328125 -12.925781 14.328125 -11.53125 C 14.328125 -10.039062 14.894531 -8.878906 16.03125 -8.046875 C 17.164062 -7.222656 18.660156 -6.8125 20.515625 -6.8125 Z M 20.515625 -6.8125 "/></g></g></g><g fill="#e9b44c" fill-opacity="1"><g transform="translate(241.571515, 231.057172)"><g><path d="M 22.140625 0 C 18.117188 0 14.894531 -0.976562 12.46875 -2.9375 C 10.039062 -4.90625 8.828125 -8.390625 8.828125 -13.390625 L 8.828125 -30.109375 L 2.25 -30.109375 L 2.25 -38.40625 L 8.828125 -38.40625 L 9.984375 -48.703125 L 18.734375 -48.703125 L 18.734375 -38.40625 L 29.109375 -38.40625 L 29.109375 -30.109375 L 18.734375 -30.109375 L 18.734375 -13.3125 C 18.734375 -11.457031 19.132812 -10.179688 19.9375 -9.484375 C 20.738281 -8.785156 22.117188 -8.4375 24.078125 -8.4375 L 28.875 -8.4375 L 28.875 0 Z M 22.140625 0 "/></g></g></g><g fill="#e9b44c" fill-opacity="1"><g transform="translate(270.676551, 231.057172)"><g><path d="M 22.140625 0 C 18.117188 0 14.894531 -0.976562 12.46875 -2.9375 C 10.039062 -4.90625 8.828125 -8.390625 8.828125 -13.390625 L 8.828125 -30.109375 L 2.25 -30.109375 L 2.25 -38.40625 L 8.828125 -38.40625 L 9.984375 -48.703125 L 18.734375 -48.703125 L 18.734375 -38.40625 L 29.109375 -38.40625 L 29.109375 -30.109375 L 18.734375 -30.109375 L 18.734375 -13.3125 C 18.734375 -11.457031 19.132812 -10.179688 19.9375 -9.484375 C 20.738281 -8.785156 22.117188 -8.4375 24.078125 -8.4375 L 28.875 -8.4375 L 28.875 0 Z M 22.140625 0 "/></g></g></g><g fill="#e9b44c" fill-opacity="1"><g transform="translate(299.781588, 231.057172)"><g><path d="M 23.6875 0.921875 C 19.820312 0.921875 16.390625 0.0976562 13.390625 -1.546875 C 10.398438 -3.203125 8.050781 -5.523438 6.34375 -8.515625 C 4.644531 -11.503906 3.796875 -14.960938 3.796875 -18.890625 C 3.796875 -22.867188 4.632812 -26.40625 6.3125 -29.5 C 7.988281 -32.59375 10.3125 -35.003906 13.28125 -36.734375 C 16.25 -38.460938 19.742188 -39.328125 23.765625 -39.328125 C 27.535156 -39.328125 30.863281 -38.5 33.75 -36.84375 C 36.644531 -35.195312 38.90625 -32.941406 40.53125 -30.078125 C 42.15625 -27.210938 42.96875 -24.023438 42.96875 -20.515625 C 42.96875 -19.953125 42.953125 -19.359375 42.921875 -18.734375 C 42.898438 -18.117188 42.863281 -17.472656 42.8125 -16.796875 L 13.625 -16.796875 C 13.832031 -13.804688 14.878906 -11.457031 16.765625 -9.75 C 18.648438 -8.050781 20.929688 -7.203125 23.609375 -7.203125 C 25.628906 -7.203125 27.320312 -7.648438 28.6875 -8.546875 C 30.050781 -9.453125 31.070312 -10.628906 31.75 -12.078125 L 41.8125 -12.078125 C 41.082031 -9.648438 39.878906 -7.441406 38.203125 -5.453125 C 36.523438 -3.472656 34.460938 -1.914062 32.015625 -0.78125 C 29.566406 0.351562 26.789062 0.921875 23.6875 0.921875 Z M 23.765625 -31.28125 C 21.335938 -31.28125 19.195312 -30.59375 17.34375 -29.21875 C 15.488281 -27.851562 14.300781 -25.78125 13.78125 -23 L 32.90625 -23 C 32.75 -25.519531 31.816406 -27.53125 30.109375 -29.03125 C 28.410156 -30.53125 26.296875 -31.28125 23.765625 -31.28125 Z M 23.765625 -31.28125 "/></g></g></g><g fill="#e9b44c" fill-opacity="1"><g transform="translate(342.588066, 231.057172)"><g><path d="M 5.03125 0 L 5.03125 -38.40625 L 13.859375 -38.40625 L 14.78125 -31.203125 C 16.175781 -33.679688 18.070312 -35.65625 20.46875 -37.125 C 22.875 -38.59375 25.703125 -39.328125 28.953125 -39.328125 L 28.953125 -28.875 L 26.171875 -28.875 C 24.003906 -28.875 22.066406 -28.535156 20.359375 -27.859375 C 18.660156 -27.191406 17.332031 -26.03125 16.375 -24.375 C 15.414062 -22.726562 14.9375 -20.4375 14.9375 -17.5 L 14.9375 0 Z M 5.03125 0 "/></g></g></g><g clip-path="url(#0e455d32b3)"><g clip-path="url(#b14cec0b58)"><g clip-path="url(#9297d09190)"><path fill="#e9b44c" d="M 138.941406 118.160156 C 131.183594 128.792969 122.75 124.25 116.355469 133.824219 C 112.328125 139.851562 110.125 140.15625 110.125 140.15625 C 113.910156 135.609375 111.066406 129.179688 111.066406 129.179688 C 101.539062 138.136719 96.109375 135.164062 87.894531 140.65625 C 79.679688 146.148438 78.058594 155.726562 78.058594 155.726562 C 76.902344 150.632812 79.140625 143.996094 79.140625 143.996094 C 62.953125 152.871094 55.785156 169.488281 59.59375 180.382812 C 54.542969 186.332031 53.667969 194.269531 53.667969 194.269531 C 59.296875 180.953125 72.171875 172.0625 84.941406 165.601562 C 105.015625 155.449219 116.84375 144.34375 116.84375 144.34375 C 109.421875 156.390625 92.8125 165.097656 79.300781 174.042969 C 65.792969 182.984375 54.699219 193.339844 48.121094 215.371094 L 42.902344 221.441406 L 52.167969 238.328125 L 51.746094 225.574219 C 50.847656 225.113281 50.203125 224.203125 50.136719 223.121094 C 50.039062 221.488281 51.28125 220.089844 52.910156 219.992188 C 54.539062 219.890625 55.941406 221.132812 56.039062 222.761719 C 56.125 224.148438 55.242188 225.363281 53.976562 225.761719 L 52.886719 238.285156 L 62.796875 221.613281 L 57.664062 214.910156 C 57.828125 197.855469 66.882812 190.160156 66.882812 190.160156 C 87.480469 196.714844 104.835938 179.710938 104.835938 179.710938 C 94.933594 181.15625 88.839844 177.78125 88.839844 177.78125 C 115.941406 176.878906 122.589844 160.191406 122.589844 160.191406 C 117.246094 161.417969 113.175781 159.410156 113.175781 159.410156 C 128.222656 158.648438 132.339844 146.230469 132.339844 146.230469 C 126.417969 148.644531 124.246094 148.769531 124.246094 148.769531 C 141.917969 140.988281 138.941406 118.160156 138.941406 118.160156 Z M 138.941406 118.160156 " fill-opacity="1" fill-rule="nonzero"/></g></g></g><g clip-path="url(#75922aab86)"><path fill="#e9b44c" d="M 51.40625 156.355469 C 64.546875 156.355469 76.441406 161.683594 85.050781 170.292969 C 93.660156 178.902344 98.988281 190.796875 98.988281 203.9375 C 98.988281 217.074219 93.660156 228.96875 85.050781 237.582031 C 76.441406 246.191406 64.546875 251.519531 51.40625 251.519531 C 38.265625 251.519531 26.371094 246.191406 17.761719 237.582031 C 9.152344 228.96875 3.824219 217.074219 3.824219 203.9375 C 3.824219 190.796875 9.152344 178.902344 17.761719 170.292969 C 26.371094 161.683594 38.265625 156.355469 51.40625 156.355469 Z M 81.3125 174.03125 C 73.660156 166.375 63.085938 161.644531 51.40625 161.644531 C 39.726562 161.644531 29.152344 166.375 21.5 174.03125 C 13.847656 181.683594 9.113281 192.257812 9.113281 203.9375 C 9.113281 215.617188 13.847656 226.191406 21.5 233.84375 C 29.152344 241.496094 39.726562 246.230469 51.40625 246.230469 C 63.085938 246.230469 73.660156 241.496094 81.3125 233.84375 C 88.964844 226.191406 93.699219 215.617188 93.699219 203.9375 C 93.699219 192.257812 88.964844 181.683594 81.3125 174.03125 " fill-opacity="1" fill-rule="nonzero"/></g><path stroke-linecap="round" transform="matrix(0.60932, -0.437298, 0.437298, 0.60932, 68.859331, 176.311877)" fill="none" stroke-linejoin="miter" d="M 3.000743 3.000832 L 22.669654 3.00019 " stroke="#ffffff" stroke-width="6" stroke-opacity="1" stroke-miterlimit="4"/></svg>