<svg xmlns="http://www.w3.org/2000/svg" xmlns:xlink="http://www.w3.org/1999/xlink" width="500" zoomAndPan="magnify" viewBox="0 0 375 374.999991" height="500" preserveAspectRatio="xMidYMid meet" version="1.0"><defs><clipPath id="22320c7ded"><path d="M 109 14 L 367 14 L 367 335 L 109 335 Z M 109 14 " clip-rule="nonzero"/></clipPath><clipPath id="063507041d"><path d="M 119.585938 5.332031 L 375.382812 14.414062 L 363.746094 342.15625 L 107.949219 333.074219 Z M 119.585938 5.332031 " clip-rule="nonzero"/></clipPath><clipPath id="f5f64aaf08"><path d="M 119.585938 5.332031 L 375.382812 14.414062 L 363.746094 342.15625 L 107.949219 333.074219 Z M 119.585938 5.332031 " clip-rule="nonzero"/></clipPath><clipPath id="cc9b2befb7"><path d="M 5.363281 115.910156 L 259.324219 115.910156 L 259.324219 369.871094 L 5.363281 369.871094 Z M 5.363281 115.910156 " clip-rule="nonzero"/></clipPath></defs><g clip-path="url(#22320c7ded)"><g clip-path="url(#063507041d)"><g clip-path="url(#f5f64aaf08)"><path fill="#e9b44c" d="M 365.613281 14.066406 C 344.929688 42.417969 322.449219 30.304688 305.398438 55.832031 C 294.660156 71.90625 288.78125 72.71875 288.78125 72.71875 C 298.878906 60.597656 291.296875 43.457031 291.296875 43.457031 C 265.886719 67.335938 251.417969 59.410156 229.511719 74.050781 C 207.605469 88.691406 203.285156 114.226562 203.285156 114.226562 C 200.207031 100.648438 206.171875 82.957031 206.171875 82.957031 C 163.007812 106.617188 143.902344 150.925781 154.054688 179.96875 C 140.585938 195.835938 138.257812 216.996094 138.257812 216.996094 C 153.257812 181.488281 187.59375 157.78125 221.640625 140.5625 C 275.160156 113.488281 306.699219 83.886719 306.699219 83.886719 C 286.914062 116.007812 242.621094 139.21875 206.601562 163.0625 C 170.585938 186.90625 141 214.515625 123.460938 273.253906 L 109.546875 289.441406 L 134.25 334.464844 L 133.132812 300.460938 C 130.730469 299.230469 129.015625 296.808594 128.839844 293.917969 C 128.578125 289.574219 131.886719 285.835938 136.234375 285.574219 C 140.582031 285.3125 144.316406 288.621094 144.582031 292.96875 C 144.804688 296.65625 142.449219 299.898438 139.074219 300.957031 L 136.175781 334.351562 L 162.59375 289.898438 L 148.90625 272.03125 C 149.347656 226.554688 173.492188 206.039062 173.492188 206.039062 C 228.40625 223.519531 274.675781 178.175781 274.675781 178.175781 C 248.28125 182.027344 232.03125 173.03125 232.03125 173.03125 C 304.296875 170.625 322.011719 126.136719 322.011719 126.136719 C 307.765625 129.40625 296.914062 124.046875 296.914062 124.046875 C 337.035156 122.019531 348.015625 88.914062 348.015625 88.914062 C 332.226562 95.34375 326.429688 95.675781 326.429688 95.675781 C 373.550781 74.9375 365.613281 14.066406 365.613281 14.066406 Z M 365.613281 14.066406 " fill-opacity="1" fill-rule="nonzero"/></g></g></g><g clip-path="url(#cc9b2befb7)"><path fill="#e9b44c" d="M 132.222656 115.910156 C 167.257812 115.910156 198.96875 130.109375 221.925781 153.066406 C 244.886719 176.027344 259.085938 207.738281 259.085938 242.769531 C 259.085938 277.800781 244.886719 309.515625 221.925781 332.472656 C 198.96875 355.433594 167.257812 369.632812 132.222656 369.632812 C 97.191406 369.632812 65.480469 355.433594 42.519531 332.472656 C 19.5625 309.515625 5.363281 277.800781 5.363281 242.769531 C 5.363281 207.738281 19.5625 176.027344 42.519531 153.066406 C 65.480469 130.109375 97.191406 115.910156 132.222656 115.910156 Z M 211.960938 163.035156 C 191.558594 142.628906 163.363281 130.003906 132.222656 130.003906 C 101.085938 130.003906 72.890625 142.628906 52.488281 163.035156 C 32.078125 183.4375 19.457031 211.628906 19.457031 242.769531 C 19.457031 273.910156 32.078125 302.105469 52.488281 322.507812 C 72.890625 342.914062 101.085938 355.539062 132.222656 355.539062 C 163.363281 355.539062 191.558594 342.914062 211.960938 322.507812 C 232.367188 302.105469 244.992188 273.910156 244.992188 242.769531 C 244.992188 211.628906 232.367188 183.4375 211.960938 163.035156 " fill-opacity="1" fill-rule="nonzero"/></g><path stroke-linecap="round" transform="matrix(1.624593, -1.165941, 1.165941, 1.624593, 178.758612, 169.116272)" fill="none" stroke-linejoin="miter" d="M 2.999481 2.999603 L 22.672597 2.999721 " stroke="#ffffff" stroke-width="6" stroke-opacity="1" stroke-miterlimit="4"/></svg>