<svg xmlns="http://www.w3.org/2000/svg" xmlns:xlink="http://www.w3.org/1999/xlink" width="500" zoomAndPan="magnify" viewBox="0 0 375 374.999991" height="500" preserveAspectRatio="xMidYMid meet" version="1.0"><defs><g/><clipPath id="7834698c93"><path d="M 0 154.644531 L 96.6875 154.644531 L 96.6875 251.332031 L 0 251.332031 Z M 0 154.644531 " clip-rule="nonzero"/></clipPath><clipPath id="fa9b731797"><path d="M 48.34375 154.644531 C 21.644531 154.644531 0 176.289062 0 202.988281 C 0 229.6875 21.644531 251.332031 48.34375 251.332031 C 75.042969 251.332031 96.6875 229.6875 96.6875 202.988281 C 96.6875 176.289062 75.042969 154.644531 48.34375 154.644531 Z M 48.34375 154.644531 " clip-rule="nonzero"/></clipPath><clipPath id="ac550ee46f"><path d="M 6.699219 161.347656 L 89.988281 161.347656 L 89.988281 244.632812 L 6.699219 244.632812 Z M 6.699219 161.347656 " clip-rule="nonzero"/></clipPath><clipPath id="83d131d249"><path d="M 48.34375 161.347656 C 25.34375 161.347656 6.699219 179.992188 6.699219 202.988281 C 6.699219 225.988281 25.34375 244.632812 48.34375 244.632812 C 71.34375 244.632812 89.988281 225.988281 89.988281 202.988281 C 89.988281 179.992188 71.34375 161.347656 48.34375 161.347656 Z M 48.34375 161.347656 " clip-rule="nonzero"/></clipPath><clipPath id="1490fc2553"><path d="M 24.316406 123.667969 L 116 123.667969 L 116 244.136719 L 24.316406 244.136719 Z M 24.316406 123.667969 " clip-rule="nonzero"/></clipPath></defs><g fill="#ffffff" fill-opacity="1"><g transform="translate(104.354889, 230.072057)"><g><path d="M 24.765625 0.96875 C 20.691406 0.96875 17.097656 0.0820312 13.984375 -1.6875 C 10.878906 -3.457031 8.425781 -5.921875 6.625 -9.078125 C 4.832031 -12.242188 3.9375 -15.863281 3.9375 -19.9375 C 3.9375 -24.007812 4.832031 -27.628906 6.625 -30.796875 C 8.425781 -33.960938 10.878906 -36.425781 13.984375 -38.1875 C 17.097656 -39.957031 20.691406 -40.84375 24.765625 -40.84375 C 29.859375 -40.84375 34.144531 -39.515625 37.625 -36.859375 C 41.113281 -34.210938 43.335938 -30.554688 44.296875 -25.890625 L 33.453125 -25.890625 C 32.910156 -27.816406 31.847656 -29.328125 30.265625 -30.421875 C 28.691406 -31.523438 26.832031 -32.078125 24.6875 -32.078125 C 21.84375 -32.078125 19.425781 -31.003906 17.4375 -28.859375 C 15.457031 -26.722656 14.46875 -23.75 14.46875 -19.9375 C 14.46875 -16.132812 15.457031 -13.160156 17.4375 -11.015625 C 19.425781 -8.867188 21.84375 -7.796875 24.6875 -7.796875 C 26.832031 -7.796875 28.691406 -8.332031 30.265625 -9.40625 C 31.847656 -10.476562 32.910156 -12.003906 33.453125 -13.984375 L 44.296875 -13.984375 C 43.335938 -9.484375 41.113281 -5.863281 37.625 -3.125 C 34.144531 -0.394531 29.859375 0.96875 24.765625 0.96875 Z M 24.765625 0.96875 "/></g></g></g><g fill="#ffffff" fill-opacity="1"><g transform="translate(148.968398, 230.072057)"><g><path d="M 5.21875 0 L 5.21875 -57.890625 L 15.515625 -57.890625 L 15.515625 -33.765625 C 16.859375 -35.960938 18.664062 -37.691406 20.9375 -38.953125 C 23.21875 -40.210938 25.832031 -40.84375 28.78125 -40.84375 C 33.71875 -40.84375 37.535156 -39.285156 40.234375 -36.171875 C 42.941406 -33.066406 44.296875 -28.515625 44.296875 -22.515625 L 44.296875 0 L 34.09375 0 L 34.09375 -21.546875 C 34.09375 -24.972656 33.40625 -27.597656 32.03125 -29.421875 C 30.664062 -31.242188 28.507812 -32.15625 25.5625 -32.15625 C 22.675781 -32.15625 20.28125 -31.132812 18.375 -29.09375 C 16.46875 -27.0625 15.515625 -24.222656 15.515625 -20.578125 L 15.515625 0 Z M 5.21875 0 "/></g></g></g><g fill="#ffffff" fill-opacity="1"><g transform="translate(194.224989, 230.072057)"><g><path d="M 18.96875 0.96875 C 15.539062 0.96875 12.726562 0.421875 10.53125 -0.671875 C 8.332031 -1.773438 6.695312 -3.238281 5.625 -5.0625 C 4.550781 -6.882812 4.015625 -8.894531 4.015625 -11.09375 C 4.015625 -14.789062 5.460938 -17.789062 8.359375 -20.09375 C 11.253906 -22.40625 15.597656 -23.5625 21.390625 -23.5625 L 31.515625 -23.5625 L 31.515625 -24.53125 C 31.515625 -27.257812 30.738281 -29.265625 29.1875 -30.546875 C 27.632812 -31.835938 25.703125 -32.484375 23.390625 -32.484375 C 21.304688 -32.484375 19.484375 -31.988281 17.921875 -31 C 16.367188 -30.007812 15.40625 -28.546875 15.03125 -26.609375 L 4.984375 -26.609375 C 5.253906 -29.503906 6.234375 -32.023438 7.921875 -34.171875 C 9.609375 -36.316406 11.789062 -37.960938 14.46875 -39.109375 C 17.15625 -40.265625 20.160156 -40.84375 23.484375 -40.84375 C 29.160156 -40.84375 33.632812 -39.421875 36.90625 -36.578125 C 40.175781 -33.742188 41.8125 -29.726562 41.8125 -24.53125 L 41.8125 0 L 33.046875 0 L 32.078125 -6.4375 C 30.898438 -4.289062 29.253906 -2.519531 27.140625 -1.125 C 25.023438 0.269531 22.300781 0.96875 18.96875 0.96875 Z M 21.3125 -7.078125 C 24.257812 -7.078125 26.550781 -8.039062 28.1875 -9.96875 C 29.820312 -11.894531 30.851562 -14.28125 31.28125 -17.125 L 22.515625 -17.125 C 19.773438 -17.125 17.816406 -16.628906 16.640625 -15.640625 C 15.460938 -14.648438 14.875 -13.429688 14.875 -11.984375 C 14.875 -10.429688 15.460938 -9.222656 16.640625 -8.359375 C 17.816406 -7.503906 19.375 -7.078125 21.3125 -7.078125 Z M 21.3125 -7.078125 "/></g></g></g><g fill="#ffffff" fill-opacity="1"><g transform="translate(236.989607, 230.072057)"><g><path d="M 23 0 C 18.8125 0 15.457031 -1.015625 12.9375 -3.046875 C 10.425781 -5.085938 9.171875 -8.707031 9.171875 -13.90625 L 9.171875 -31.28125 L 2.328125 -31.28125 L 2.328125 -39.875 L 9.171875 -39.875 L 10.375 -50.578125 L 19.453125 -50.578125 L 19.453125 -39.875 L 30.234375 -39.875 L 30.234375 -31.28125 L 19.453125 -31.28125 L 19.453125 -13.828125 C 19.453125 -11.898438 19.867188 -10.570312 20.703125 -9.84375 C 21.535156 -9.125 22.96875 -8.765625 25 -8.765625 L 29.984375 -8.765625 L 29.984375 0 Z M 23 0 "/></g></g></g><g fill="#ffffff" fill-opacity="1"><g transform="translate(267.213962, 230.072057)"><g><path d="M 23 0 C 18.8125 0 15.457031 -1.015625 12.9375 -3.046875 C 10.425781 -5.085938 9.171875 -8.707031 9.171875 -13.90625 L 9.171875 -31.28125 L 2.328125 -31.28125 L 2.328125 -39.875 L 9.171875 -39.875 L 10.375 -50.578125 L 19.453125 -50.578125 L 19.453125 -39.875 L 30.234375 -39.875 L 30.234375 -31.28125 L 19.453125 -31.28125 L 19.453125 -13.828125 C 19.453125 -11.898438 19.867188 -10.570312 20.703125 -9.84375 C 21.535156 -9.125 22.96875 -8.765625 25 -8.765625 L 29.984375 -8.765625 L 29.984375 0 Z M 23 0 "/></g></g></g><g fill="#ffffff" fill-opacity="1"><g transform="translate(297.438318, 230.072057)"><g><path d="M 24.609375 0.96875 C 20.585938 0.96875 17.019531 0.109375 13.90625 -1.609375 C 10.800781 -3.328125 8.363281 -5.738281 6.59375 -8.84375 C 4.820312 -11.957031 3.9375 -15.550781 3.9375 -19.625 C 3.9375 -23.75 4.804688 -27.414062 6.546875 -30.625 C 8.296875 -33.84375 10.707031 -36.347656 13.78125 -38.140625 C 16.863281 -39.941406 20.5 -40.84375 24.6875 -40.84375 C 28.59375 -40.84375 32.046875 -39.984375 35.046875 -38.265625 C 38.054688 -36.554688 40.40625 -34.210938 42.09375 -31.234375 C 43.78125 -28.265625 44.625 -24.957031 44.625 -21.3125 C 44.625 -20.71875 44.609375 -20.097656 44.578125 -19.453125 C 44.554688 -18.816406 44.519531 -18.148438 44.46875 -17.453125 L 14.15625 -17.453125 C 14.363281 -14.335938 15.445312 -11.894531 17.40625 -10.125 C 19.363281 -8.363281 21.738281 -7.484375 24.53125 -7.484375 C 26.613281 -7.484375 28.363281 -7.953125 29.78125 -8.890625 C 31.207031 -9.828125 32.269531 -11.046875 32.96875 -12.546875 L 43.421875 -12.546875 C 42.671875 -10.023438 41.421875 -7.734375 39.671875 -5.671875 C 37.929688 -3.609375 35.785156 -1.984375 33.234375 -0.796875 C 30.691406 0.378906 27.816406 0.96875 24.609375 0.96875 Z M 24.6875 -32.484375 C 22.164062 -32.484375 19.9375 -31.769531 18 -30.34375 C 16.070312 -28.925781 14.84375 -26.769531 14.3125 -23.875 L 34.171875 -23.875 C 34.015625 -26.507812 33.050781 -28.601562 31.28125 -30.15625 C 29.507812 -31.707031 27.3125 -32.484375 24.6875 -32.484375 Z M 24.6875 -32.484375 "/></g></g></g><g fill="#ffffff" fill-opacity="1"><g transform="translate(341.891044, 230.072057)"><g><path d="M 5.21875 0 L 5.21875 -39.875 L 14.390625 -39.875 L 15.359375 -32.40625 C 16.804688 -34.976562 18.773438 -37.023438 21.265625 -38.546875 C 23.753906 -40.078125 26.691406 -40.84375 30.078125 -40.84375 L 30.078125 -29.984375 L 27.171875 -29.984375 C 24.921875 -29.984375 22.910156 -29.632812 21.140625 -28.9375 C 19.378906 -28.25 18 -27.046875 17 -25.328125 C 16.007812 -23.609375 15.515625 -21.222656 15.515625 -18.171875 L 15.515625 0 Z M 5.21875 0 "/></g></g></g><g clip-path="url(#7834698c93)"><g clip-path="url(#fa9b731797)"><path fill="#ffffff" d="M 0 154.644531 L 96.6875 154.644531 L 96.6875 251.332031 L 0 251.332031 Z M 0 154.644531 " fill-opacity="1" fill-rule="nonzero"/></g></g><g clip-path="url(#ac550ee46f)"><g clip-path="url(#83d131d249)"><path fill="#e9b44c" d="M 6.699219 161.347656 L 89.988281 161.347656 L 89.988281 244.632812 L 6.699219 244.632812 Z M 6.699219 161.347656 " fill-opacity="1" fill-rule="nonzero"/></g></g><g clip-path="url(#1490fc2553)"><path fill="#ffffff" d="M 114.980469 123.667969 C 107.738281 134.371094 99.304688 130.207031 93.359375 139.828125 C 89.617188 145.882812 87.464844 146.257812 87.464844 146.257812 C 91.023438 141.664062 88.007812 135.453125 88.007812 135.453125 C 78.96875 144.578125 73.539062 141.847656 65.667969 147.523438 C 57.796875 153.199219 56.539062 162.652344 56.539062 162.652344 C 55.230469 157.695312 57.195312 151.105469 57.195312 151.105469 C 41.617188 160.378906 35.164062 176.9375 39.277344 187.496094 C 34.527344 193.511719 33.949219 201.332031 33.949219 201.332031 C 39.007812 188.0625 51.332031 178.890625 63.640625 172.105469 C 82.984375 161.441406 94.207031 150.136719 94.207031 150.136719 C 87.34375 162.214844 71.34375 171.339844 58.398438 180.585938 C 45.453125 189.832031 34.925781 200.382812 29.238281 222.230469 L 24.328125 228.371094 L 34.007812 244.621094 L 33.152344 232.117188 C 32.253906 231.699219 31.589844 230.828125 31.488281 229.765625 C 31.332031 228.171875 32.503906 226.753906 34.097656 226.597656 C 35.695312 226.445312 37.113281 227.613281 37.269531 229.210938 C 37.398438 230.566406 36.574219 231.789062 35.347656 232.222656 L 34.714844 244.550781 L 43.859375 227.847656 L 38.585938 221.449219 C 38.15625 204.703125 46.773438 196.835938 46.773438 196.835938 C 67.214844 202.554688 83.652344 185.257812 83.652344 185.257812 C 73.988281 187.023438 67.890625 183.921875 67.890625 183.921875 C 94.457031 182.09375 100.394531 165.488281 100.394531 165.488281 C 95.195312 166.875 91.128906 165.046875 91.128906 165.046875 C 105.871094 163.773438 109.480469 151.445312 109.480469 151.445312 C 103.753906 154.019531 101.625 154.21875 101.625 154.21875 C 118.695312 145.96875 114.980469 123.667969 114.980469 123.667969 Z M 114.980469 123.667969 " fill-opacity="1" fill-rule="nonzero"/></g><path stroke-linecap="round" transform="matrix(1.168816, -0.801609, 0.801609, 1.168816, 58.157549, 174.655273)" fill="none" stroke-linejoin="miter" d="M 1.499677 1.500589 L 16.675405 1.501387 " stroke="#e9b44c" stroke-width="3" stroke-opacity="1" stroke-miterlimit="4"/></svg>